<?xml version="1.0" encoding="UTF-8" standalone="no"?>
<!DOCTYPE svg PUBLIC "-//W3C//DTD SVG 1.1//EN" "http://www.w3.org/Graphics/SVG/1.1/DTD/svg11.dtd">
<svg width="100%" height="100%" viewBox="0 0 241 231" version="1.1" xmlns="http://www.w3.org/2000/svg" xmlns:xlink="http://www.w3.org/1999/xlink" xml:space="preserve" xmlns:serif="http://www.serif.com/" style="fill-rule:evenodd;clip-rule:evenodd;stroke-linejoin:round;stroke-miterlimit:2;">
    <g transform="matrix(1,0,0,1,-67,-359)">
        <g id="iv_front_txt">
            <path id="mainFrontTextBlack" d="M165.131,531.076C166.536,531.026 168.052,531.046 169.609,531.118C171.026,527.1 172.444,523.751 173.861,521.183C176.052,517.388 179.402,516.718 179.016,518.95C178.758,519.732 177.727,524.979 176.696,531.677C180.949,532.235 184.686,533.016 186.232,533.574C188.165,534.244 188.938,535.137 187.649,535.137C185.072,535.249 180.691,535.695 176.052,536.03C174.119,548.31 172.444,563.492 174.634,568.292C175.929,571.282 177.855,563.089 179.053,560.01C179.085,559.794 179.118,559.578 179.153,559.362C179.926,554.338 181.472,549.426 182.503,547.752C183.663,546.077 184.694,545.519 184.822,546.524C185.08,552.775 187.786,571.641 183.92,572.646C181.026,573.346 179.538,571.67 178.943,568.876C177.658,573.453 175.243,577.688 171.284,576.777C163.81,574.99 162.908,566.73 163.552,559.362C163.81,556.236 164.326,553.222 164.841,551.101C165.743,545.854 166.774,540.942 168.062,536.588C165.853,536.633 163.807,536.624 162.113,536.52C157.858,540.867 151.147,543.061 155.684,538.486C156.681,537.498 157.524,536.623 158.222,535.854C157.845,535.687 157.596,535.487 157.496,535.249C156.723,533.24 158.248,532.095 160.964,531.522C159.864,528.601 133.005,545.818 127.592,553.78C120.634,564.162 143.957,546.301 152.205,549.203C158.003,551.324 161.096,554.561 161.096,559.362C160.967,562.599 159.421,566.506 156.328,571.195C153.622,575.214 149.112,580.684 143.7,584.591C134.035,591.624 115.608,591.289 122.438,577.223C125.788,570.413 132.746,564.162 128.752,571.083C116.381,593.075 136.741,577.223 145.761,563.604C161.611,539.714 132.231,567.064 121.278,560.59C113.933,556.236 118.701,545.854 126.432,539.156C137.514,529.556 154.524,519.62 162.127,525.314C164.567,527.146 165.347,529.141 165.131,531.076ZM204.464,558.358C204.241,558.576 203.97,558.87 203.644,559.25C199.907,563.492 195.655,567.511 194.882,561.371C193.851,552.887 200.938,539.379 201.454,550.766C201.711,556.124 206.608,542.728 198.103,542.728C192.047,542.728 187.537,551.882 187.279,559.362C187.021,563.269 187.923,566.73 190.372,568.181C197.072,572.311 201.196,566.506 203.773,562.153C203.937,561.822 204.176,561.325 204.419,560.786C204.439,571.944 206.207,580.589 211.771,578.339C213.575,577.558 214.219,571.865 214.219,564.274C214.348,555.901 213.832,568.069 220.92,567.957C222.978,567.957 224.585,566.356 225.741,564.539C226.263,566.536 227.345,568.09 229.175,568.851C235.128,571.575 238.633,567.006 240.629,562.831C240.456,567.172 240.961,571.687 242.584,575.995C243.358,578.004 245.29,579.121 248.254,579.121C250.058,579.009 249.672,571.418 249.929,565.502C250.187,557.352 255.728,551.771 255.728,552.106C253.538,556.906 254.182,566.395 261.914,564.608C265.264,563.827 267.712,560.59 267.97,557.017C267.97,556.794 267.712,555.789 267.455,556.124C267.326,556.459 266.681,557.91 265.908,559.138C263.846,561.818 262.042,561.148 262.687,557.799C263.589,553.892 265.393,547.529 265.779,546.524C266.681,543.063 260.11,543.845 257.146,546.301C255.342,547.752 250.703,553.11 249.929,554.785C249.414,551.659 250.574,544.18 250.832,542.282C251.857,533.399 242.939,544.615 240.941,559.125C238.818,561.78 235.277,566.211 233.814,564.943C232.525,563.939 233.041,558.469 233.298,557.017C239.613,553.11 244.123,542.728 238.839,540.049C233.685,537.482 226.34,549.761 225.438,559.362C225.381,560.001 225.352,560.628 225.354,561.237C220.878,566.15 219.389,560.631 217.054,554.561C219.76,550.543 222.079,546.747 224.012,544.626C224.528,543.956 223.626,543.956 222.208,544.403C220.018,545.296 216.023,549.65 214.09,551.436C213.575,539.603 212.286,526.765 212.157,520.29C212.028,517.946 210.482,519.174 209.193,523.081C207.905,526.653 205.972,537.593 205.07,548.868C204.722,552.086 204.582,555.303 204.464,558.358ZM238.066,542.17C238.775,544.012 238.646,545.994 237.937,547.85C237.229,549.705 235.94,551.436 234.329,552.775C235.102,550.096 236.262,545.519 238.066,542.17ZM185.08,538.71C184.178,538.654 183.244,538.905 182.567,539.379C181.891,539.854 181.472,540.551 181.601,541.389C183.147,548.533 189.848,539.268 185.08,538.71ZM123.529,440.429C121.725,444.559 118.761,456.727 117.086,469.23L116.957,469.565C111.931,470.681 107.035,472.802 107.035,477.156C107.035,480.059 111.803,480.505 115.926,480.17L115.926,480.952C115.153,494.124 116.828,504.73 124.302,502.05C128.426,500.599 128.554,481.175 128.554,473.807C130.745,473.472 133.065,473.137 135.255,472.802C132.807,485.752 132.678,498.143 138.863,506.627C145.564,515.558 156.131,508.079 154.456,504.618C151.492,498.478 149.688,488.543 149.688,477.826C149.688,475.593 149.688,473.361 149.945,471.128C151.363,471.016 152.394,470.905 152.651,470.905C154.456,470.793 153.296,468.895 150.203,468.225C150.976,460.299 152.78,452.373 156.002,445.787C157.935,441.657 146.982,431.61 141.441,450.029C139.637,455.722 137.832,461.639 136.415,467.556C134.224,467.667 131.905,467.779 129.457,468.002L128.426,468.114C128.168,456.057 127.395,443.889 127.395,437.415C127.395,434.735 125.462,436.187 123.529,440.429ZM247.08,476.662C249.418,480.75 255.044,485.748 256.046,489.994C257.464,496.357 252.309,500.599 249.732,499.706C245.609,498.255 250.119,490.106 254.242,489.771C255.402,489.659 251.923,482.514 247.928,486.087C244.062,489.436 242.001,497.027 244.707,501.38C249.346,508.525 262.103,502.162 264.165,495.129C266.355,487.65 262.232,482.849 258.881,477.826L258.752,477.826C257.206,475.37 255.66,472.914 255.273,470.123C254.242,463.648 264.809,458.848 262.618,466.439C262.103,468.225 259.397,470.793 258.752,472.133C257.722,473.919 263.649,472.579 265.582,467.667C267.257,463.537 266.355,458.29 261.201,458.29C252.825,458.178 243.547,465.211 246.253,474.812C246.38,475.243 246.567,475.689 246.802,476.149C246.595,476.312 246.29,476.632 245.858,477.156C243.797,479.724 239.931,484.747 238.384,483.408C237.096,482.403 237.611,476.933 237.869,475.482C244.183,471.574 248.693,461.192 243.41,458.513C238.255,455.946 230.91,468.225 230.008,477.826C229.622,482.18 230.524,485.975 233.745,487.315C240.575,490.44 244.183,483.966 245.987,479.5C246.244,478.833 246.853,477.472 247.08,476.662ZM189.471,476.963C191.393,470.15 196.444,463.425 202.803,463.425C204.091,463.425 205.122,463.76 205.895,464.207L205.895,464.318C207.957,455.611 211.436,447.462 215.044,443.108C217.879,439.759 221.23,439.089 220.199,441.098C217.75,446.234 215.173,465.546 215.431,477.826C215.56,483.296 216.204,487.091 217.622,487.984C219.468,489.157 220.138,484.322 221.655,479.411C221.721,478.884 221.798,478.355 221.882,477.826C222.655,472.802 224.202,467.89 225.232,466.216C226.392,464.541 227.423,463.983 227.552,464.988C227.81,471.239 230.516,490.106 226.65,491.11C224.36,491.664 222.95,490.73 222.167,488.932C220.698,494.513 217.897,499.419 213.369,497.027C208.601,494.571 206.024,489.771 204.993,483.966C202.545,488.543 198.937,494.459 191.849,490.106C188.773,488.196 188.063,483.581 189.046,478.718C188.685,478.861 188.326,478.971 187.976,479.054C187.718,479.724 187.589,480.393 187.331,481.063C186.043,484.412 183.723,486.98 180.373,487.315C175.218,487.761 172.512,483.966 171.868,479.277L171.868,479.165C171.841,478.958 171.819,478.749 171.8,478.539C171.3,478.772 170.799,478.939 170.314,479.054C170.056,479.724 169.927,480.393 169.669,481.063C168.381,484.412 166.061,486.98 162.711,487.315C157.556,487.761 154.85,483.966 154.206,479.277L154.206,479.165C153.175,471.128 158.201,460.411 167.092,463.872C170.314,465.211 171.602,471.351 170.7,477.044C171.057,477.044 171.402,477.023 171.735,476.974C171.759,469.338 176.651,460.718 184.754,463.872C187.976,465.211 189.264,471.351 188.362,477.044C188.746,477.044 189.116,477.02 189.471,476.963ZM270.616,496.357C275.641,494.459 278.734,484.301 271.904,484.524C266.75,484.635 265.719,490.44 269.456,493.12C271.518,494.682 270.1,496.357 270.616,496.357ZM204.736,471.686C203.447,477.937 197.648,496.58 197.648,482.068C197.648,474.365 203.705,464.207 205.251,468.002C204.993,469.23 204.864,470.458 204.736,471.686ZM180.373,464.653C176.893,467.444 177.796,475.035 181.275,477.491C181.017,478.719 179.6,481.733 178.182,482.291C174.059,483.519 173.157,467.89 180.373,464.653ZM162.711,464.653C159.231,467.444 160.133,475.035 163.613,477.491C163.355,478.719 161.938,481.733 160.52,482.291C156.397,483.519 155.494,467.89 162.711,464.653ZM116.055,478.607C114.251,478.496 113.091,478.272 114.122,477.603C114.637,477.268 115.282,476.933 116.184,476.598C116.184,477.268 116.055,477.937 116.055,478.607ZM165.159,465.435C165.288,466.886 165.159,468.532 164.95,470.081C164.74,471.63 164.45,473.081 164.257,474.142C162.453,471.463 162.453,467.779 165.159,465.435ZM182.821,465.435C182.95,466.886 182.821,468.532 182.612,470.081C182.402,471.63 182.112,473.081 181.919,474.142C180.115,471.463 180.115,467.779 182.821,465.435ZM242.637,460.634C243.345,462.476 243.217,464.458 242.508,466.314C241.799,468.17 240.511,469.9 238.9,471.239C239.673,468.56 240.833,463.983 242.637,460.634ZM227.81,457.174C226.908,457.118 225.973,457.369 225.297,457.843C224.62,458.318 224.202,459.016 224.33,459.853C225.877,466.997 232.578,457.732 227.81,457.174ZM191.515,373.498C183.912,367.805 166.903,377.74 155.821,387.34C148.089,394.038 143.321,404.42 150.666,408.774C161.619,415.249 191,387.899 175.15,411.788C166.13,425.407 145.77,441.259 158.14,419.268C162.135,412.346 155.176,418.598 151.826,425.407C144.996,439.473 163.423,439.808 173.088,432.775C178.5,428.868 183.01,423.398 185.716,419.379C188.809,414.691 190.355,410.783 190.484,407.546C190.484,402.746 187.392,399.508 181.593,397.387C173.346,394.485 150.022,412.346 156.98,401.964C163.81,391.917 204.788,367.135 185.072,386.671C177.212,394.597 203.113,382.205 191.515,373.498ZM277.506,404.532C278.794,408.886 286.139,414.802 287.299,419.714C288.717,426.077 283.562,430.319 280.985,429.426C276.861,427.975 281.372,419.826 285.495,419.491C286.655,419.379 283.176,412.235 279.181,415.807C275.315,419.156 273.253,426.747 275.959,431.101C280.598,438.245 293.356,431.882 295.417,424.849C297.608,417.37 293.485,412.57 290.134,407.546L290.005,407.546C288.459,405.09 286.913,402.634 286.526,399.843C285.495,393.369 296.062,388.568 293.871,396.159C293.356,397.946 290.65,400.513 290.005,401.853C288.974,403.639 294.902,402.299 296.835,397.387C298.51,393.257 297.608,388.01 292.454,388.01C284.078,387.899 274.8,394.931 277.506,404.532ZM79.003,429.091C83.642,433.892 89.441,433.668 93.049,428.087C96.142,423.175 98.977,414.021 99.235,410.002C99.492,408.104 98.59,408.104 98.461,408.439C97.559,409.779 91.761,427.64 89.828,423.51C88.41,420.719 88.281,414.691 88.926,407.546C89.441,400.736 90.601,392.922 91.89,385.889C97.817,385.443 106.966,384.773 110.188,384.55C111.863,384.55 110.961,383.545 108.384,382.652C106.451,381.982 98.333,381.424 92.792,380.754C94.209,372.828 95.626,366.8 95.884,365.795C96.528,363.228 92.147,364.009 89.312,368.363C87.379,371.377 85.575,375.396 83.771,380.084C74.493,379.749 66.246,380.642 68.179,384.884C68.823,386.447 74.622,386.671 81.581,386.447C80.034,391.582 78.617,397.387 77.328,403.416C76.813,405.983 76.04,409.444 75.653,413.128C75.009,419.156 75.395,425.296 79.003,429.091ZM226.64,418.059C224.599,422.454 221.507,426.423 217.167,427.417C209.693,429.091 214.074,408.997 214.46,402.411C214.976,394.15 206.085,413.463 207.115,421.723C209.564,442.041 196.42,428.421 194.616,418.821C193.972,415.025 193.585,411.23 193.456,407.546C193.327,396.383 196.033,379.526 202.476,369.702C205.054,365.907 207.76,364.679 207.631,367.246C207.373,371.265 206.342,388.568 206.342,403.75C206.6,407.546 206.085,408.551 207.76,404.755C210.079,399.732 214.589,392.81 220.904,395.378C226.058,397.499 222.321,412.123 221.806,418.04C221.518,421.615 223.875,418.007 226.055,413.995C226.016,412.003 226.226,409.769 226.581,407.546C227.355,402.523 228.901,397.611 229.932,395.936C231.092,394.262 232.123,393.703 232.251,394.708C232.509,400.96 235.215,419.826 231.349,420.83C228.819,421.442 227.364,420.238 226.64,418.059ZM260.859,405.195C260.572,405.8 260.162,406.6 259.707,407.323C257.645,410.002 255.841,409.332 256.485,405.983C257.387,402.076 259.191,395.713 259.578,394.708C260.48,391.248 253.908,392.029 250.944,394.485C249.14,395.936 244.501,401.295 243.728,402.969C243.213,399.843 244.372,392.364 244.63,390.466C245.661,381.535 236.641,392.922 234.708,407.546C234.063,412.904 234.321,418.709 236.383,424.179C237.156,426.189 239.089,427.305 242.053,427.305C243.857,427.194 243.47,419.602 243.728,413.686C243.986,405.537 249.527,399.955 249.527,400.29C247.336,405.09 247.98,414.579 255.712,412.793C257.73,412.322 259.421,410.961 260.502,409.172C260.139,416.085 261.42,423.305 268.349,424.961C276.596,426.859 278.142,406.43 276.725,407.099C275.694,407.658 273.245,420.049 271.699,416.477C269.508,411.676 271.184,396.494 273.116,384.215C277.755,383.88 282.137,383.433 284.714,383.322C286.003,383.322 285.229,382.429 283.296,381.759C281.75,381.201 278.013,380.419 273.761,379.861C274.792,373.163 275.822,367.916 276.08,367.135C276.467,364.902 273.116,365.572 270.926,369.367C269.508,371.935 268.091,375.284 266.673,379.303C259.457,378.968 253.143,379.749 254.56,383.433C255.076,384.661 259.586,384.884 265.127,384.773C263.838,389.127 262.808,394.038 261.906,399.285C261.521,400.867 261.137,402.945 260.859,405.195ZM301.869,426.077C306.894,424.179 309.987,414.021 303.157,414.244C298.003,414.356 296.972,420.161 300.709,422.84C302.771,424.403 301.353,426.077 301.869,426.077ZM108.005,403.527C111.227,407.658 142.669,404.867 144.859,402.523C144.731,402.299 144.731,402.188 144.731,401.964C142.798,400.848 109.294,396.606 107.747,401.964C107.619,402.411 107.619,402.969 108.005,403.527ZM232.509,386.894C231.607,386.838 230.673,387.089 229.996,387.564C229.32,388.038 228.901,388.736 229.03,389.573C230.576,396.718 237.277,387.452 232.509,386.894Z" style="fill-rule:nonzero;"/>
            <path id="iv_front_text_ob" d="M165.131,526.167C166.536,526.117 168.052,526.137 169.609,526.209C171.026,522.191 172.444,518.842 173.861,516.274C176.052,512.479 179.402,511.809 179.016,514.041C178.758,514.823 177.727,520.07 176.696,526.768C180.949,527.326 184.686,528.107 186.232,528.665C188.165,529.335 188.938,530.228 187.649,530.228C185.072,530.34 180.691,530.786 176.052,531.121C174.119,543.401 172.444,558.583 174.634,563.383C175.929,566.373 177.855,558.18 179.053,555.101C179.085,554.885 179.118,554.669 179.153,554.453C179.926,549.429 181.472,544.517 182.503,542.843C183.663,541.168 184.694,540.61 184.822,541.615C185.08,547.866 187.786,566.732 183.92,567.737C181.026,568.437 179.538,566.761 178.943,563.967C177.658,568.544 175.243,572.779 171.284,571.868C163.81,570.081 162.908,561.821 163.552,554.453C163.81,551.327 164.326,548.313 164.841,546.192C165.743,540.945 166.774,536.033 168.062,531.68C165.853,531.724 163.807,531.715 162.113,531.611C157.858,535.958 151.147,538.152 155.684,533.577C156.681,532.589 157.524,531.714 158.222,530.945C157.845,530.778 157.596,530.578 157.496,530.34C156.723,528.331 158.248,527.186 160.964,526.613C159.864,523.692 133.005,540.909 127.592,548.871C120.634,559.253 143.957,541.392 152.205,544.294C158.003,546.415 161.096,549.653 161.096,554.453C160.967,557.69 159.421,561.597 156.328,566.286C153.622,570.305 149.112,575.775 143.7,579.682C134.035,586.715 115.608,586.38 122.438,572.314C125.788,565.504 132.746,559.253 128.752,566.174C116.381,588.166 136.741,572.314 145.761,558.695C161.611,534.805 132.231,562.155 121.278,555.681C113.933,551.327 118.701,540.945 126.432,534.247C137.514,524.647 154.524,514.711 162.127,520.405C164.567,522.237 165.347,524.232 165.131,526.167ZM204.464,553.449C204.241,553.667 203.97,553.961 203.644,554.341C199.907,558.583 195.655,562.602 194.882,556.462C193.851,547.978 200.938,534.47 201.454,545.857C201.711,551.215 206.608,537.819 198.103,537.819C192.047,537.819 187.537,546.973 187.279,554.453C187.021,558.36 187.923,561.821 190.372,563.272C197.072,567.402 201.196,561.597 203.773,557.244C203.937,556.913 204.176,556.416 204.419,555.877C204.439,567.035 206.207,575.68 211.771,573.43C213.575,572.649 214.219,566.956 214.219,559.365C214.348,550.992 213.832,563.16 220.92,563.049C222.978,563.049 224.585,561.447 225.741,559.63C226.263,561.627 227.345,563.181 229.175,563.942C235.128,566.666 238.633,562.097 240.629,557.922C240.456,562.263 240.961,566.778 242.584,571.086C243.358,573.096 245.29,574.212 248.254,574.212C250.058,574.1 249.672,566.509 249.929,560.593C250.187,552.443 255.728,546.862 255.728,547.197C253.538,551.997 254.182,561.486 261.914,559.7C265.264,558.918 267.712,555.681 267.97,552.108C267.97,551.885 267.712,550.88 267.455,551.215C267.326,551.55 266.681,553.002 265.908,554.229C263.846,556.909 262.042,556.239 262.687,552.89C263.589,548.983 265.393,542.62 265.779,541.615C266.681,538.154 260.11,538.936 257.146,541.392C255.342,542.843 250.703,548.201 249.929,549.876C249.414,546.75 250.574,539.271 250.832,537.373C251.857,528.49 242.939,539.706 240.941,554.216C238.818,556.871 235.277,561.302 233.814,560.034C232.525,559.03 233.041,553.56 233.298,552.108C239.613,548.201 244.123,537.819 238.839,535.14C233.685,532.573 226.34,544.852 225.438,554.453C225.381,555.092 225.352,555.719 225.354,556.328C220.878,561.241 219.389,555.722 217.054,549.653C219.76,545.634 222.079,541.838 224.012,539.717C224.528,539.047 223.626,539.047 222.208,539.494C220.018,540.387 216.023,544.741 214.09,546.527C213.575,534.694 212.286,521.856 212.157,515.381C212.028,513.037 210.482,514.265 209.193,518.172C207.905,521.744 205.972,532.684 205.07,543.959C204.722,547.177 204.582,550.394 204.464,553.449ZM238.066,537.261C238.775,539.103 238.646,541.085 237.937,542.941C237.229,544.796 235.94,546.527 234.329,547.866C235.102,545.187 236.262,540.61 238.066,537.261ZM185.08,533.801C184.178,533.745 183.244,533.996 182.567,534.47C181.891,534.945 181.472,535.643 181.601,536.48C183.147,543.624 189.848,534.359 185.08,533.801ZM123.557,435.52C121.753,439.65 118.789,451.818 117.114,464.321L116.985,464.656C111.96,465.772 107.063,467.893 107.063,472.247C107.063,475.15 111.831,475.596 115.954,475.261L115.954,476.043C115.181,489.215 116.856,499.821 124.33,497.141C128.454,495.69 128.583,476.266 128.583,468.898C130.773,468.563 133.093,468.228 135.283,467.893C132.835,480.843 132.706,493.234 138.892,501.718C145.592,510.649 156.159,503.17 154.484,499.709C151.52,493.569 149.716,483.634 149.716,472.917C149.716,470.684 149.716,468.452 149.974,466.219C151.391,466.107 152.422,465.996 152.68,465.996C154.484,465.884 153.324,463.986 150.231,463.316C151.004,455.39 152.809,447.464 156.03,440.878C157.963,436.748 147.01,426.701 141.469,445.12C139.665,450.813 137.861,456.73 136.443,462.647C134.253,462.758 131.933,462.87 129.485,463.093L128.454,463.205C128.196,451.148 127.423,438.98 127.423,432.506C127.423,429.826 125.49,431.278 123.557,435.52ZM247.065,471.762C249.407,475.85 255.024,480.842 256.026,485.085C257.444,491.448 252.289,495.69 249.712,494.797C245.588,493.346 250.099,485.197 254.222,484.862C255.382,484.75 251.903,477.605 247.908,481.178C244.042,484.527 241.98,492.118 244.686,496.472C249.325,503.616 262.083,497.253 264.144,490.22C266.335,482.741 262.212,477.94 258.861,472.917L258.732,472.917C257.186,470.461 255.64,468.005 255.253,465.214C254.222,458.739 264.789,453.939 262.598,461.53C262.083,463.316 259.377,465.884 258.732,467.224C257.701,469.01 263.629,467.67 265.562,462.758C267.237,458.628 266.335,453.381 261.181,453.381C252.805,453.269 243.527,460.302 246.233,469.903C246.361,470.336 246.549,470.784 246.784,471.244C246.578,471.409 246.274,471.728 245.846,472.247C243.784,474.815 239.919,479.838 238.372,478.499C237.084,477.494 237.599,472.024 237.857,470.573C244.171,466.665 248.681,456.284 243.398,453.604C238.243,451.037 230.898,463.316 229.996,472.917C229.61,477.271 230.512,481.066 233.733,482.406C240.563,485.531 244.171,479.057 245.975,474.591C246.231,473.926 246.836,472.574 247.065,471.762ZM189.475,472.055C191.395,465.244 196.447,458.516 202.807,458.516C204.095,458.516 205.126,458.851 205.899,459.298L205.899,459.409C207.961,450.702 211.44,442.553 215.048,438.199C217.883,434.85 221.234,434.18 220.203,436.19C217.755,441.325 215.177,460.637 215.435,472.917C215.564,478.387 216.208,482.182 217.626,483.076C219.466,484.245 220.138,479.441 221.645,474.546C221.713,474.004 221.791,473.46 221.878,472.917C222.651,467.893 224.198,462.982 225.228,461.307C226.388,459.633 227.419,459.074 227.548,460.079C227.806,466.331 230.512,485.197 226.646,486.201C224.361,486.754 222.952,485.825 222.168,484.035C220.698,489.611 217.898,494.508 213.373,492.118C208.605,489.662 206.028,484.862 204.997,479.057C202.549,483.634 198.941,489.55 191.853,485.197C188.778,483.287 188.068,478.675 189.049,473.812C188.692,473.953 188.336,474.063 187.988,474.145C187.73,474.815 187.601,475.484 187.343,476.154C186.055,479.503 183.735,482.071 180.385,482.406C175.23,482.852 172.524,479.057 171.88,474.368L171.88,474.256C171.854,474.051 171.831,473.843 171.813,473.634C171.315,473.865 170.817,474.031 170.334,474.145C170.076,474.815 169.947,475.484 169.689,476.154C168.401,479.503 166.081,482.071 162.731,482.406C157.576,482.852 154.87,479.057 154.226,474.368L154.226,474.256C153.195,466.219 158.221,455.502 167.112,458.963C170.334,460.302 171.622,466.442 170.72,472.135C171.075,472.135 171.417,472.115 171.747,472.067C171.771,464.429 176.663,455.809 184.766,458.963C187.988,460.302 189.276,466.442 188.374,472.135C188.755,472.135 189.122,472.111 189.475,472.055ZM270.588,491.448C275.613,489.55 278.706,479.392 271.876,479.615C266.722,479.727 265.691,485.531 269.428,488.211C271.49,489.774 270.072,491.448 270.588,491.448ZM204.74,466.777C203.451,473.029 197.652,491.671 197.652,477.159C197.652,469.456 203.709,459.298 205.255,463.093C204.997,464.321 204.868,465.549 204.74,466.777ZM180.385,459.744C176.906,462.535 177.808,470.126 181.287,472.582C181.029,473.81 179.612,476.824 178.194,477.382C174.071,478.61 173.169,462.982 180.385,459.744ZM162.731,459.744C159.252,462.535 160.154,470.126 163.633,472.582C163.375,473.81 161.958,476.824 160.54,477.382C156.417,478.61 155.515,462.982 162.731,459.744ZM116.083,473.698C114.279,473.587 113.119,473.363 114.15,472.694C114.666,472.359 115.31,472.024 116.212,471.689C116.212,472.359 116.083,473.029 116.083,473.698ZM165.179,460.526C165.308,461.977 165.179,463.623 164.97,465.172C164.76,466.721 164.47,468.172 164.277,469.233C162.473,466.554 162.473,462.87 165.179,460.526ZM182.833,460.526C182.962,461.977 182.833,463.623 182.624,465.172C182.414,466.721 182.124,468.172 181.931,469.233C180.127,466.554 180.127,462.87 182.833,460.526ZM242.625,455.725C243.333,457.567 243.205,459.549 242.496,461.405C241.787,463.261 240.498,464.991 238.888,466.331C239.661,463.651 240.821,459.074 242.625,455.725ZM227.806,452.265C226.904,452.209 225.969,452.46 225.293,452.935C224.616,453.409 224.198,454.107 224.326,454.944C225.873,462.088 232.574,452.823 227.806,452.265ZM191.531,368.404C183.928,362.711 166.919,372.646 155.837,382.247C148.105,388.945 143.337,399.327 150.682,403.68C161.636,410.155 191.016,382.805 175.166,406.695C166.146,420.314 145.786,436.166 158.156,414.174C162.151,407.253 155.192,413.504 151.842,420.314C145.012,434.38 163.44,434.715 173.104,427.682C178.516,423.774 183.026,418.304 185.733,414.286C188.825,409.597 190.372,405.69 190.5,402.453C190.5,397.652 187.408,394.415 181.609,392.294C173.362,389.391 150.038,407.253 156.997,396.871C163.826,386.824 204.804,362.041 185.088,381.577C177.228,389.503 203.129,377.112 191.531,368.404ZM277.482,399.438C278.77,403.792 286.115,409.709 287.275,414.621C288.692,420.984 283.538,425.226 280.961,424.333C276.837,422.881 281.347,414.732 285.471,414.397C286.631,414.286 283.151,407.141 279.157,410.713C275.291,414.062 273.229,421.653 275.935,426.007C280.574,433.152 293.331,426.789 295.393,419.756C297.584,412.276 293.46,407.476 290.11,402.453L289.981,402.453C288.435,399.997 286.888,397.541 286.502,394.75C285.471,388.275 296.038,383.475 293.847,391.066C293.331,392.852 290.625,395.42 289.981,396.759C288.95,398.545 294.878,397.206 296.811,392.294C298.486,388.163 297.584,382.917 292.429,382.917C284.053,382.805 274.776,389.838 277.482,399.438ZM79.036,423.998C83.675,428.798 89.473,428.575 93.081,422.993C96.174,418.081 99.009,408.927 99.267,404.908C99.525,403.011 98.622,403.011 98.494,403.346C97.592,404.685 91.793,422.547 89.86,418.416C88.442,415.625 88.314,409.597 88.958,402.453C89.473,395.643 90.633,387.829 91.922,380.796C97.849,380.349 106.998,379.679 110.22,379.456C111.895,379.456 110.993,378.451 108.416,377.558C106.483,376.888 98.365,376.33 92.824,375.661C94.241,367.735 95.659,361.706 95.916,360.702C96.561,358.134 92.179,358.915 89.344,363.269C87.412,366.283 85.608,370.302 83.803,374.991C74.525,374.656 66.278,375.549 68.211,379.791C68.856,381.354 74.654,381.577 81.613,381.354C80.067,386.489 78.649,392.294 77.36,398.322C76.845,400.89 76.072,404.35 75.685,408.034C75.041,414.062 75.428,420.202 79.036,423.998ZM226.643,412.975C224.602,417.366 221.512,421.331 217.175,422.323C209.701,423.998 214.082,403.904 214.469,397.317C214.984,389.057 206.093,408.369 207.123,416.63C209.572,436.947 196.428,423.328 194.624,413.727C193.98,409.932 193.593,406.136 193.464,402.453C193.335,391.289 196.041,374.433 202.484,364.609C205.062,360.813 207.768,359.585 207.639,362.153C207.381,366.172 206.35,383.475 206.35,398.657C206.608,402.453 206.093,403.457 207.768,399.662C210.087,394.638 214.597,387.717 220.912,390.284C226.066,392.406 222.329,407.029 221.814,412.946C221.526,416.517 223.877,412.922 226.055,408.915C226.015,406.921 226.225,404.682 226.581,402.453C227.355,397.429 228.901,392.517 229.932,390.843C231.092,389.168 232.123,388.61 232.251,389.615C232.509,395.866 235.215,414.732 231.349,415.737C228.823,416.348 227.368,415.149 226.643,412.975ZM260.84,400.125C260.554,400.726 260.148,401.516 259.699,402.229C257.637,404.908 255.833,404.239 256.477,400.89C257.379,396.982 259.183,390.619 259.57,389.615C260.472,386.154 253.9,386.935 250.936,389.391C249.132,390.843 244.493,396.201 243.72,397.876C243.205,394.75 244.364,387.27 244.622,385.373C245.653,376.442 236.633,387.829 234.7,402.453C234.055,407.811 234.313,413.616 236.375,419.086C237.148,421.095 239.081,422.212 242.045,422.212C243.849,422.1 243.462,414.509 243.72,408.592C243.978,400.443 249.519,394.861 249.519,395.196C247.328,399.997 247.972,409.485 255.704,407.699C257.716,407.23 259.403,405.875 260.486,404.093C260.125,411.003 261.409,418.213 268.332,419.867C276.58,421.765 278.126,401.336 276.708,402.006C275.678,402.564 273.229,414.955 271.683,411.383C269.492,406.583 271.167,391.401 273.1,379.121C277.739,378.786 282.121,378.34 284.698,378.228C285.986,378.228 285.213,377.335 283.28,376.665C281.734,376.107 277.997,375.326 273.745,374.767C274.776,368.069 275.806,362.823 276.064,362.041C276.451,359.809 273.1,360.478 270.91,364.274C269.492,366.841 268.075,370.19 266.657,374.209C259.441,373.874 253.127,374.656 254.544,378.34C255.06,379.568 259.57,379.791 265.111,379.679C263.822,384.033 262.791,388.945 261.889,394.192C261.504,395.779 261.118,397.866 260.84,400.125ZM301.836,420.984C306.862,419.086 309.955,408.927 303.125,409.151C297.97,409.262 296.94,415.067 300.677,417.746C302.738,419.309 301.321,420.984 301.836,420.984ZM108.029,398.434C111.251,402.564 142.693,399.773 144.884,397.429C144.755,397.206 144.755,397.094 144.755,396.871C142.822,395.755 109.318,391.512 107.772,396.871C107.643,397.317 107.643,397.876 108.029,398.434ZM232.509,381.8C231.607,381.745 230.673,381.996 229.996,382.47C229.32,382.945 228.901,383.642 229.03,384.48C230.576,391.624 237.277,382.359 232.509,381.8Z" style="fill:white;"/>
        </g>
    </g>
</svg>
