<?xml version="1.0" encoding="UTF-8" standalone="no"?>
<!DOCTYPE svg PUBLIC "-//W3C//DTD SVG 1.1//EN" "http://www.w3.org/Graphics/SVG/1.1/DTD/svg11.dtd">
<svg width="100%" height="100%" viewBox="0 0 343 33" version="1.1" xmlns="http://www.w3.org/2000/svg" xmlns:xlink="http://www.w3.org/1999/xlink" xml:space="preserve" xmlns:serif="http://www.serif.com/" style="fill-rule:evenodd;clip-rule:evenodd;stroke-linejoin:round;stroke-miterlimit:2;">
    <g transform="matrix(1,0,0,1,-16,-55)">
        <path id="iv_header_txt" d="M43.127,65.913L43.127,58.859C43.127,58.708 43.419,58.573 44.003,58.456L55.613,58.456L54.177,57.633L54.317,57.633C55.683,58.089 56.413,58.316 56.506,58.316L56.506,58.456L55.876,58.456L55.876,58.527C56.378,58.655 56.676,58.719 56.769,58.719L57.592,58.719C58.316,59.151 58.678,59.583 58.678,60.015L58.678,60.663L58.836,60.663C58.941,60.663 59.875,60.476 61.638,60.103C61.789,60.103 62.093,60.056 62.548,59.963L63.949,59.963C63.973,59.963 64.043,59.916 64.159,59.822L64.37,59.822C64.696,59.916 64.883,59.963 64.93,59.963L65.123,59.963L65.123,58.456C65.123,58.305 65.776,58.141 67.084,57.966L73.248,57.966L78.73,58.019L78.852,81.853C78.806,82.145 78.782,82.542 78.782,83.044L78.782,84.165C78.782,85.005 78.619,85.426 78.292,85.426C77.767,85.519 77.393,85.566 77.171,85.566L76.401,85.566C75.665,85.753 75.151,85.846 74.86,85.846L70.727,85.846C68.329,85.576 66.957,85.315 66.611,85.062L66.611,86.231C66.611,86.558 66.635,87.072 66.681,87.772L66.541,87.842L64.72,87.842C64.626,87.842 64.183,87.889 63.389,87.983L57.855,87.983C57.761,87.983 57.715,87.936 57.715,87.842L57.715,87.002C57.782,86.511 57.826,86.18 57.844,86.008C57.717,86.017 57.586,86.021 57.452,86.021L43.39,86.021C43.308,86.021 43.267,85.974 43.267,85.881C43.349,85.718 43.39,85.537 43.39,85.338L43.39,84.988L41.271,84.988C41.095,84.988 40.109,85.157 38.311,85.496L37.856,85.496C36.746,85.496 35.363,85.221 33.705,84.673C32.701,84.381 31.609,84.112 30.43,83.867C30.324,83.646 30.237,83.45 30.17,83.279C29.957,84.056 29.67,84.445 29.31,84.445C27.103,84.959 25.258,85.309 23.776,85.496L16.701,85.496C16.607,85.496 16.56,85.426 16.56,85.286C16.56,85.076 16.537,84.375 16.49,83.184C16.315,82.705 16.152,81.912 16,80.802L16,67.633C16.093,66.956 16.14,66.582 16.14,66.512L16.14,65.041C16.14,64.889 16.21,64.726 16.35,64.551L16.35,63.99C16.21,63.395 16.14,62.765 16.14,62.099L16.14,57.896C16.152,57.803 16.198,57.756 16.28,57.756L26.087,57.756C26.858,58.702 27.512,59.799 28.049,61.048C28.632,61.854 29.263,63.255 29.94,65.251C30.022,65.38 30.302,66.781 30.781,69.454C30.817,69.557 30.852,69.679 30.885,69.82C31.178,68.507 31.488,67.393 31.814,66.477C32.234,64.119 32.637,62.607 33.022,61.941C33.326,60.669 33.723,59.706 34.213,59.052C35.532,59.192 36.519,59.32 37.173,59.437C37.394,59.472 37.581,59.49 37.733,59.49L39.117,59.49C39.77,59.49 40.821,59.513 42.269,59.56C42.409,59.56 42.66,60.838 43.022,63.395C43.022,64.23 43.057,65.069 43.127,65.913ZM221.875,58.106C221.96,57.079 222.205,56.565 222.613,56.565L224.084,56.285L226.886,56.285C226.944,56.285 227.201,56.332 227.656,56.425L234.241,56.232C236.261,57.703 237.311,58.585 237.393,58.877C237.907,59.367 238.304,60.231 238.584,61.469L238.584,61.889C238.677,62.683 238.724,63.127 238.724,63.22L238.724,65.882C238.724,66.641 238.491,67.108 238.024,67.283L236.973,67.843C236.926,67.843 236.903,67.867 236.903,67.913L236.903,68.894L236.623,71.346L236.623,75.829C236.623,75.957 236.833,77.055 237.253,79.121L237.323,79.612L237.323,80.522C237.113,83.885 236.949,85.566 236.833,85.566C235.011,86.103 233.751,86.43 233.05,86.547L229.828,86.547C228.999,86.547 227.154,86.033 224.294,85.005C223.593,85.005 223.243,84.725 223.243,84.165L223.243,83.254C223.336,81.877 223.383,81.129 223.383,81.013L223.383,78.491C223.309,78.068 223.227,77.651 223.138,77.239L223.138,79.542C223.045,80.919 222.998,81.666 222.998,81.783L222.998,83.114C222.998,83.359 223.091,83.826 223.278,84.515C223.278,85.169 223.091,85.496 222.718,85.496L209.023,85.496L209.023,85.548C209.023,85.63 208.982,85.671 208.9,85.671L204.4,85.671C204.236,85.671 202.958,85.362 200.564,84.743C200.416,84.726 200.275,84.709 200.141,84.69C200.005,85.438 199.719,85.811 199.286,85.811C198.866,85.951 198.387,86.021 197.85,86.021L183.787,86.021C183.706,86.021 183.665,85.974 183.665,85.881C183.746,85.718 183.787,85.537 183.787,85.338L183.787,80.487C183.787,80.195 183.7,79.723 183.525,79.069L183.525,77.352C183.431,76.582 183.385,76.15 183.385,76.057L183.385,69.98C183.385,69.945 183.431,69.764 183.525,69.437L183.525,58.859C183.525,58.708 183.817,58.573 184.4,58.456L196.011,58.456L194.575,57.633L194.715,57.633C196.081,58.089 196.811,58.316 196.904,58.316L196.904,58.456L196.274,58.456L196.274,58.527C196.776,58.655 197.074,58.719 197.167,58.719L197.633,58.719C197.66,58.672 197.692,58.649 197.727,58.649C198.054,58.567 198.259,58.527 198.34,58.527L203.647,58.527C204.254,58.608 204.586,58.649 204.645,58.649L205.503,58.649C205.713,58.649 206.022,58.672 206.431,58.719L206.431,58.842C206.431,58.865 206.349,58.964 206.186,59.139C206.501,59.221 207.056,59.449 207.85,59.822C208.076,59.822 208.291,59.883 208.496,60.003C208.646,58.599 208.81,57.896 208.988,57.896C209.105,57.651 209.758,57.417 210.949,57.196L218.024,57.196C218.316,57.196 218.83,57.102 219.565,56.915L220.546,56.915C220.546,56.635 220.593,56.495 220.686,56.495C221.057,56.645 221.453,57.182 221.875,58.106ZM257.309,64.543C257.324,64.471 257.34,64.392 257.357,64.306L257.357,63.115L257.638,61.784L257.638,58.421C257.649,58.328 257.696,58.281 257.778,58.281L264.993,58.281L265.413,58.211C265.495,58.258 265.612,58.281 265.763,58.281L265.904,58.281L265.833,58.141C266.195,57.954 267.246,57.768 268.986,57.581L269.056,57.581C269.173,57.581 269.266,57.768 269.336,58.141L269.336,59.822C269.481,60.647 269.633,61.461 269.792,62.264C270.09,61.482 270.528,60.429 271.105,59.104L271.105,57.844C271.105,57.774 271.175,57.703 271.315,57.633L282.103,57.633C283.317,57.972 283.924,58.369 283.924,58.824C284.017,58.824 284.064,58.941 284.064,59.175L284.064,59.385C283.941,60.723 283.832,61.755 283.738,62.48C284.036,61.68 284.501,60.555 285.132,59.104L285.132,57.844C285.132,57.774 285.202,57.703 285.342,57.633L296.13,57.633C297.344,57.972 297.951,58.369 297.951,58.824C298.045,58.824 298.091,58.941 298.091,59.175L298.091,59.385C297.846,62.047 297.66,63.494 297.531,63.728C297.251,64.977 297.111,65.958 297.111,66.67L297.111,71.433C297.017,72.799 296.877,74.154 296.69,75.496L296.69,81.24C296.69,82.361 296.48,83.645 296.06,85.093C295.745,85.7 295.301,86.004 294.729,86.004C294.729,86.109 294.052,86.226 292.698,86.354L286.253,86.354C284.292,86.097 283.311,85.864 283.311,85.653C283.229,85.56 283.159,85.186 283.101,84.533C282.972,84.533 282.879,84.159 282.821,83.412C282.744,83.238 282.664,82.945 282.579,82.532C282.482,83.32 282.3,84.173 282.033,85.093C281.717,85.7 281.274,86.004 280.702,86.004C280.702,86.109 280.024,86.226 278.67,86.354L272.226,86.354C270.264,86.097 269.283,85.864 269.283,85.653C269.202,85.56 269.132,85.186 269.073,84.533C268.947,84.533 268.855,84.173 268.796,83.452C268.782,83.587 268.776,83.719 268.776,83.85C268.694,83.85 268.647,84.247 268.635,85.04L268.635,85.181C268.635,85.286 267.958,85.449 266.604,85.671C265.892,85.904 265.168,86.021 264.432,86.021L261.701,86.021C261.385,85.846 260.568,85.613 259.249,85.321C258.455,84.935 258.058,84.468 258.058,83.92L258.058,83.902C257.941,84.626 257.83,84.988 257.725,84.988L255.536,84.988C255.361,84.988 254.374,85.157 252.576,85.496L252.121,85.496C251.012,85.496 249.629,85.221 247.971,84.673C246.967,84.381 245.875,84.112 244.696,83.867C244.404,83.26 244.258,82.84 244.258,82.606L244.258,79.647C244.258,75.876 244.363,73.587 244.573,72.782C245.029,70.12 245.531,68.018 246.079,66.477C246.5,64.119 246.902,62.607 247.288,61.941C247.591,60.669 247.988,59.706 248.479,59.052C249.798,59.192 250.784,59.32 251.438,59.437C251.66,59.472 251.847,59.49 251.999,59.49L253.382,59.49C254.036,59.49 255.087,59.513 256.534,59.56C256.674,59.56 256.925,60.838 257.287,63.395C257.287,63.777 257.295,64.16 257.309,64.543ZM59.466,63.885L59.466,63.955C59.466,64.177 59.816,64.714 60.517,65.567L60.517,65.707C60.517,68.03 60.61,69.851 60.797,71.171C60.75,71.813 60.727,72.21 60.727,72.361C60.82,73.12 60.89,74.124 60.937,75.374C60.89,76.938 60.867,78.035 60.867,78.666C60.867,79.203 60.937,80.441 61.077,82.379C61.077,82.846 60.774,83.546 60.167,84.48C60.12,84.562 60.096,84.679 60.096,84.83L60.096,84.9C60.096,85.834 61.007,86.301 62.828,86.301C63.762,86.301 64.229,85.788 64.229,84.76C64.229,84.492 64.043,83.698 63.669,82.379C63.716,81.877 63.739,81.433 63.739,81.048L63.739,80.417C63.739,80.044 63.716,79.74 63.669,79.507C63.716,79.203 63.739,78.899 63.739,78.596C63.739,78.071 63.716,77.463 63.669,76.775C63.716,76.308 63.739,75.957 63.739,75.724C63.646,72.805 63.506,70.657 63.319,69.279L63.319,68.439C63.319,67.773 63.295,66.863 63.249,65.707C63.249,65.497 63.622,65.076 64.37,64.446C64.463,64.119 64.51,63.862 64.51,63.675C64.51,62.741 63.926,62.274 62.758,62.274L61.427,62.274C60.12,62.449 59.466,62.986 59.466,63.885ZM99.826,64.876C99.849,64.746 99.886,64.556 99.937,64.306L99.937,63.115L100.218,61.784L100.218,58.421C100.229,58.328 100.276,58.281 100.358,58.281L107.573,58.281L107.993,58.211C108.075,58.258 108.192,58.281 108.343,58.281L108.484,58.281L108.414,58.141C108.775,57.954 109.826,57.768 111.566,57.581L111.636,57.581C111.753,57.581 111.846,57.768 111.916,58.141L111.916,59.822C112.29,61.947 112.71,64.002 113.177,65.987L113.177,66.267C113.177,67.995 112.943,69.723 112.476,71.451L112.476,73.132C112.663,73.856 112.757,74.323 112.757,74.533L112.757,76.494C112.652,79.483 112.488,80.978 112.266,80.978C111.659,82.028 111.356,82.986 111.356,83.85C111.274,83.85 111.227,84.247 111.216,85.04L111.216,85.181C111.216,85.286 110.538,85.449 109.184,85.671C108.472,85.904 107.748,86.021 107.013,86.021L104.281,86.021C103.965,85.846 103.148,85.613 101.829,85.321C101.035,84.935 100.638,84.468 100.638,83.92L100.638,81.057C100.58,81.302 100.516,81.567 100.445,81.853C100.235,83.581 99.862,84.445 99.325,84.445C97.118,84.959 95.273,85.309 93.791,85.496L86.716,85.496C86.622,85.496 86.575,85.426 86.575,85.286C86.575,85.076 86.552,84.375 86.505,83.184C86.33,82.705 86.167,81.912 86.015,80.802L86.015,67.633C86.108,66.956 86.155,66.582 86.155,66.512L86.155,65.041C86.155,64.889 86.225,64.726 86.365,64.551L86.365,63.99C86.225,63.395 86.155,62.765 86.155,62.099L86.155,57.896C86.167,57.803 86.213,57.756 86.295,57.756L96.102,57.756C96.873,58.702 97.527,59.799 98.064,61.048C98.61,61.803 99.198,63.079 99.826,64.876ZM335.472,73.441C335.958,73.293 336.211,73.179 336.234,73.097L336.234,72.326C335.767,71.416 335.393,70.342 335.113,69.104C334.506,67.808 334.202,66.687 334.202,65.742C334.156,65.742 334.132,65.672 334.132,65.532L334.132,64.481L333.712,62.449L333.712,61.118C333.887,58.97 334.261,57.896 334.833,57.896L335.043,57.756L339.106,57.756C339.736,57.756 341.044,57.569 343.029,57.196L343.029,57.126C342.865,57.079 342.772,57.055 342.748,57.055L342.748,56.915L345.06,56.915C345.294,56.915 345.434,57.359 345.48,58.246L345.5,58.297C345.794,58.191 346.372,58.081 347.232,57.966L353.396,57.966L358.877,58.019L359,81.853C358.953,82.145 358.93,82.542 358.93,83.044L358.93,84.165C358.93,85.005 358.766,85.426 358.44,85.426C357.914,85.519 357.541,85.566 357.319,85.566L356.548,85.566C355.813,85.753 355.299,85.846 355.007,85.846L350.874,85.846C348.072,85.531 346.671,85.227 346.671,84.935L346.671,82.133C346.623,81.808 346.576,81.452 346.531,81.067L346.531,81.783C346.531,82.367 346.368,83.208 346.041,84.305C345.083,85.099 344.289,85.496 343.659,85.496L341.698,85.496C339.584,85.216 337.997,84.795 336.934,84.235C336.888,84.142 336.864,84.071 336.864,84.025L336.934,83.885L335.743,82.203C335.743,82.076 335.511,81.58 335.046,80.717C334.997,80.947 334.973,81.115 334.973,81.223L334.973,83.604C334.891,83.675 334.821,83.978 334.763,84.515C334.447,85.146 334.237,85.472 334.132,85.496L323.555,85.496C322.854,85.402 322.504,85.239 322.504,85.005L322.504,84.854C322.285,85.263 322.133,85.477 322.049,85.496L311.471,85.496C310.771,85.402 310.42,85.239 310.42,85.005L310.42,84.988L308.739,84.988C308.564,84.988 307.577,85.157 305.779,85.496L305.324,85.496C304.215,85.496 302.832,85.221 301.174,84.673C300.17,84.381 299.078,84.112 297.899,83.867C297.607,83.26 297.461,82.84 297.461,82.606L297.461,79.647C297.461,75.876 297.566,73.587 297.776,72.782C298.232,70.12 298.734,68.018 299.282,66.477C299.703,64.119 300.105,62.607 300.491,61.941C300.794,60.669 301.191,59.706 301.682,59.052C303.001,59.192 303.987,59.32 304.641,59.437C304.863,59.472 305.05,59.49 305.202,59.49L306.585,59.49C307.215,59.49 308.213,59.511 309.58,59.555L309.58,57.686C309.58,57.558 310.14,57.394 311.261,57.196L318.406,57.196L318.336,57.055L318.336,56.985C318.686,56.997 319.363,57.698 320.367,59.087C320.648,59.881 320.788,60.441 320.788,60.768L320.788,62.87C320.788,64.913 321.126,66.708 321.803,68.254L321.803,61.399C321.803,61.329 321.757,60.955 321.663,60.278L321.663,57.686C321.663,57.558 322.224,57.394 323.345,57.196L330.49,57.196L330.42,57.055L330.42,56.985C330.77,56.997 331.447,57.698 332.451,59.087C332.731,59.881 332.871,60.441 332.871,60.768L332.871,62.87C332.871,64.948 333.222,66.769 333.922,68.334C334.856,70.774 335.323,72.245 335.323,72.747C335.38,73.002 335.429,73.233 335.472,73.441ZM146.6,61.16C146.835,60.66 147.112,60.063 147.431,59.367C148.062,58.386 149.019,57.733 150.303,57.406C151.483,57.032 154.051,56.448 158.009,55.654C158.009,55.76 157.892,55.83 157.659,55.865L157.659,55.935C159.76,56.028 160.811,56.215 160.811,56.495C161.062,56.861 161.284,57.235 161.479,57.62C161.805,57.474 162.335,57.333 163.07,57.196L170.145,57.196C170.437,57.196 170.951,57.102 171.686,56.915L172.667,56.915C172.667,56.635 172.714,56.495 172.807,56.495C173.239,56.67 173.706,57.371 174.208,58.597C174.255,58.597 174.278,58.667 174.278,58.807L174.278,63.01L174.698,66.162L174.698,68.474L174.979,70.435L174.979,72.467L175.259,74.358L175.259,79.542C175.165,80.919 175.119,81.666 175.119,81.783L175.119,83.114C175.119,83.359 175.212,83.826 175.399,84.515C175.399,85.169 175.212,85.496 174.838,85.496L160.969,85.496C160.828,85.449 160.758,85.309 160.758,85.076L160.758,84.365C160.455,84.372 160.123,84.375 159.76,84.375L158.92,84.375C157.752,84.503 155.557,84.877 152.335,85.496L150.934,85.496C150.397,85.496 149.977,85.099 149.673,84.305C148.408,82.255 147.335,80.453 146.455,78.9C146.137,81.091 145.861,82.186 145.628,82.186C144.729,83.832 144.279,84.889 144.279,85.356C144.116,85.449 143.941,85.496 143.754,85.496L137.292,85.496C134.501,85.052 133.106,84.714 133.106,84.48C132.851,84.118 132.631,83.466 132.445,82.525C132.39,82.688 132.348,82.797 132.318,82.851L132.318,85.216C132.318,85.309 132.003,85.402 131.372,85.496L121.583,85.496C120.812,85.496 120.427,85.268 120.427,84.813C120.38,84.416 120.357,84.077 120.357,83.797L120.357,83.044C120.357,82.997 120.404,82.752 120.497,82.309L120.497,78.911C120.672,77.639 120.76,76.891 120.76,76.67L120.76,75.444C120.76,75.385 120.807,75.134 120.9,74.691L120.9,71.573C121.087,70.908 121.198,70.272 121.233,69.665C121.466,68.672 121.694,67.516 121.916,66.197C121.962,66.197 121.986,66.127 121.986,65.987L121.986,62.047C121.892,60.949 121.846,60.342 121.846,60.225L121.846,57.493C121.846,57.236 122.593,56.968 124.087,56.688L126.329,56.688C126.399,56.688 126.65,56.641 127.082,56.548L131.565,56.548L131.565,56.618L131.495,56.758C132.207,56.98 132.797,57.114 133.264,57.161L133.404,57.371L133.404,60.891C133.477,61.306 133.536,61.653 133.58,61.932C133.671,61.601 133.781,61.126 133.912,60.505C134.122,60.225 134.279,59.735 134.385,59.034C134.478,59.034 134.548,58.649 134.595,57.879C134.618,57.879 134.682,57.838 134.787,57.756L143.474,57.756L143.474,57.879L143.351,57.879C144.915,58.894 145.698,59.437 145.698,59.507C146.175,60.209 146.476,60.76 146.6,61.16ZM273.837,62.817C274.117,64.183 274.327,66.425 274.467,69.542C274.514,69.542 274.537,69.822 274.537,70.383L274.537,72.904C274.537,73.36 274.607,73.897 274.747,74.515L274.677,75.146C274.677,75.438 274.701,75.788 274.747,76.197C274.747,79.699 274.49,81.824 273.977,82.571L273.977,83.202C273.977,83.949 274.911,84.322 276.779,84.322L276.989,84.322C277.561,84.322 277.888,83.809 277.97,82.781L277.409,80.82C277.456,78.38 277.479,76.769 277.479,75.987L277.409,75.846C277.479,75.426 277.689,75.216 278.04,75.216L279.02,75.216C279.861,75.216 280.281,74.702 280.281,73.675L280.281,73.255C280.281,72.087 279.931,71.317 279.231,70.943C278.88,70.85 278.67,70.803 278.6,70.803C278.11,70.85 277.713,70.873 277.409,70.873C277.222,70.674 277.129,70.371 277.129,69.962C277.129,69.857 277.152,69.764 277.199,69.682C277.106,68.795 277.036,67.814 276.989,66.74C276.989,65.246 277.152,64.498 277.479,64.498L277.9,64.428L278.18,64.428C279.02,64.428 279.441,65.175 279.441,66.67C279.756,67.37 280.2,67.721 280.772,67.721L280.912,67.721C281.752,67.592 282.173,67.195 282.173,66.53L282.173,64.989C282.173,63.623 281.869,62.689 281.262,62.187C281.262,61.965 279.978,61.708 277.409,61.416C276.709,61.323 276.125,61.276 275.658,61.276L275.448,61.276C274.514,61.276 273.977,61.696 273.837,62.537L273.837,62.817ZM287.864,62.817C288.144,64.183 288.355,66.425 288.495,69.542C288.541,69.542 288.565,69.822 288.565,70.383L288.565,72.904C288.565,73.36 288.635,73.897 288.775,74.515L288.705,75.146C288.705,75.438 288.728,75.788 288.775,76.197C288.775,79.699 288.518,81.824 288.004,82.571L288.004,83.202C288.004,83.949 288.938,84.322 290.806,84.322L291.016,84.322C291.589,84.322 291.915,83.809 291.997,82.781L291.437,80.82C291.483,78.38 291.507,76.769 291.507,75.987L291.437,75.846C291.507,75.426 291.717,75.216 292.067,75.216L293.048,75.216C293.888,75.216 294.309,74.702 294.309,73.675L294.309,73.255C294.309,72.087 293.959,71.317 293.258,70.943C292.908,70.85 292.698,70.803 292.628,70.803C292.137,70.85 291.74,70.873 291.437,70.873C291.25,70.674 291.157,70.371 291.157,69.962C291.157,69.857 291.18,69.764 291.227,69.682C291.133,68.795 291.063,67.814 291.016,66.74C291.016,65.246 291.18,64.498 291.507,64.498L291.927,64.428L292.207,64.428C293.048,64.428 293.468,65.175 293.468,66.67C293.783,67.37 294.227,67.721 294.799,67.721L294.939,67.721C295.78,67.592 296.2,67.195 296.2,66.53L296.2,64.989C296.2,63.623 295.897,62.689 295.289,62.187C295.289,61.965 294.005,61.708 291.437,61.416C290.736,61.323 290.152,61.276 289.685,61.276L289.475,61.276C288.541,61.276 288.004,61.696 287.864,62.537L287.864,62.817ZM89.097,61.469C89.097,61.761 89.424,62.274 90.078,63.01C90.171,63.208 90.218,63.582 90.218,64.131L90.218,68.193C90.218,68.52 90.171,68.964 90.078,69.524C90.078,69.781 90.101,70.108 90.148,70.505L90.008,72.817C90.101,73.214 90.148,73.727 90.148,74.358C90.148,74.696 90.125,74.953 90.078,75.128C90.125,75.537 90.148,75.887 90.148,76.179L90.148,77.58C90.148,78.164 90.171,78.888 90.218,79.752C90.218,80.172 89.821,80.849 89.027,81.783C88.794,82.203 88.677,82.484 88.677,82.624L88.677,82.974C88.677,83.569 89.377,83.92 90.778,84.025L90.919,84.025C93.767,84.025 95.705,83.324 96.733,81.923C97.62,81.375 98.064,78.362 98.064,72.887C97.97,71.988 97.924,71.357 97.924,70.995L97.924,70.855C97.924,70.563 97.947,70.213 97.994,69.805C97.562,65.777 97.188,63.372 96.873,62.589C96.394,61.644 95.437,60.943 94.001,60.488C92.798,60.114 91.981,59.928 91.549,59.928L90.428,59.928C89.693,59.928 89.249,60.441 89.097,61.469ZM19.082,61.469C19.082,61.761 19.409,62.274 20.063,63.01C20.156,63.208 20.203,63.582 20.203,64.131L20.203,68.193C20.203,68.52 20.156,68.964 20.063,69.524C20.063,69.781 20.086,70.108 20.133,70.505L19.993,72.817C20.086,73.214 20.133,73.727 20.133,74.358C20.133,74.696 20.11,74.953 20.063,75.128C20.11,75.537 20.133,75.887 20.133,76.179L20.133,77.58C20.133,78.164 20.156,78.888 20.203,79.752C20.203,80.172 19.806,80.849 19.012,81.783C18.779,82.203 18.662,82.484 18.662,82.624L18.662,82.974C18.662,83.569 19.362,83.92 20.763,84.025L20.904,84.025C23.752,84.025 25.69,83.324 26.718,81.923C27.605,81.375 28.049,78.362 28.049,72.887C27.955,71.988 27.909,71.357 27.909,70.995L27.909,70.855C27.909,70.563 27.932,70.213 27.979,69.805C27.547,65.777 27.173,63.372 26.858,62.589C26.379,61.644 25.422,60.943 23.986,60.488C22.783,60.114 21.966,59.928 21.534,59.928L20.413,59.928C19.678,59.928 19.234,60.441 19.082,61.469ZM210.879,61.188L210.879,61.259C210.879,61.609 211.183,62.239 211.79,63.15C211.93,63.418 212,63.699 212,63.99C211.953,64.924 211.93,65.555 211.93,65.882C212.07,66.617 212.14,67.224 212.14,67.703L212.14,68.334C212.047,71.019 212,72.513 212,72.817L212,73.307C212.093,75.362 212.14,76.483 212.14,76.67L212.14,78.701C212.14,79.857 211.883,80.978 211.37,82.063L211.37,82.203C211.37,83.009 212,83.476 213.261,83.604L213.681,83.604C214.662,83.604 215.152,83.208 215.152,82.414L215.152,82.063C214.965,80.908 214.825,78.713 214.732,75.479C214.837,74.031 215.164,73.307 215.713,73.307C215.794,73.26 215.888,73.237 215.993,73.237C216.833,73.237 217.254,73.704 217.254,74.638C217.3,75.315 217.347,77.043 217.394,79.822C217.114,80.814 216.974,81.608 216.974,82.203L216.974,82.484C216.974,83.137 217.767,83.464 219.355,83.464L219.986,83.464C220.78,83.464 221.177,83.137 221.177,82.484C221.177,81.713 220.873,80.966 220.266,80.242C220.126,79.903 220.056,79.436 220.056,78.841L220.056,78.771C220.056,78.573 220.102,78.059 220.196,77.23C220.196,76.716 220.149,75.689 220.056,74.148C220.102,73.739 220.126,73.506 220.126,73.447L219.916,71.626C219.962,71.229 219.986,70.902 219.986,70.645L219.986,70.085C219.986,69.326 219.962,68.625 219.916,67.983C219.962,67.668 219.986,67.178 219.986,66.512L219.776,65.251C219.776,64.002 220.056,63.232 220.616,62.94C220.826,62.94 220.99,62.613 221.107,61.959C221.107,60.745 220.336,60.138 218.795,60.138L218.094,60.068C217.16,60.196 216.693,60.663 216.693,61.469C216.693,62.041 216.857,62.765 217.184,63.64C217.137,64.457 217.114,64.948 217.114,65.111C217.207,65.672 217.254,65.999 217.254,66.092C217.184,68.847 217.044,70.225 216.833,70.225C216.67,70.318 216.483,70.365 216.273,70.365L216.133,70.365C215.246,70.365 214.802,69.898 214.802,68.964C214.849,67.82 214.872,67.189 214.872,67.073C214.732,65.403 214.662,64.469 214.662,64.271L215.082,61.889C215.082,61.025 214.569,60.418 213.541,60.068C213.296,60.021 213.086,59.998 212.911,59.998L212.771,59.998C211.708,59.998 211.078,60.395 210.879,61.188ZM163,61.188L163,61.259C163,61.609 163.304,62.239 163.911,63.15C164.051,63.418 164.121,63.699 164.121,63.99C164.074,64.924 164.051,65.555 164.051,65.882C164.191,66.617 164.261,67.224 164.261,67.703L164.261,68.334C164.168,71.019 164.121,72.513 164.121,72.817L164.121,73.307C164.214,75.362 164.261,76.483 164.261,76.67L164.261,78.701C164.261,79.857 164.004,80.978 163.49,82.063L163.49,82.203C163.49,83.009 164.121,83.476 165.382,83.604L165.802,83.604C166.783,83.604 167.273,83.208 167.273,82.414L167.273,82.063C167.086,80.908 166.946,78.713 166.853,75.479C166.958,74.031 167.285,73.307 167.833,73.307C167.915,73.26 168.009,73.237 168.114,73.237C168.954,73.237 169.375,73.704 169.375,74.638C169.421,75.315 169.468,77.043 169.515,79.822C169.234,80.814 169.094,81.608 169.094,82.203L169.094,82.484C169.094,83.137 169.888,83.464 171.476,83.464L172.107,83.464C172.9,83.464 173.297,83.137 173.297,82.484C173.297,81.713 172.994,80.966 172.387,80.242C172.247,79.903 172.177,79.436 172.177,78.841L172.177,78.771C172.177,78.573 172.223,78.059 172.317,77.23C172.317,76.716 172.27,75.689 172.177,74.148C172.223,73.739 172.247,73.506 172.247,73.447L172.036,71.626C172.083,71.229 172.107,70.902 172.107,70.645L172.107,70.085C172.107,69.326 172.083,68.625 172.036,67.983C172.083,67.668 172.107,67.178 172.107,66.512L171.896,65.251C171.896,64.002 172.177,63.232 172.737,62.94C172.947,62.94 173.111,62.613 173.227,61.959C173.227,60.745 172.457,60.138 170.916,60.138L170.215,60.068C169.281,60.196 168.814,60.663 168.814,61.469C168.814,62.041 168.978,62.765 169.305,63.64C169.258,64.457 169.234,64.948 169.234,65.111C169.328,65.672 169.375,65.999 169.375,66.092C169.305,68.847 169.164,70.225 168.954,70.225C168.791,70.318 168.604,70.365 168.394,70.365L168.254,70.365C167.366,70.365 166.923,69.898 166.923,68.964C166.97,67.82 166.993,67.189 166.993,67.073C166.853,65.403 166.783,64.469 166.783,64.271L167.203,61.889C167.203,61.025 166.689,60.418 165.662,60.068C165.417,60.021 165.207,59.998 165.031,59.998L164.891,59.998C163.829,59.998 163.198,60.395 163,61.188ZM106.942,60.803L106.942,61.083C106.942,61.223 107.246,61.947 107.853,63.255C107.806,63.909 107.783,64.469 107.783,64.936L107.783,65.847C107.783,66.045 107.806,66.302 107.853,66.617C107.806,66.664 107.76,67.038 107.713,67.738C107.713,67.89 107.76,68.264 107.853,68.859L107.643,70.82L107.923,74.043C107.865,75.315 107.795,76.203 107.713,76.705L107.783,77.125C107.573,79.18 107.363,80.207 107.153,80.207C106.884,80.394 106.674,80.487 106.522,80.487C105.915,80.487 105.518,79.436 105.331,77.335C105.378,76.471 105.425,75.14 105.471,73.342C105.471,73.144 105.331,70.085 105.051,64.166C105.051,63.944 105.401,63.103 106.102,61.644L106.102,61.294C106.102,60.64 105.145,60.313 103.23,60.313L102.88,60.243C102.039,60.371 101.619,60.768 101.619,61.434L101.619,61.714C102.086,63.103 102.319,63.85 102.319,63.955L102.459,66.477C102.413,66.734 102.389,66.991 102.389,67.248L102.669,72.922C102.669,73.225 102.646,73.529 102.599,73.832C102.599,78.888 102.996,81.713 103.79,82.309C104.584,83.149 105.401,83.569 106.242,83.569L106.662,83.569C107.608,83.569 108.565,82.962 109.534,81.748C110.048,80.861 110.305,79.67 110.305,78.176C110.492,78.176 110.585,76.401 110.585,72.852L110.585,72.221C110.585,70.844 110.562,69.373 110.515,67.808C110.562,67.318 110.585,66.781 110.585,66.197L110.445,63.045C110.678,62.531 110.795,62.041 110.795,61.574C110.795,60.453 109.908,59.893 108.133,59.893C107.444,59.893 107.048,60.196 106.942,60.803ZM267.988,75.17C267.999,74.507 268.005,73.734 268.005,72.852L268.005,72.221C268.005,70.844 267.982,69.373 267.935,67.808C267.982,67.318 268.005,66.781 268.005,66.197L267.865,63.045C268.098,62.531 268.215,62.041 268.215,61.574C268.215,60.453 267.328,59.893 265.553,59.893C264.864,59.893 264.467,60.196 264.362,60.803L264.362,61.083C264.362,61.223 264.666,61.947 265.273,63.255C265.226,63.909 265.203,64.469 265.203,64.936L265.203,65.847C265.203,66.045 265.226,66.302 265.273,66.617C265.226,66.664 265.18,67.038 265.133,67.738C265.133,67.89 265.18,68.264 265.273,68.859L265.063,70.82L265.343,74.043C265.285,75.315 265.215,76.203 265.133,76.705L265.203,77.125C264.993,79.18 264.783,80.207 264.573,80.207C264.304,80.394 264.094,80.487 263.942,80.487C263.335,80.487 262.938,79.436 262.751,77.335C262.798,76.471 262.845,75.14 262.891,73.342C262.891,73.144 262.751,70.085 262.471,64.166C262.471,63.944 262.821,63.103 263.522,61.644L263.522,61.294C263.522,60.64 262.564,60.313 260.65,60.313L260.299,60.243C259.459,60.371 259.039,60.768 259.039,61.434L259.039,61.714C259.506,63.103 259.739,63.85 259.739,63.955L259.879,66.477C259.832,66.734 259.809,66.991 259.809,67.248L260.089,72.922C260.089,73.225 260.066,73.529 260.019,73.832C260.019,78.888 260.416,81.713 261.21,82.309C262.004,83.149 262.821,83.569 263.662,83.569L264.082,83.569C265.028,83.569 265.985,82.962 266.954,81.748C267.468,80.861 267.725,79.67 267.725,78.176C267.788,78.176 267.841,77.972 267.882,77.565L267.882,77.317C267.882,76.599 267.917,75.883 267.988,75.17ZM347.652,67.031C347.816,67.152 348.003,67.213 348.212,67.213L348.563,67.213C349.356,67.213 349.753,66.162 349.753,64.061C349.753,63.757 349.893,63.523 350.174,63.36L350.524,63.36C350.804,63.36 350.968,63.874 351.014,64.901C351.014,65.111 350.991,65.648 350.944,66.512C350.944,66.711 350.968,66.968 351.014,67.283C350.968,67.773 350.944,68.31 350.944,68.894L350.944,68.964C351.038,70.342 351.084,71.089 351.084,71.206L351.084,73.447C351.084,73.891 351.108,74.428 351.154,75.058L351.084,75.479C351.131,76.319 351.201,77.137 351.294,77.93C351.294,79.67 351.061,80.651 350.594,80.873C350.454,80.873 350.314,81.129 350.174,81.643L350.174,81.713C350.174,82.612 350.804,83.172 352.065,83.394C353.746,83.394 354.587,83.067 354.587,82.414C354.634,82.332 354.657,82.215 354.657,82.063L354.657,81.993C354.657,81.55 354.423,80.709 353.956,79.472C353.956,78.759 353.933,77.779 353.886,76.529C353.933,75.35 353.956,74.416 353.956,73.727C353.956,73.482 353.91,73.085 353.816,72.537C353.863,71.976 353.886,71.556 353.886,71.276L353.816,68.894L353.886,68.754L353.676,67.073C353.723,66.676 353.746,66.349 353.746,66.092L353.606,64.481C353.665,64.061 353.875,63.85 354.237,63.85C354.61,63.85 354.797,64.434 354.797,65.602C354.797,66.536 355.171,67.003 355.918,67.003L355.988,67.003C356.922,67.003 357.389,66.489 357.389,65.462L357.389,63.64C357.389,62.368 356.828,61.504 355.708,61.048L349.333,60.068C347.839,60.418 347.091,61.142 347.091,62.239C347.045,62.239 347.021,62.403 347.021,62.73L347.021,62.797C347.278,63.717 347.488,64.605 347.652,65.462L347.652,67.031ZM66.874,62.73L66.874,62.8C66.874,63.091 66.897,63.442 66.944,63.85L66.734,65.251C66.932,66.559 67.376,67.213 68.065,67.213L68.415,67.213C69.209,67.213 69.606,66.162 69.606,64.061C69.606,63.757 69.746,63.523 70.026,63.36L70.376,63.36C70.657,63.36 70.82,63.874 70.867,64.901C70.867,65.111 70.843,65.648 70.797,66.512C70.797,66.711 70.82,66.968 70.867,67.283C70.82,67.773 70.797,68.31 70.797,68.894L70.797,68.964C70.89,70.342 70.937,71.089 70.937,71.206L70.937,73.447C70.937,73.891 70.96,74.428 71.007,75.058L70.937,75.479C70.983,76.319 71.053,77.137 71.147,77.93C71.147,79.67 70.913,80.651 70.446,80.873C70.306,80.873 70.166,81.129 70.026,81.643L70.026,81.713C70.026,82.612 70.657,83.172 71.917,83.394C73.599,83.394 74.439,83.067 74.439,82.414C74.486,82.332 74.509,82.215 74.509,82.063L74.509,81.993C74.509,81.55 74.276,80.709 73.809,79.472C73.809,78.759 73.785,77.779 73.739,76.529C73.785,75.35 73.809,74.416 73.809,73.727C73.809,73.482 73.762,73.085 73.669,72.537C73.715,71.976 73.739,71.556 73.739,71.276L73.669,68.894L73.739,68.754L73.529,67.073C73.575,66.676 73.599,66.349 73.599,66.092L73.459,64.481C73.517,64.061 73.727,63.85 74.089,63.85C74.463,63.85 74.649,64.434 74.649,65.602C74.649,66.536 75.023,67.003 75.77,67.003L75.84,67.003C76.774,67.003 77.241,66.489 77.241,65.462L77.241,63.64C77.241,62.368 76.681,61.504 75.56,61.048L69.185,60.068C67.691,60.418 66.944,61.142 66.944,62.239C66.897,62.239 66.874,62.403 66.874,62.73ZM337.144,63.92C337.144,65.893 338.265,69.046 340.507,73.377C341.534,75.782 342.095,77.627 342.188,78.911C342.188,79.845 341.861,80.312 341.207,80.312L341.067,80.312C340.32,80.312 339.946,79.425 339.946,77.65C339.748,76.67 339.281,76.179 338.545,76.179C338.545,76.132 338.475,76.109 338.335,76.109C337.448,76.109 337.004,76.646 337.004,77.72C337.366,80.476 337.646,81.853 337.845,81.853C338.195,82.402 339.106,82.846 340.577,83.184C340.834,83.231 341.044,83.254 341.207,83.254C342.97,83.254 344.091,82.694 344.57,81.573C344.85,80.861 344.99,80.324 344.99,79.962L344.99,79.331C344.99,77.767 344.336,75.432 343.029,72.326C342.527,71.708 342.083,70.657 341.698,69.174C340.53,66.839 339.946,65.228 339.946,64.341C340.098,63.453 340.495,63.01 341.137,63.01C341.733,63.01 342.083,63.664 342.188,64.971C342.188,66.185 342.632,66.792 343.519,66.792L343.659,66.792C344.184,66.792 344.558,66.489 344.78,65.882C344.967,65.065 345.06,64.434 345.06,63.99L345.06,62.73C345.06,60.908 344.173,59.998 342.398,59.998L341.067,59.998C339.958,59.998 338.884,60.535 337.845,61.609C337.378,62.508 337.144,63.278 337.144,63.92ZM313.853,61.259C313.853,61.399 314.063,62.052 314.483,63.22C314.577,63.815 314.623,64.236 314.623,64.481C314.623,64.749 314.6,65.87 314.553,67.843C314.647,68.672 314.693,69.209 314.693,69.454C314.693,69.723 314.623,70.33 314.483,71.276L314.623,72.467C314.577,73.167 314.553,73.751 314.553,74.218L314.553,76.179C314.553,76.576 314.577,76.996 314.623,77.44L314.553,77.86C314.6,78.339 314.623,78.713 314.623,78.981C314.623,79.226 314.32,79.903 313.713,81.013C313.666,81.083 313.643,81.223 313.643,81.433C313.643,82.32 314.577,82.764 316.445,82.764C318.173,82.997 319.317,83.114 319.877,83.114C320.998,83.114 321.652,82.39 321.838,80.943C321.745,79.81 321.698,79.18 321.698,79.051L321.698,77.65C321.698,76.576 321.325,76.039 320.578,76.039L320.297,76.039C319.363,76.308 318.896,76.985 318.896,78.071L318.896,78.491C318.896,78.759 318.92,79.133 318.966,79.612C318.966,79.787 318.826,79.974 318.546,80.172L318.406,80.172C317.752,80.172 317.425,79.705 317.425,78.771L317.425,77.93C317.425,77.51 317.379,77.113 317.285,76.74L317.425,72.256L317.285,70.995L317.355,70.505C317.309,69.303 317.285,68.275 317.285,67.423L317.285,67.213C317.425,65.648 317.495,64.784 317.495,64.621L317.285,63.29C317.285,62.741 317.752,62.298 318.686,61.959C318.966,61.632 319.107,61.305 319.107,60.978L319.107,60.628C319.107,59.881 318.079,59.507 316.024,59.507L315.114,59.507C314.273,59.507 313.853,60.091 313.853,61.259ZM155.907,59.787L154.717,59.787C153.572,59.787 152.382,60.838 151.144,62.94C150.817,63.932 150.654,65.66 150.654,68.123L150.724,68.614C150.677,68.917 150.654,69.221 150.654,69.524C150.654,70.202 150.794,71.673 151.074,73.938C151.027,74.346 151.004,74.696 151.004,74.988C151.494,79.285 151.961,81.433 152.405,81.433C153.281,82.554 154.215,83.114 155.207,83.114L155.557,83.114C157.04,83.114 158.137,81.807 158.85,79.191C158.896,78.958 158.92,78.654 158.92,78.281L158.92,77.72C158.92,76.821 158.546,76.308 157.799,76.179L157.589,76.179C156.655,76.179 156.188,76.856 156.188,78.211C155.896,79.285 155.639,79.822 155.417,79.822L155.137,79.822C154.565,79.822 154.168,78.748 153.946,76.599C153.853,74.673 153.713,72.782 153.526,70.925C153.526,70.762 153.549,70.552 153.596,70.295C153.456,68.66 153.386,67.703 153.386,67.423L153.386,67.353C153.572,64.971 153.829,63.78 154.156,63.78C154.401,63.08 154.775,62.73 155.277,62.73L155.417,62.73C156.106,62.73 156.503,63.337 156.608,64.551C156.608,64.668 156.631,64.854 156.678,65.111L156.608,65.602C156.69,66.863 157.18,67.493 158.079,67.493C158.966,67.493 159.41,66.792 159.41,65.391C159.41,61.235 159.2,59.157 158.779,59.157C158.464,58.97 158.184,58.877 157.939,58.877L157.589,58.877C157.262,58.877 156.795,59.157 156.188,59.717C156.106,59.764 156.013,59.787 155.907,59.787ZM333.111,76.121C332.98,76.067 332.83,76.039 332.661,76.039L332.381,76.039C331.447,76.308 330.98,76.985 330.98,78.071L330.98,78.491C330.98,78.759 331.003,79.133 331.05,79.612C331.05,79.787 330.91,79.974 330.63,80.172L330.49,80.172C329.836,80.172 329.509,79.705 329.509,78.771L329.509,77.93C329.509,77.51 329.462,77.113 329.369,76.74L329.509,72.256L329.369,70.995L329.439,70.505C329.392,69.303 329.369,68.275 329.369,67.423L329.369,67.213C329.509,65.648 329.579,64.784 329.579,64.621L329.369,63.29C329.369,62.741 329.836,62.298 330.77,61.959C331.05,61.632 331.19,61.305 331.19,60.978L331.19,60.628C331.19,59.881 330.163,59.507 328.108,59.507L327.197,59.507C326.357,59.507 325.936,60.091 325.936,61.259C325.936,61.399 326.147,62.052 326.567,63.22C326.66,63.815 326.707,64.236 326.707,64.481C326.707,64.749 326.684,65.87 326.637,67.843C326.73,68.672 326.777,69.209 326.777,69.454C326.777,69.723 326.707,70.33 326.567,71.276L326.707,72.467C326.66,73.167 326.637,73.751 326.637,74.218L326.637,76.179C326.637,76.576 326.66,76.996 326.707,77.44L326.637,77.86C326.684,78.339 326.707,78.713 326.707,78.981C326.707,79.226 326.403,79.903 325.796,81.013C325.75,81.083 325.726,81.223 325.726,81.433C325.726,82.32 326.66,82.764 328.528,82.764C330.256,82.997 331.4,83.114 331.961,83.114C333.081,83.114 333.735,82.39 333.922,80.943C333.829,79.81 333.782,79.18 333.782,79.051L333.782,78.223C333.589,77.715 333.403,77.15 333.222,76.529C333.188,76.47 333.151,76.334 333.111,76.121ZM247.971,81.153C247.971,82.157 248.181,82.659 248.601,82.659C248.986,82.869 249.407,82.974 249.862,82.974C250.831,82.846 251.316,82.489 251.316,81.906C251.024,80.867 250.878,80.067 250.878,79.507C250.983,77.954 251.292,77.177 251.806,77.177C252.495,77.177 252.938,77.895 253.137,79.331L253.137,79.454C253.09,80.528 253.067,81.135 253.067,81.275C253.067,82.454 253.487,83.044 254.328,83.044L254.958,83.044C255.881,82.951 256.342,82.635 256.342,82.098L256.342,81.976C256.342,81.696 256.132,81.024 255.711,79.962C255.711,79.728 255.565,78.847 255.273,77.317C255.273,77.026 255.297,76.769 255.343,76.547C255.005,73.885 254.836,72.122 254.836,71.258C254.754,70.371 254.52,69.18 254.135,67.686C254.135,67.16 253.989,66.232 253.697,64.901C253.697,63.021 253.131,62.082 251.999,62.082C251.123,62.082 250.685,62.689 250.685,63.903C250.568,64.37 250.422,65.397 250.247,66.985C249.862,68.363 249.313,72.035 248.601,78C248.484,78.386 248.274,79.436 247.971,81.153ZM301.174,81.153C301.174,82.157 301.384,82.659 301.804,82.659C302.189,82.869 302.61,82.974 303.065,82.974C304.034,82.846 304.519,82.489 304.519,81.906C304.227,80.867 304.081,80.067 304.081,79.507C304.186,77.954 304.495,77.177 305.009,77.177C305.698,77.177 306.141,77.895 306.34,79.331L306.34,79.454C306.293,80.528 306.27,81.135 306.27,81.275C306.27,82.454 306.69,83.044 307.531,83.044L308.161,83.044C309.084,82.951 309.545,82.635 309.545,82.098L309.545,81.976C309.545,81.696 309.335,81.024 308.914,79.962C308.914,79.728 308.768,78.847 308.476,77.317C308.476,77.026 308.5,76.769 308.546,76.547C308.208,73.885 308.039,72.122 308.039,71.258C307.957,70.371 307.723,69.18 307.338,67.686C307.338,67.16 307.192,66.232 306.9,64.901C306.9,63.021 306.334,62.082 305.202,62.082C304.326,62.082 303.888,62.689 303.888,63.903C303.771,64.37 303.625,65.397 303.45,66.985C303.065,68.363 302.516,72.035 301.804,78C301.687,78.386 301.477,79.436 301.174,81.153ZM33.705,81.153C33.705,82.157 33.915,82.659 34.336,82.659C34.721,82.869 35.141,82.974 35.596,82.974C36.566,82.846 37.05,82.489 37.05,81.906C36.758,80.867 36.612,80.067 36.612,79.507C36.717,77.954 37.027,77.177 37.54,77.177C38.229,77.177 38.673,77.895 38.871,79.331L38.871,79.454C38.825,80.528 38.801,81.135 38.801,81.275C38.801,82.454 39.222,83.044 40.062,83.044L40.693,83.044C41.615,82.951 42.076,82.635 42.076,82.098L42.076,81.976C42.076,81.696 41.866,81.024 41.446,79.962C41.446,79.728 41.3,78.847 41.008,77.317C41.008,77.026 41.031,76.769 41.078,76.547C40.739,73.885 40.57,72.122 40.57,71.258C40.488,70.371 40.255,69.18 39.87,67.686C39.87,67.16 39.724,66.232 39.432,64.901C39.432,63.021 38.865,62.082 37.733,62.082C36.857,62.082 36.42,62.689 36.42,63.903C36.303,64.37 36.157,65.397 35.982,66.985C35.596,68.363 35.048,72.035 34.336,78C34.219,78.386 34.009,79.436 33.705,81.153ZM225.625,60.348C225.625,60.511 225.812,61.282 226.185,62.66C226.325,64.352 226.419,65.987 226.465,67.563C226.512,67.563 226.535,67.656 226.535,67.843C226.395,69.279 226.325,70.213 226.325,70.645C226.699,71.941 226.886,73.225 226.886,74.498C226.839,77.814 226.629,79.472 226.255,79.472C225.882,79.857 225.695,80.3 225.695,80.802C225.695,81.491 226.092,81.982 226.886,82.274C227.306,82.414 227.656,82.484 227.936,82.484L228.497,82.484C229.477,82.297 229.968,81.853 229.968,81.153C229.734,79.903 229.571,78.596 229.477,77.23C229.524,76.401 229.548,75.7 229.548,75.128L229.548,72.957C229.548,72.595 229.664,72.361 229.898,72.256L229.968,72.256C230.482,72.256 230.785,72.887 230.878,74.148C230.878,74.521 230.925,75.198 231.019,76.179C230.972,79.11 230.925,80.791 230.878,81.223C231.112,82.344 231.929,82.904 233.33,82.904L233.821,82.904C234.661,82.787 235.081,82.297 235.081,81.433C235.128,81.433 235.152,81.386 235.152,81.293C235.152,80.954 234.755,80.534 233.961,80.032C233.844,79.88 233.751,79.67 233.68,79.401C233.68,79.238 233.704,79.028 233.751,78.771C233.704,77.242 233.68,75.911 233.68,74.778L233.68,74.568C233.68,74.218 233.564,73.494 233.33,72.396C233.33,71.929 233.19,71.229 232.91,70.295C233.657,68.077 234.031,66.512 234.031,65.602L234.031,64.411C234.031,62.263 233.19,60.745 231.509,59.858C230.015,59.297 228.427,59.017 226.746,59.017L226.675,59.017C225.975,59.017 225.625,59.461 225.625,60.348ZM50.762,69.227L50.622,69.227C50.26,68.188 49.787,65.666 49.204,61.661C48.877,60.797 48.235,60.365 47.277,60.365L46.734,60.365C45.847,60.365 45.281,60.751 45.036,61.521L45.036,62.064C45.176,62.87 45.287,64.417 45.368,66.705C45.322,68.071 45.258,69.075 45.176,69.717C45.176,69.869 45.199,70.254 45.246,70.873C45.199,72.286 45.176,73.22 45.176,73.675C45.176,73.862 45.199,74.113 45.246,74.428C45.199,74.685 45.176,75.047 45.176,75.514L45.176,75.584L45.509,78.859C45.287,80.528 45.176,81.462 45.176,81.661C45.176,82.431 45.655,82.816 46.612,82.816L46.945,82.816C48.17,82.816 48.783,82.384 48.783,81.52L48.783,81.38C48.783,81.077 48.579,80.394 48.17,79.331C48.077,79.063 47.99,77.72 47.908,75.304C47.826,75.304 47.779,74.918 47.768,74.148C47.814,73.12 47.925,72.595 48.1,72.572C48.357,72.572 48.678,73.85 49.064,76.407C49.426,77.376 49.607,78.397 49.607,79.472C50.003,80.335 50.616,80.767 51.445,80.767C52.356,80.767 52.811,79.746 52.811,77.703C52.811,77.002 52.992,75.817 53.354,74.148L53.494,74.148L53.774,77.142C53.681,77.691 53.634,78.123 53.634,78.438L53.634,79.191C53.634,79.658 53.383,80.318 52.881,81.17C52.835,81.427 52.811,81.614 52.811,81.731C52.811,82.454 53.29,82.816 54.247,82.816C54.574,82.863 54.983,82.886 55.473,82.886C56.477,82.688 56.979,82.256 56.979,81.591L56.979,81.31C56.979,81.135 56.798,80.406 56.436,79.121C56.39,78.608 56.366,78.111 56.366,77.633L56.366,75.724C56.366,75.269 56.32,74.492 56.226,73.395L56.296,72.922C56.203,72.42 56.156,71.964 56.156,71.556C56.203,69.711 56.226,68.69 56.226,68.491C56.133,67.791 56.086,67.289 56.086,66.985C56.18,66.203 56.226,65.724 56.226,65.549C56.226,65.397 56.203,65.286 56.156,65.216C56.203,64.119 56.32,63.021 56.506,61.924C56.506,60.838 56.004,60.295 55,60.295C53.272,60.295 52.409,61.048 52.409,62.554C52.409,63.5 52.041,65.065 51.305,67.248C51.118,68.567 50.937,69.227 50.762,69.227ZM191.16,69.227L191.02,69.227C190.658,68.188 190.185,65.666 189.602,61.661C189.275,60.797 188.632,60.365 187.675,60.365L187.132,60.365C186.245,60.365 185.679,60.751 185.434,61.521L185.434,62.064C185.574,62.87 185.685,64.417 185.766,66.705C185.72,68.071 185.655,69.075 185.574,69.717C185.574,69.869 185.597,70.254 185.644,70.873C185.597,72.286 185.574,73.22 185.574,73.675C185.574,73.862 185.597,74.113 185.644,74.428C185.597,74.685 185.574,75.047 185.574,75.514L185.574,75.584L185.906,78.859C185.685,80.528 185.574,81.462 185.574,81.661C185.574,82.431 186.052,82.816 187.01,82.816L187.342,82.816C188.568,82.816 189.181,82.384 189.181,81.52L189.181,81.38C189.181,81.077 188.977,80.394 188.568,79.331C188.475,79.063 188.387,77.72 188.306,75.304C188.224,75.304 188.177,74.918 188.165,74.148C188.212,73.12 188.323,72.595 188.498,72.572C188.755,72.572 189.076,73.85 189.461,76.407C189.823,77.376 190.004,78.397 190.004,79.472C190.401,80.335 191.014,80.767 191.843,80.767C192.754,80.767 193.209,79.746 193.209,77.703C193.209,77.002 193.39,75.817 193.752,74.148L193.892,74.148L194.172,77.142C194.079,77.691 194.032,78.123 194.032,78.438L194.032,79.191C194.032,79.658 193.781,80.318 193.279,81.17C193.232,81.427 193.209,81.614 193.209,81.731C193.209,82.454 193.688,82.816 194.645,82.816C194.972,82.863 195.381,82.886 195.871,82.886C196.875,82.688 197.377,82.256 197.377,81.591L197.377,81.31C197.377,81.135 197.196,80.406 196.834,79.121C196.787,78.608 196.764,78.111 196.764,77.633L196.764,75.724C196.764,75.269 196.717,74.492 196.624,73.395L196.694,72.922C196.601,72.42 196.554,71.964 196.554,71.556C196.601,69.711 196.624,68.69 196.624,68.491C196.531,67.791 196.484,67.289 196.484,66.985C196.577,66.203 196.624,65.724 196.624,65.549C196.624,65.397 196.601,65.286 196.554,65.216C196.601,64.119 196.717,63.021 196.904,61.924C196.904,60.838 196.402,60.295 195.398,60.295C193.67,60.295 192.806,61.048 192.806,62.554C192.806,63.5 192.439,65.065 191.703,67.248C191.516,68.567 191.335,69.227 191.16,69.227ZM135.54,66.512C135.54,66.606 135.558,66.851 135.593,67.248C135.593,67.995 135.575,69.454 135.54,71.626C135.575,73.447 135.593,74.457 135.593,74.656C135.558,75.52 135.54,76.348 135.54,77.142C135.704,79.209 135.949,80.423 136.276,80.785C137.245,82.128 138.231,82.799 139.236,82.799L139.446,82.799C141.15,82.799 142.429,81.742 143.281,79.629C143.596,78.473 143.818,77.131 143.946,75.601C143.946,75.379 143.923,75.105 143.876,74.778C143.923,74.113 143.946,73.622 143.946,73.307C143.771,71.322 143.684,69.571 143.684,68.053C143.73,67.154 143.754,66.547 143.754,66.232C143.252,63.267 142.826,61.784 142.475,61.784C141.997,61.072 141.255,60.511 140.251,60.103L139.848,60.033C138.156,60.033 136.895,61.247 136.066,63.675L135.54,66.512ZM128.098,61.101C128.098,61.229 128.349,61.726 128.851,62.589C128.897,62.881 128.944,63.95 128.991,65.794L128.851,67.353L128.64,67.353C128.197,66.139 127.747,64.347 127.292,61.977L127.362,61.574L127.362,61.171C127.362,60.365 126.591,59.887 125.05,59.735C125.004,59.688 124.823,59.665 124.508,59.665C123.807,59.665 123.398,60.301 123.282,61.574C123.41,62.041 123.498,63.29 123.544,65.321C123.416,66.909 123.212,70.167 122.931,75.093C123.071,76.226 123.142,77.066 123.142,77.615L123.142,77.878C123.142,78.45 123.118,78.975 123.071,79.454C123.071,81.018 123.276,81.923 123.684,82.168C124.081,82.367 124.56,82.501 125.12,82.571C125.926,82.466 126.329,82.151 126.329,81.626L126.329,81.153C126.329,80.919 126.107,80.125 125.663,78.771L125.663,78.368C125.663,78.135 125.687,77.86 125.733,77.545C125.687,76.985 125.663,76.442 125.663,75.916L125.926,72.782L125.926,72.589C125.926,72.426 125.903,72.221 125.856,71.976C125.926,71.427 126.019,71.153 126.136,71.153C126.405,71.153 126.743,72.607 127.152,75.514C127.374,75.887 127.555,76.88 127.695,78.491C128.372,80.627 129.096,81.696 129.866,81.696C130.765,81.696 131.332,80.948 131.565,79.454L131.635,78.771C131.635,78.619 131.612,78.234 131.565,77.615C131.658,77.195 131.728,76.15 131.775,74.48C131.775,74.457 131.752,74.165 131.705,73.605C131.752,72.764 131.775,72.245 131.775,72.046C131.682,70.855 131.635,69.857 131.635,69.052L131.635,68.719C131.728,67.61 131.775,66.997 131.775,66.88L131.775,66.6C131.775,65.689 131.752,64.557 131.705,63.202C131.705,62.934 131.933,62.391 132.388,61.574C132.435,61.504 132.458,61.393 132.458,61.241L132.458,61.101C132.458,60.015 131.664,59.472 130.076,59.472C129.201,59.472 128.588,59.811 128.238,60.488C128.144,60.78 128.098,60.984 128.098,61.101ZM200.097,81.853C200.374,82.262 201.043,82.466 202.105,82.466C202.537,82.501 203.401,82.519 204.697,82.519L205.135,82.519C206.454,82.39 207.114,81.795 207.114,80.732C207.114,80.592 207.132,80.242 207.167,79.682C207.12,78.199 206.892,77.458 206.484,77.458C206.308,77.376 206.087,77.317 205.818,77.282C205.071,77.282 204.697,77.878 204.697,79.069C204.651,79.723 204.365,80.049 203.839,80.049L203.647,80.049C203.156,80.049 202.911,79.6 202.911,78.701C202.958,78.374 202.981,78.047 202.981,77.72C202.981,77.218 202.934,76.845 202.841,76.599C202.888,76.319 202.911,76.092 202.911,75.916L202.911,75.006C202.911,74.305 203.18,73.955 203.717,73.955C204.989,73.955 205.625,73.605 205.625,72.904L205.625,72.589C205.625,71.398 205.071,70.803 203.962,70.803C203.215,70.803 202.841,70.412 202.841,69.629C202.841,69.594 202.823,69.472 202.788,69.262C202.823,68.188 202.841,67.219 202.841,66.355L202.841,65.059C202.841,64.276 203.069,63.885 203.524,63.885L203.962,63.885C204.534,63.885 204.82,64.504 204.82,65.742L204.82,67.16C204.82,67.942 205.129,68.334 205.748,68.334L206.063,68.334C206.764,68.334 207.172,67.779 207.289,66.67C207.289,66.635 207.312,66.512 207.359,66.302C207.312,65.391 207.289,64.586 207.289,63.885L207.289,63.588C207.289,62.689 206.921,62.052 206.186,61.679C206.186,61.527 205.24,61.404 203.349,61.311C200.792,61.311 199.514,61.451 199.514,61.731L199.391,61.924L199.391,62.169C199.391,62.671 199.66,63.29 200.197,64.025C200.325,64.364 200.448,65.205 200.564,66.547C200.564,66.629 200.523,66.874 200.442,67.283C200.442,67.423 200.465,68.018 200.512,69.069C200.512,69.314 200.488,69.828 200.442,70.61C200.442,70.774 200.506,71.597 200.634,73.079C200.576,74.796 200.512,75.806 200.442,76.109C200.488,76.845 200.512,77.463 200.512,77.965L200.512,79.016C200.512,79.121 200.325,79.635 199.951,80.557L199.951,81.284C200.028,81.52 200.077,81.71 200.097,81.853ZM323.169,79.192L323.204,79.331L323.204,79.822C323.085,80.367 322.98,80.878 322.889,81.356L322.889,81.223C322.889,81.013 322.983,80.569 323.169,79.892L323.169,79.192ZM23.285,63.5L23.425,63.5C24.196,63.5 24.733,64.784 25.036,67.353C24.99,67.61 24.966,67.797 24.966,67.913C25.06,68.684 25.107,69.198 25.107,69.454C25.107,69.571 25.083,69.758 25.036,70.015C25.118,70.89 25.212,72.151 25.317,73.797C25.223,74.463 25.177,74.837 25.177,74.918C25.177,74.942 25.2,75.245 25.247,75.829L24.966,78.631C24.966,79.693 24.523,80.394 23.635,80.732L23.565,80.732C23.098,80.732 22.865,79.518 22.865,77.09L22.865,75.619C22.865,74.837 22.912,74.043 23.005,73.237C22.958,72.548 22.935,72.081 22.935,71.836C22.935,71.369 22.958,70.809 23.005,70.155C22.958,69.338 22.935,68.824 22.935,68.614C22.935,68.392 22.958,67.598 23.005,66.232C22.958,65.426 22.935,64.773 22.935,64.271C22.993,63.757 23.11,63.5 23.285,63.5ZM93.3,63.5L93.44,63.5C94.211,63.5 94.748,64.784 95.051,67.353C95.005,67.61 94.981,67.797 94.981,67.913C95.075,68.684 95.122,69.198 95.122,69.454C95.122,69.571 95.098,69.758 95.051,70.015C95.133,70.89 95.227,72.151 95.332,73.797C95.238,74.463 95.192,74.837 95.192,74.918C95.192,74.942 95.215,75.245 95.262,75.829L94.981,78.631C94.981,79.693 94.538,80.394 93.65,80.732L93.58,80.732C93.113,80.732 92.88,79.518 92.88,77.09L92.88,75.619C92.88,74.837 92.927,74.043 93.02,73.237C92.973,72.548 92.95,72.081 92.95,71.836C92.95,71.369 92.973,70.809 93.02,70.155C92.973,69.338 92.95,68.824 92.95,68.614C92.95,68.392 92.973,67.598 93.02,66.232C92.973,65.426 92.95,64.773 92.95,64.271C93.008,63.757 93.125,63.5 93.3,63.5ZM139.848,63.413C140.561,63.413 140.987,64.668 141.127,67.178C141.174,67.423 141.197,67.668 141.197,67.913C141.197,68.053 141.15,68.865 141.057,70.347C141.15,71.141 141.197,71.608 141.197,71.748C141.197,71.959 141.174,72.455 141.127,73.237L141.197,74.183C141.197,74.241 141.174,74.463 141.127,74.848L141.249,76.074C141.028,78.584 140.467,79.839 139.568,79.839L139.446,79.839C138.722,79.839 138.313,78.853 138.22,76.88C138.22,76.564 138.196,76.296 138.15,76.074C138.243,75.63 138.29,74.977 138.29,74.113L138.29,72.572C138.29,71.743 138.313,71.042 138.36,70.47C138.313,70.05 138.29,69.647 138.29,69.262C138.29,65.677 138.535,63.885 139.025,63.885C139.025,63.64 139.3,63.483 139.848,63.413ZM37.926,72.396C38.183,72.817 38.311,73.278 38.311,73.78C38.218,74.2 38.048,74.41 37.803,74.41C37.593,74.352 37.488,74.206 37.488,73.973L37.488,73.657C37.581,72.817 37.727,72.396 37.926,72.396ZM305.394,72.396C305.651,72.817 305.779,73.278 305.779,73.78C305.686,74.2 305.517,74.41 305.272,74.41C305.061,74.352 304.956,74.206 304.956,73.973L304.956,73.657C305.05,72.817 305.196,72.396 305.394,72.396ZM252.191,72.396C252.448,72.817 252.576,73.278 252.576,73.78C252.483,74.2 252.314,74.41 252.069,74.41C251.858,74.352 251.753,74.206 251.753,73.973L251.753,73.657C251.847,72.817 251.993,72.396 252.191,72.396ZM345.831,70.142L345.831,73.377C345.737,72.572 345.55,71.614 345.27,70.505C345.27,70.435 345.434,70.318 345.761,70.155C345.784,70.151 345.807,70.146 345.831,70.142ZM283.52,63.692C283.443,64.515 283.374,65.111 283.311,65.479C283.257,67.14 283.181,68.385 283.083,69.215L283.083,66.67C283.083,65.958 283.223,64.977 283.504,63.728C283.509,63.718 283.515,63.706 283.52,63.692ZM229.407,62.309L229.828,62.309C230.295,62.309 230.738,62.753 231.159,63.64L231.229,63.99C231.229,66.185 231.042,67.516 230.668,67.983C230.423,68.17 230.213,68.264 230.038,68.264L229.758,68.264C229.361,68.264 229.127,66.816 229.057,63.92C229.01,63.92 228.964,63.687 228.917,63.22C228.917,62.811 229.081,62.508 229.407,62.309Z" style="fill:white;fill-rule:nonzero;"/>
    </g>
</svg>
