<?xml version="1.0" encoding="UTF-8" standalone="no"?>
<!DOCTYPE svg PUBLIC "-//W3C//DTD SVG 1.1//EN" "http://www.w3.org/Graphics/SVG/1.1/DTD/svg11.dtd">
<svg width="100%" height="100%" viewBox="0 0 115 116" version="1.1" xmlns="http://www.w3.org/2000/svg" xmlns:xlink="http://www.w3.org/1999/xlink" xml:space="preserve" xmlns:serif="http://www.serif.com/" style="fill-rule:evenodd;clip-rule:evenodd;stroke-linejoin:round;stroke-miterlimit:2;">
    <g transform="matrix(1,0,0,1,-130,-218)">
        <g id="GEILdesignt-Circle-Logo" serif:id="GEILdesignt Circle Logo" transform="matrix(0.0436304,0,0,0.0436304,98.1379,168.791)">
            <g id="background" transform="matrix(1,0,0,1,-71.6663,-374.933)">
                <circle cx="2119.83" cy="2837.48" r="1312.57"/>
            </g>
            <g id="underline" transform="matrix(1.08906,0,0,1.08906,-174.115,-361.791)">
                <g id="pen-curves" serif:id="pen curves" transform="matrix(2.03922,0,0,2.03922,892.812,1880.92)">
                    <path d="M652.666,667.46C693.943,658.963 778.04,604.815 814.676,631.233C837.718,647.848 844.737,591.566 881.734,574.086C899.566,565.66 928.814,614.678 958.028,619.527C982.076,623.518 992.696,587.27 991.455,550.503C990.36,518.061 977.305,490.605 961.546,479.249C946.513,468.417 919.127,459.86 901.465,459.863C882.47,459.866 866.486,468.417 856.134,479.249C838.947,497.234 850.877,528.451 831.8,553.031C810.469,580.515 774.193,565.755 761.805,573.337C721.389,598.073 721.976,626.826 652.666,667.46Z" style="fill:rgb(255,0,0);"/>
                </g>
                <g id="pen-curves1" serif:id="pen curves" transform="matrix(2.03922,0,0,2.03922,865.706,1827.69)">
                    <path d="M520.838,693.56C522.317,693.519 525.995,693.416 525.995,693.416C525.995,693.416 526.005,693.259 520.838,692.992C452.459,689.463 385.333,624.349 321.659,588.561C285.224,568.083 245.595,607.386 212.453,576.041C194.786,559.331 189.425,522.089 172.591,502.515C161.927,491.851 144.611,491.851 133.946,502.515C123.282,513.179 126.435,530.695 133.946,541.16C141.642,551.88 167.219,551.866 180.119,566.839C200.691,590.714 214.466,630.193 240.123,639.832C272.064,651.833 315.398,627.047 342.738,638.104C412.101,666.155 451.056,695.513 520.838,693.56Z" style="fill:rgb(255,0,0);"/>
                </g>
            </g>
            <g id="GEIL" transform="matrix(1.94436,0,0,1.96512,-243.186,-980.701)">
                <g transform="matrix(453.499,0,0,452.366,521.061,1789)">
                    <path d="M0.57,-0.465C0.559,-0.482 0.544,-0.496 0.525,-0.507C0.505,-0.518 0.481,-0.523 0.451,-0.523C0.428,-0.523 0.405,-0.518 0.384,-0.509C0.362,-0.499 0.343,-0.485 0.327,-0.468C0.31,-0.45 0.297,-0.428 0.287,-0.403C0.277,-0.378 0.272,-0.349 0.272,-0.317C0.272,-0.278 0.283,-0.245 0.306,-0.22C0.329,-0.194 0.365,-0.181 0.414,-0.181C0.425,-0.181 0.437,-0.182 0.449,-0.184C0.46,-0.186 0.47,-0.189 0.477,-0.192L0.488,-0.254L0.372,-0.254L0.404,-0.436L0.725,-0.436L0.657,-0.05C0.62,-0.031 0.579,-0.014 0.533,-0.001C0.486,0.013 0.437,0.02 0.385,0.02C0.332,0.02 0.283,0.013 0.24,-0.001C0.197,-0.014 0.16,-0.034 0.129,-0.061C0.097,-0.088 0.074,-0.121 0.057,-0.16C0.04,-0.199 0.031,-0.243 0.031,-0.293C0.031,-0.354 0.041,-0.41 0.062,-0.463C0.083,-0.516 0.112,-0.562 0.149,-0.601C0.186,-0.64 0.23,-0.671 0.282,-0.694C0.333,-0.717 0.39,-0.728 0.452,-0.728C0.513,-0.728 0.568,-0.719 0.616,-0.702C0.664,-0.684 0.701,-0.66 0.726,-0.629L0.57,-0.465Z" style="fill:white;fill-rule:nonzero;"/>
                </g>
                <g transform="matrix(453.499,0,0,452.366,847.127,1789)">
                    <path d="M0.007,-0L0.132,-0.708L0.595,-0.708L0.561,-0.515L0.316,-0.515L0.304,-0.447L0.538,-0.447L0.506,-0.267L0.272,-0.267L0.259,-0.193L0.533,-0.193L0.499,-0L0.007,-0Z" style="fill:white;fill-rule:nonzero;"/>
                </g>
                <g transform="matrix(453.499,0,0,452.366,1322.1,1789)">
                    <path d="M0.007,-0L0.132,-0.708L0.365,-0.708L0.275,-0.198L0.514,-0.198L0.479,-0L0.007,-0Z" style="fill:white;fill-rule:nonzero;"/>
                </g>
            </g>
            <g id="pen-curves2" serif:id="pen curves" transform="matrix(0.907518,0.121738,-0.117046,0.872538,1131.92,1906.07)">
                <path d="M2318.61,591.272C2324.14,583.733 2329.56,574.746 2334.5,564.146C2339.7,552.993 2343.95,541.017 2351.41,532.515C2358.18,524.804 2366.61,520.04 2378.95,524.956C2383.23,526.946 2385.79,531.273 2387,536.747C2387.57,539.346 2387.74,542.156 2387.73,545.042C2387.7,555.345 2385.5,566.121 2385.61,576.059C2385.68,583.6 2387.03,590.424 2389.95,595.942C2392.84,601.401 2397.3,605.747 2403.05,607.985C2407.99,609.91 2413.76,611.422 2420.74,609.728C2431.48,607.125 2444.65,599.969 2463.12,582.76C2451.41,585.617 2442.68,586.675 2434.73,587.409C2424.93,588.313 2419.63,586.401 2415.68,583.675C2414.95,583.169 2414.74,582.297 2414.26,581.548C2413.6,580.512 2412.69,579.598 2412.11,578.383C2410.15,574.287 2408.2,569.811 2406.9,564.678C2404.72,556.07 2402.4,547.303 2400.76,539.048C2398.29,526.655 2395.32,516.348 2386.74,510.965C2372.11,500.193 2358.83,501.05 2346.34,505.132C2337.85,507.91 2330.41,513.648 2322.43,519.996C2308.59,531.004 2295.81,545.263 2283.51,552.747C2272.88,562.434 2272.11,578.93 2281.8,589.561C2291.48,600.192 2307.98,600.958 2318.61,591.272Z" style="fill:rgb(255,0,0);"/>
            </g>
            <g id="Designt" transform="matrix(1.04041,0,0,1.04041,-554.778,816.845)">
                <g id="Designt-Outline" serif:id="Designt Outline" transform="matrix(1.80441,0,0,1.80518,284.317,-997.933)">
                    <path d="M1521.7,1618.58C1499.26,1644.98 1564.57,1538.43 1638.48,1445.79L1638.52,1445.18L1464.04,1445.18L1463.72,1447.2C1454.74,1443.68 1446.01,1442 1437.57,1442C1423.44,1442 1410.52,1444.84 1398.78,1450.39C1387.05,1455.92 1377.02,1463.53 1368.66,1473.19C1360.54,1482.57 1354.18,1493.47 1349.65,1505.91C1345.19,1518.15 1342.92,1531.22 1342.92,1545.12C1342.92,1555.32 1344.53,1564.74 1347.63,1573.39C1350.61,1581.69 1354.9,1588.97 1360.47,1595.25L1325.19,1646.51L1337.15,1656.47C1342.37,1660.82 1348.38,1664.7 1355.23,1668.07C1361.65,1671.23 1368.53,1673.89 1375.86,1676.03C1383.05,1678.12 1390.48,1679.67 1398.17,1680.67C1405.71,1681.65 1413.11,1682.14 1420.36,1682.14C1451.06,1682.14 1475.16,1674.42 1493,1660.11C1505.19,1650.33 1514.91,1636.56 1521.7,1618.58ZM898.822,1496.22L914.966,1404.45L821.242,1404.45L810.484,1466.31C807.297,1465.17 803.983,1464.26 800.541,1463.57C795.867,1462.64 791.308,1462.18 786.868,1462.18C773.086,1462.18 760.298,1465.07 748.485,1470.75C736.872,1476.35 726.88,1483.88 718.493,1493.35C710.246,1502.65 703.757,1513.57 699.105,1526.15C694.535,1538.51 692.221,1551.65 692.221,1565.57C692.221,1575.77 693.722,1585.31 696.651,1594.2C699.789,1603.73 704.531,1612.02 710.806,1619.11C717.167,1626.3 724.973,1631.99 734.279,1636.11C743.249,1640.08 753.611,1642.21 765.419,1642.21C774.379,1642.21 782.502,1641.02 789.812,1638.76L873.745,1638.76L881.372,1595.41C881.737,1596.25 882.124,1597.07 882.527,1597.89C887.548,1608.04 894.359,1616.53 902.918,1623.38C911.194,1630 920.876,1635.01 932.021,1638.32C942.472,1641.43 953.49,1643 965.08,1643C979.553,1643 993.522,1640.88 1006.99,1636.66C1016.8,1633.58 1025.89,1628.94 1034.22,1622.69C1043.98,1630.23 1055.1,1635.6 1067.6,1638.77C1080.18,1641.97 1092.18,1643.53 1103.57,1643.53C1112.39,1643.53 1121.36,1642.52 1130.48,1640.47C1140.3,1638.26 1149.23,1634.59 1157.29,1629.52C1165.88,1624.1 1172.95,1617.05 1178.48,1608.34C1184.23,1599.29 1187.36,1588.34 1187.36,1575.36C1187.36,1566.44 1185.67,1558.69 1182.61,1552.06C1179.88,1546.15 1176.18,1540.92 1171.47,1536.39L1208.29,1494.13L1195.67,1482.91C1187.66,1475.79 1177.34,1470.12 1164.54,1466.23C1152.8,1462.65 1140.6,1460.86 1127.93,1460.86C1118.5,1460.86 1109.12,1462.11 1099.79,1464.62C1090.03,1467.25 1081.28,1471.23 1073.49,1476.49C1065.07,1482.19 1058.31,1489.43 1053.2,1498.21L1052.28,1499.86C1048.72,1493.37 1044.31,1487.64 1039.08,1482.65C1031.78,1475.69 1022.91,1470.26 1012.41,1466.49C1002.59,1462.97 991.5,1461.12 979.114,1461.12C963.888,1461.12 949.978,1463.75 937.359,1468.86C924.502,1474.06 913.475,1481.27 904.23,1490.41C902.34,1492.28 900.536,1494.21 898.822,1496.22Z"/>
                </g>
                <g transform="matrix(0.74925,0,0,0.757251,88.5531,-239.547)">
                    <g transform="matrix(1.12253,0,0,1.11067,1118.83,-827.246)">
                        <circle cx="915.157" cy="3202.24" r="71.677" style="fill:rgb(255,0,0);"/>
                    </g>
                    <g transform="matrix(1.12253,0,0,1.11067,2626,-839.823)">
                        <circle cx="915.157" cy="3202.24" r="71.677" style="fill:rgb(255,0,0);"/>
                    </g>
                </g>
                <g id="Designt-Outline1" serif:id="Designt Outline" transform="matrix(1.7126,0,0,1.7126,339.417,-831.558)">
                    <path d="M1521.7,1618.58L1701.63,1618.58L1708.81,1577.33C1709.68,1584.65 1711.8,1590.83 1714.86,1595.96C1719.09,1603.05 1724.64,1608.62 1731.46,1612.71C1737.53,1616.35 1744.42,1618.95 1752.19,1620.41C1758.87,1621.66 1765.65,1622.29 1772.55,1622.29C1778.84,1622.29 1785.34,1621.79 1792.05,1620.78C1801,1619.42 1807.09,1617.16 1810.62,1614.99L1817.15,1610.97L1818.29,1604.48C1819.43,1605.87 1820.66,1607.21 1821.98,1608.49C1826.32,1612.68 1831.59,1616.03 1837.88,1618.41C1843.65,1620.59 1850.11,1621.76 1857.28,1621.76C1865.23,1621.76 1872.46,1620.27 1879,1617.45C1885.71,1614.56 1891.41,1610.58 1896.15,1605.58C1900.81,1600.65 1904.47,1594.9 1907.06,1588.29C1909.59,1581.84 1910.88,1574.96 1910.88,1567.63C1910.88,1561.37 1909.54,1555.4 1906.86,1549.73C1904.4,1544.54 1901.06,1539.88 1896.82,1535.77C1892.5,1531.59 1887.3,1528.27 1881.17,1525.9C1875.44,1523.68 1869.08,1522.5 1862.05,1522.5C1854.1,1522.5 1846.87,1523.99 1840.33,1526.81C1833.72,1529.66 1828.03,1533.57 1823.23,1538.5L1804.68,1543.13L1803.52,1543.39L1807.43,1521.93C1807.43,1521.93 1833.5,1521.93 1833.5,1521.93L1846.85,1445.18L1819.67,1445.18L1827.91,1390.97L1732.99,1417.15L1728.05,1445.18C1728.05,1445.18 1708.41,1445.18 1708.41,1445.18L1705.9,1459.64C1700.98,1454.36 1694.78,1450.03 1687.22,1446.81C1680,1443.73 1671.21,1442 1660.8,1442C1652.91,1442 1645.47,1443.27 1638.48,1445.79L1638.52,1445.18L1464.04,1445.18L1463.72,1447.2C1454.74,1443.68 1446.01,1442 1437.57,1442C1423.44,1442 1410.52,1444.84 1398.78,1450.39C1387.05,1455.92 1377.02,1463.53 1368.66,1473.19C1360.54,1482.57 1354.18,1493.47 1349.65,1505.91C1345.19,1518.15 1342.92,1531.22 1342.92,1545.12C1342.92,1555.32 1344.53,1564.74 1347.63,1573.39C1350.61,1581.69 1354.9,1588.97 1360.47,1595.25L1325.19,1646.51L1337.15,1656.47C1342.37,1660.82 1348.38,1664.7 1355.23,1668.07C1361.65,1671.23 1368.53,1673.89 1375.86,1676.03C1383.05,1678.12 1390.48,1679.67 1398.17,1680.67C1405.71,1681.65 1413.11,1682.14 1420.36,1682.14C1451.06,1682.14 1475.16,1674.42 1493,1660.11C1505.19,1650.33 1514.91,1636.56 1521.7,1618.58ZM1372.22,1638.37C1376.36,1640.28 1380.77,1641.91 1385.42,1643.27C1390.94,1644.88 1396.66,1646.07 1402.56,1646.83C1408.61,1647.62 1414.55,1648.02 1420.36,1648.02C1441.92,1648.02 1459.12,1643.55 1471.65,1633.5C1484.1,1623.51 1491.66,1606.93 1495.71,1584.49C1495.71,1584.49 1514.17,1479.3 1514.17,1479.3C1514.17,1479.3 1493.19,1479.3 1493.19,1479.3L1490.81,1494.39L1466.31,1494.39L1461.24,1486.8C1458.93,1483.33 1455.82,1480.82 1451.92,1479.23C1446.98,1477.21 1442.21,1476.12 1437.57,1476.12C1428.75,1476.12 1420.67,1477.78 1413.35,1481.24C1406,1484.71 1399.7,1489.46 1394.47,1495.51C1389,1501.84 1384.76,1509.21 1381.71,1517.6C1378.58,1526.19 1377.05,1535.37 1377.05,1545.12C1377.05,1551.16 1377.91,1556.75 1379.75,1561.87C1381.38,1566.4 1383.76,1570.34 1386.96,1573.66C1390.17,1576.98 1394.25,1579.5 1399.09,1581.37C1404.65,1583.51 1411.13,1584.46 1418.51,1584.46C1421.26,1584.46 1423.86,1584.17 1426.33,1583.54C1428.85,1582.89 1431.12,1582.1 1433.12,1581.1C1435.07,1580.13 1436.8,1579.09 1438.29,1577.94C1439.6,1576.93 1440.69,1576 1441.5,1575.1L1441.8,1574.76C1440.67,1574.85 1439.53,1574.89 1438.37,1574.89C1431.21,1574.89 1425.3,1573.53 1420.53,1571.29C1415.12,1568.75 1411,1565.47 1407.95,1561.75C1404.76,1557.85 1402.53,1553.43 1401.29,1548.46C1400.3,1544.51 1399.86,1540.83 1399.86,1537.44C1399.86,1531.94 1400.75,1526.43 1402.59,1520.92C1404.46,1515.3 1407.22,1510.21 1410.84,1505.65C1414.66,1500.83 1419.33,1496.93 1424.85,1493.95C1430.61,1490.85 1437.3,1489.13 1444.99,1489.13C1456.5,1489.13 1465.41,1492.78 1472.1,1499C1479.2,1505.61 1483.23,1514.5 1483.23,1526.06C1483.23,1532.05 1482.25,1537.85 1480.29,1543.46C1478.28,1549.22 1475.44,1554.29 1471.83,1558.7C1468.34,1562.97 1464.15,1566.54 1459.23,1569.37L1475.7,1569.37C1475.7,1569.37 1470.54,1596.23 1470.54,1596.22C1469.73,1601.36 1468.22,1606.18 1466.03,1610.7C1463.51,1615.88 1459.93,1620.5 1455.19,1624.49C1450.87,1628.14 1445.58,1631.13 1439.23,1633.3C1433.58,1635.22 1426.68,1636.33 1418.51,1636.33C1410.06,1636.33 1400.81,1634.66 1390.81,1631.1C1387.14,1629.8 1383.66,1628.27 1380.37,1626.52L1372.22,1638.37ZM898.822,1496.22L914.966,1404.45L821.242,1404.45L810.484,1466.31C807.297,1465.17 803.983,1464.26 800.541,1463.57C795.867,1462.64 791.308,1462.18 786.868,1462.18C773.086,1462.18 760.298,1465.07 748.485,1470.75C736.872,1476.35 726.88,1483.88 718.493,1493.35C710.246,1502.65 703.757,1513.57 699.105,1526.15C694.535,1538.51 692.221,1551.65 692.221,1565.57C692.221,1575.77 693.722,1585.31 696.651,1594.2C699.789,1603.73 704.531,1612.02 710.806,1619.11C717.167,1626.3 724.973,1631.99 734.279,1636.11C743.249,1640.08 753.611,1642.21 765.419,1642.21C774.379,1642.21 782.502,1641.02 789.812,1638.76L873.745,1638.76L881.372,1595.41C881.737,1596.25 882.124,1597.07 882.527,1597.89C887.548,1608.04 894.359,1616.53 902.918,1623.38C911.194,1630 920.876,1635.01 932.021,1638.32C942.472,1641.43 953.49,1643 965.08,1643C979.553,1643 993.522,1640.88 1006.99,1636.66C1016.8,1633.58 1025.89,1628.94 1034.22,1622.69C1043.98,1630.23 1055.1,1635.6 1067.6,1638.77C1080.18,1641.97 1092.18,1643.53 1103.57,1643.53C1112.39,1643.53 1121.36,1642.52 1130.48,1640.47C1140.3,1638.26 1149.23,1634.59 1157.29,1629.52C1165.88,1624.1 1172.95,1617.05 1178.48,1608.34C1184.23,1599.29 1187.36,1588.34 1187.36,1575.36C1187.36,1566.44 1185.67,1558.69 1182.61,1552.06C1179.88,1546.15 1176.18,1540.92 1171.47,1536.39L1208.29,1494.13L1195.67,1482.91C1187.66,1475.79 1177.34,1470.12 1164.54,1466.23C1152.8,1462.65 1140.6,1460.86 1127.93,1460.86C1118.5,1460.86 1109.12,1462.11 1099.79,1464.62C1090.03,1467.25 1081.28,1471.23 1073.49,1476.49C1065.07,1482.19 1058.31,1489.43 1053.2,1498.21L1052.28,1499.86C1048.72,1493.37 1044.31,1487.64 1039.08,1482.65C1031.78,1475.69 1022.91,1470.26 1012.41,1466.49C1002.59,1462.97 991.5,1461.12 979.114,1461.12C963.888,1461.12 949.978,1463.75 937.359,1468.86C924.502,1474.06 913.475,1481.27 904.23,1490.41C902.34,1492.28 900.536,1494.21 898.822,1496.22ZM1075.46,1594.52C1077.69,1595.7 1080,1596.74 1082.38,1597.65C1090.57,1600.78 1098.18,1602.22 1105.16,1602.22C1111.84,1602.22 1117.02,1600.93 1120.86,1599.1C1129.55,1594.94 1133.61,1588.14 1133.61,1579.07C1133.61,1571.35 1130.24,1563.76 1120.27,1558.62C1116.73,1556.79 1112.24,1555.02 1106.76,1553.42L1106.71,1553.41C1101.46,1551.91 1096.81,1550.22 1092.72,1548.29C1089.55,1546.79 1086.81,1545.05 1084.56,1542.97C1082.88,1541.42 1081.58,1539.61 1080.67,1537.54C1079.68,1535.27 1079.32,1532.59 1079.32,1529.55C1079.32,1524.17 1080.35,1519.41 1082.71,1515.35C1085.19,1511.07 1088.49,1507.54 1092.6,1504.76C1097.35,1501.55 1102.72,1499.17 1108.67,1497.57C1115.06,1495.85 1121.48,1494.98 1127.93,1494.98C1137.16,1494.98 1146.05,1496.27 1154.61,1498.87C1155.75,1499.22 1156.87,1499.59 1157.95,1499.97C1157.95,1499.97 1150.89,1508.07 1150.89,1508.07C1149.96,1507.63 1148.99,1507.2 1148,1506.79C1140.48,1503.66 1133.08,1502.17 1125.81,1502.17C1119.44,1502.17 1114.32,1503.32 1110.34,1505.07C1100.91,1509.22 1096.84,1516.26 1096.84,1525.32C1096.84,1533.37 1100.31,1540.1 1108.76,1544.53C1111.29,1545.86 1115.64,1547.52 1121.91,1549.2L1122.11,1549.26C1127.79,1550.64 1132.8,1552.29 1137.31,1554.29C1141.04,1555.94 1144.28,1557.88 1146.97,1560.21C1148.98,1561.94 1150.54,1563.99 1151.63,1566.36C1152.81,1568.91 1153.24,1571.93 1153.24,1575.36C1153.24,1581.1 1152.22,1586.04 1149.68,1590.05C1146.91,1594.4 1143.39,1597.94 1139.1,1600.65C1134.26,1603.69 1128.89,1605.85 1123,1607.18C1116.41,1608.66 1109.94,1609.41 1103.57,1609.41C1094.84,1609.41 1085.65,1608.15 1075.99,1605.7C1073.3,1605.01 1070.71,1604.17 1068.21,1603.17L1075.46,1594.52ZM1027.47,1548.77C1027.81,1545.79 1027.99,1543.01 1027.99,1540.41C1027.99,1533.23 1026.91,1526.74 1024.59,1520.96C1022.45,1515.63 1019.46,1511.08 1015.54,1507.35C1011.54,1503.54 1006.64,1500.67 1000.89,1498.61C994.475,1496.31 987.206,1495.24 979.114,1495.24C968.566,1495.24 958.908,1496.94 950.167,1500.48C941.663,1503.93 934.331,1508.63 928.217,1514.68C922.158,1520.67 917.476,1527.75 914.133,1535.9C910.723,1544.21 909.055,1553.13 909.055,1562.65C909.055,1570.34 910.296,1577.07 913.113,1582.76C915.86,1588.32 919.552,1592.99 924.233,1596.73C929.198,1600.7 935.05,1603.63 941.736,1605.62C949.114,1607.81 956.898,1608.88 965.08,1608.88C976.028,1608.88 986.597,1607.29 996.784,1604.1C999.274,1603.32 1001.69,1602.38 1004.02,1601.27C1004.02,1601.27 993.376,1593.93 993.377,1593.93C991.552,1594.85 989.667,1595.65 987.722,1596.34C981.626,1598.5 975.402,1599.57 969.052,1599.57C966.103,1599.57 962.783,1599.29 959.097,1598.68C954.724,1597.95 950.648,1596.62 946.858,1594.73C942.458,1592.53 938.755,1589.62 935.709,1586.07C931.666,1581.35 929.218,1575.32 929.218,1567.68C929.218,1564.92 929.667,1562.51 930.359,1560.44L933.377,1551.38L926.791,1551.38L933.38,1529.42C934.317,1526.3 935.87,1522.9 938.212,1519.31C940.409,1515.94 943.228,1512.76 946.743,1509.83C950.065,1507.06 953.982,1504.66 958.549,1502.73C963.422,1500.66 968.94,1499.52 975.142,1499.52C985.639,1499.52 993.639,1502.53 999.524,1507.3C1006.9,1513.28 1010.74,1521.18 1010.74,1531.14L1010.74,1532.6C1010.74,1535.15 1010.33,1537.52 1009.6,1539.72L1006.58,1548.77L1027.47,1548.77ZM826.575,1604.64L845.103,1604.64L874.319,1438.57C874.319,1438.57 849.941,1438.57 849.941,1438.57L837.23,1511.66L813.413,1511.66L808.325,1504.31C807.734,1503.46 806.892,1502.72 805.907,1502C804.33,1500.85 802.589,1499.88 800.696,1499.09C798.535,1498.19 796.251,1497.51 793.85,1497.03C791.462,1496.55 789.136,1496.3 786.868,1496.3C778.406,1496.3 770.54,1498.01 763.287,1501.5C755.835,1505.09 749.409,1509.9 744.027,1515.98C738.504,1522.21 734.224,1529.56 731.108,1537.99C727.911,1546.63 726.341,1555.83 726.341,1565.57C726.341,1571.96 727.223,1577.95 729.06,1583.53C730.689,1588.48 733.097,1592.81 736.355,1596.49C739.526,1600.08 743.46,1602.86 748.1,1604.91C753.077,1607.12 758.867,1608.09 765.419,1608.09C772.515,1608.09 778.724,1607.01 783.982,1604.54C788.564,1602.39 792.238,1599.81 794.778,1596.5L797.16,1593.39C794.314,1593.98 791.326,1594.28 788.192,1594.28C775.733,1594.28 766.504,1590.05 759.955,1583.02C753.379,1575.97 749.948,1567.36 749.948,1557.09C749.948,1550.87 750.902,1545.11 752.717,1539.8C754.655,1534.12 757.512,1529.07 761.251,1524.64C765.223,1519.93 770.002,1516.25 775.593,1513.61C781.105,1510.99 787.32,1509.58 794.282,1509.58C806.446,1509.58 815.559,1513.68 822.121,1520.56C828.716,1527.48 832.262,1536.15 832.262,1546.77C832.262,1552.83 831.259,1558.62 829.282,1564.15C827.245,1569.86 824.362,1574.87 820.694,1579.22C816.921,1583.69 812.472,1587.22 807.362,1589.82L829.223,1589.82L826.575,1604.64ZM1788.4,1577.38L1786.7,1587.07C1781.84,1587.8 1777.12,1588.17 1772.55,1588.17C1767.78,1588.17 1763.09,1587.74 1758.48,1586.87C1754.94,1586.21 1751.78,1585.11 1749.02,1583.45C1747.01,1582.25 1745.41,1580.58 1744.17,1578.49C1742.79,1576.18 1742.47,1573.12 1742.47,1569.48C1742.47,1568.07 1742.58,1566.47 1742.77,1564.68C1742.99,1562.62 1743.25,1560.7 1743.54,1558.92C1743.54,1558.89 1756.43,1487.81 1756.43,1487.81L1735.63,1487.81C1735.63,1487.81 1737.11,1479.3 1737.11,1479.3C1737.11,1479.3 1756.67,1479.3 1756.67,1479.3L1762.85,1444.31C1762.85,1444.31 1786.27,1437.85 1786.27,1437.85L1779.97,1479.3L1806.28,1479.3C1806.28,1479.3 1804.8,1487.81 1804.8,1487.81C1804.8,1487.81 1778.97,1487.81 1778.97,1487.81L1769.24,1541.13C1768.96,1542.81 1768.76,1544.63 1768.63,1546.7C1768.51,1548.55 1768.46,1550.06 1768.46,1551.21C1768.46,1562.89 1773.41,1569.77 1779.25,1573.58C1781.73,1575.2 1784.76,1576.54 1788.4,1577.38ZM1857.28,1587.64C1854.57,1587.64 1852.12,1587.31 1849.94,1586.49C1848.29,1585.87 1846.85,1585.07 1845.71,1583.97C1844.58,1582.87 1843.68,1581.64 1843.06,1580.26C1842.55,1579.11 1842.3,1577.9 1842.3,1576.63C1842.3,1573.72 1842.77,1570.99 1843.77,1568.43C1844.68,1566.1 1845.97,1564.05 1847.66,1562.32C1849.39,1560.54 1851.46,1559.17 1853.84,1558.14C1856.31,1557.08 1859.05,1556.62 1862.05,1556.62C1864.55,1556.62 1866.84,1556.94 1868.88,1557.73C1870.51,1558.36 1871.94,1559.18 1873.09,1560.29C1874.32,1561.49 1875.31,1562.83 1876.02,1564.34C1876.52,1565.38 1876.76,1566.48 1876.76,1567.63C1876.76,1570.54 1876.3,1573.28 1875.29,1575.83C1874.36,1578.23 1873.07,1580.33 1871.38,1582.11C1869.76,1583.82 1867.78,1585.13 1865.49,1586.12C1863.02,1587.19 1860.28,1587.64 1857.28,1587.64ZM1633.57,1489.9C1636.33,1486.17 1640.24,1483 1645.11,1480.18C1649.85,1477.44 1655.09,1476.12 1660.8,1476.12C1665.92,1476.12 1670.29,1476.68 1673.84,1478.2C1676.78,1479.45 1679.25,1481.03 1681.13,1483.1C1682.86,1485.01 1684.1,1487.21 1684.86,1489.7C1685.87,1493.05 1686.37,1496.52 1686.37,1500.11C1686.37,1502.46 1686.26,1504.94 1686.04,1507.52C1685.82,1510.02 1685.5,1512.41 1685.08,1514.7L1685.06,1514.81C1685.04,1514.92 1672.93,1584.46 1672.93,1584.46C1672.93,1584.46 1648.02,1584.46 1648.02,1584.46C1648.02,1584.46 1657.42,1530.93 1657.42,1530.93C1657.92,1528.57 1658.24,1526.14 1658.37,1523.64C1658.48,1521.6 1658.53,1519.93 1658.53,1518.64C1658.53,1510.43 1655.88,1503.9 1651.36,1498.76C1647.34,1494.19 1641.57,1490.79 1633.57,1489.9ZM1601.33,1479.3L1598.76,1497.31L1609.28,1497.31C1608.01,1498.42 1606.78,1499.68 1605.59,1501.08C1600.88,1506.59 1597.17,1514.41 1595.28,1524.89C1595.29,1524.89 1584.57,1584.46 1584.57,1584.46L1559.82,1584.46C1559.82,1584.46 1575.87,1492.73 1575.87,1492.73C1576.6,1489.22 1577.38,1484.74 1578.2,1479.3L1601.33,1479.3ZM1039.52,1584.29L1040.69,1582.89L1037.5,1582.89L1039.52,1584.29ZM784.068,1557.09C784.068,1554.84 784.35,1552.75 785.007,1550.82C785.539,1549.26 786.302,1547.86 787.329,1546.64C788.123,1545.7 789.081,1544.97 790.199,1544.44C791.396,1543.88 792.771,1543.7 794.282,1543.7C795.571,1543.7 796.731,1543.38 797.426,1544.11C798.072,1544.78 798.142,1545.73 798.142,1546.77C798.142,1548.83 797.821,1550.8 797.149,1552.68C796.539,1554.39 795.715,1555.91 794.616,1557.21C793.799,1558.18 792.838,1558.95 791.718,1559.49C790.676,1560 789.488,1560.16 788.192,1560.16C786.84,1560.16 785.628,1560.52 784.918,1559.76C784.255,1559.05 784.068,1558.13 784.068,1557.09ZM1434.39,1540.17C1434.14,1539.19 1433.98,1538.28 1433.98,1537.44C1433.98,1535.53 1434.32,1533.62 1434.95,1531.72C1435.55,1529.93 1436.41,1528.31 1437.56,1526.87C1438.5,1525.68 1439.66,1524.73 1441.03,1524C1442.15,1523.39 1443.49,1523.26 1444.99,1523.26C1446.56,1523.26 1447.94,1523.13 1448.86,1523.98C1449.36,1524.45 1449.11,1525.23 1449.11,1526.06C1449.11,1528.18 1448.77,1530.23 1448.08,1532.22C1447.44,1534.05 1446.57,1535.69 1445.42,1537.1C1444.43,1538.3 1443.22,1539.27 1441.8,1540.03C1440.78,1540.58 1439.62,1540.77 1438.37,1540.77C1437.04,1540.77 1435.9,1540.81 1435.01,1540.4C1434.79,1540.29 1434.53,1540.31 1434.39,1540.17Z" style="fill:rgb(255,0,0);"/>
                </g>
                <g id="designt-text-fill" serif:id="designt text fill" transform="matrix(1.7126,0,0,1.7126,339.417,-831.558)">
                    <path d="M1454.25,1586.43C1452.84,1588.02 1450.99,1589.7 1448.69,1591.46C1446.4,1593.23 1443.75,1594.86 1440.75,1596.36C1437.75,1597.86 1434.35,1599.1 1430.55,1600.07C1426.76,1601.04 1422.74,1601.52 1418.51,1601.52C1408.8,1601.52 1400.28,1600.11 1392.95,1597.29C1385.63,1594.46 1379.54,1590.53 1374.68,1585.5C1369.83,1580.47 1366.16,1574.51 1363.69,1567.63C1361.22,1560.74 1359.98,1553.24 1359.98,1545.12C1359.98,1533.29 1361.88,1522.17 1365.68,1511.76C1369.47,1501.34 1374.77,1492.2 1381.57,1484.35C1388.36,1476.49 1396.53,1470.31 1406.06,1465.81C1415.59,1461.31 1426.1,1459.06 1437.57,1459.06C1444.28,1459.06 1451.21,1460.52 1458.36,1463.43C1465.51,1466.34 1471.2,1470.98 1475.44,1477.33L1476.23,1477.33L1478.62,1462.24L1534.49,1462.24L1512.51,1587.49C1507.57,1614.85 1497.51,1634.62 1482.32,1646.81C1467.14,1658.99 1446.49,1665.08 1420.36,1665.08C1413.83,1665.08 1407.16,1664.63 1400.37,1663.75C1393.57,1662.87 1386.99,1661.5 1380.64,1659.65C1374.28,1657.79 1368.33,1655.5 1362.77,1652.76C1357.2,1650.03 1352.31,1646.89 1348.07,1643.36L1376.14,1602.58C1381.79,1608.06 1388.58,1612.2 1396.53,1615.03C1404.47,1617.85 1411.8,1619.27 1418.51,1619.27C1424.51,1619.27 1429.58,1618.56 1433.73,1617.15C1437.88,1615.74 1441.37,1613.84 1444.19,1611.45C1447.02,1609.07 1449.18,1606.33 1450.68,1603.25C1452.18,1600.15 1453.19,1596.85 1453.72,1593.32L1455.05,1586.43L1454.25,1586.43ZM1072.59,1571.39C1077.18,1575.98 1082.47,1579.42 1088.48,1581.72C1094.48,1584.01 1100.04,1585.16 1105.16,1585.16C1108.69,1585.16 1111.47,1584.68 1113.5,1583.7C1115.53,1582.73 1116.55,1581.19 1116.55,1579.07C1116.55,1576.95 1115.18,1575.19 1112.44,1573.78C1109.7,1572.36 1106.22,1571.04 1101.98,1569.8C1095.8,1568.04 1090.29,1566.01 1085.43,1563.71C1080.58,1561.42 1076.43,1558.68 1072.99,1555.5C1069.54,1552.33 1066.9,1548.62 1065.04,1544.38C1063.19,1540.14 1062.26,1535.2 1062.26,1529.55C1062.26,1520.9 1064.16,1513.31 1067.95,1506.78C1071.75,1500.25 1076.78,1494.86 1083.05,1490.63C1089.32,1486.39 1096.38,1483.21 1104.23,1481.09C1112.09,1478.98 1119.99,1477.92 1127.93,1477.92C1138.88,1477.92 1149.43,1479.46 1159.58,1482.55C1169.73,1485.64 1177.98,1490.01 1184.34,1495.66L1153.88,1530.61C1150.88,1527.43 1146.73,1524.74 1141.44,1522.54C1136.14,1520.33 1130.93,1519.23 1125.81,1519.23C1122.28,1519.23 1119.41,1519.71 1117.21,1520.68C1115,1521.65 1113.9,1523.2 1113.9,1525.32C1113.9,1527.08 1114.83,1528.45 1116.68,1529.42C1118.53,1530.39 1121.75,1531.5 1126.34,1532.73C1132.88,1534.32 1138.83,1536.31 1144.22,1538.69C1149.6,1541.07 1154.24,1543.94 1158.12,1547.3C1162,1550.65 1165.01,1554.62 1167.12,1559.21C1169.24,1563.8 1170.3,1569.18 1170.3,1575.36C1170.3,1584.72 1168.23,1592.66 1164.08,1599.2C1159.93,1605.73 1154.63,1611.02 1148.19,1615.08C1141.75,1619.14 1134.6,1622.06 1126.74,1623.82C1118.88,1625.59 1111.16,1626.47 1103.57,1626.47C1093.51,1626.47 1082.92,1625.06 1071.8,1622.23C1060.67,1619.41 1050.88,1614.47 1042.4,1607.4L1072.59,1571.39ZM946.543,1565.83C946.367,1566.36 946.279,1566.98 946.279,1567.68C946.279,1570.69 947.073,1573.11 948.662,1574.97C950.251,1576.82 952.193,1578.32 954.487,1579.47C956.782,1580.62 959.254,1581.41 961.902,1581.85C964.55,1582.29 966.933,1582.51 969.052,1582.51C973.465,1582.51 977.79,1581.76 982.027,1580.26C986.264,1578.76 990.059,1576.42 993.413,1573.25L1033.4,1600.79C1024.22,1610.14 1013.72,1616.67 1001.89,1620.38C990.059,1624.09 977.79,1625.94 965.08,1625.94C955.194,1625.94 945.793,1624.62 936.878,1621.97C927.963,1619.32 920.196,1615.35 913.576,1610.05C906.956,1604.76 901.704,1598.18 897.82,1590.33C893.936,1582.47 891.994,1573.25 891.994,1562.65C891.994,1550.83 894.113,1539.75 898.35,1529.42C902.586,1519.09 908.544,1510.13 916.224,1502.54C923.903,1494.95 933.083,1488.99 943.763,1484.67C954.443,1480.34 966.227,1478.18 979.114,1478.18C989.353,1478.18 998.533,1479.64 1006.65,1482.55C1014.77,1485.46 1021.66,1489.61 1027.31,1495C1032.96,1500.38 1037.33,1506.91 1040.42,1514.59C1043.51,1522.27 1045.05,1530.88 1045.05,1540.41C1045.05,1544.29 1044.74,1548.53 1044.12,1553.12C1043.51,1557.71 1042.58,1561.95 1041.34,1565.83L946.543,1565.83ZM859.424,1621.7L806.199,1621.7L808.847,1606.88L808.317,1606.88C804.257,1612.17 798.563,1616.54 791.237,1619.98C783.911,1623.42 775.305,1625.15 765.419,1625.15C756.239,1625.15 748.163,1623.6 741.19,1620.51C734.217,1617.42 728.347,1613.19 723.58,1607.8C718.814,1602.42 715.239,1596.11 712.856,1588.87C710.473,1581.63 709.281,1573.86 709.281,1565.57C709.281,1553.74 711.223,1542.57 715.107,1532.07C718.991,1521.57 724.375,1512.43 731.26,1504.66C738.145,1496.89 746.353,1490.72 755.886,1486.13C765.419,1481.54 775.746,1479.24 786.868,1479.24C790.222,1479.24 793.665,1479.59 797.195,1480.3C800.726,1481.01 804.08,1482.02 807.258,1483.35C810.435,1484.67 813.348,1486.3 815.996,1488.24C818.644,1490.19 820.763,1492.3 822.351,1494.6L822.881,1494.6L835.592,1421.51L894.642,1421.51L859.424,1621.7ZM1799.82,1462.24L1826.57,1462.24L1819.15,1504.87L1793.2,1504.87L1786.05,1544.06C1785.87,1545.12 1785.74,1546.36 1785.65,1547.77C1785.57,1549.18 1785.52,1550.33 1785.52,1551.21C1785.52,1555.27 1786.54,1557.96 1788.57,1559.29C1790.6,1560.61 1793.47,1561.27 1797.17,1561.27C1799.29,1561.27 1801.41,1561.1 1803.53,1560.74C1805.64,1560.39 1807.41,1560.04 1808.82,1559.68L1801.67,1600.46C1799.38,1601.88 1795.32,1603.02 1789.49,1603.91C1783.67,1604.79 1778.02,1605.23 1772.55,1605.23C1766.72,1605.23 1760.98,1604.7 1755.33,1603.64C1749.68,1602.58 1744.65,1600.73 1740.24,1598.08C1735.83,1595.43 1732.25,1591.81 1729.52,1587.22C1726.78,1582.63 1725.41,1576.72 1725.41,1569.48C1725.41,1567.54 1725.54,1565.33 1725.81,1562.86C1726.07,1560.39 1726.38,1558.1 1726.74,1555.98L1736,1504.87L1715.35,1504.87L1722.76,1462.24L1742.36,1462.24L1747.92,1430.73L1807.09,1414.41L1799.82,1462.24ZM1857.28,1604.7C1852.34,1604.7 1847.88,1603.95 1843.91,1602.45C1839.94,1600.95 1836.58,1598.88 1833.85,1596.23C1831.11,1593.58 1828.99,1590.58 1827.49,1587.22C1825.99,1583.87 1825.24,1580.34 1825.24,1576.63C1825.24,1571.51 1826.12,1566.7 1827.89,1562.2C1829.65,1557.7 1832.17,1553.77 1835.44,1550.42C1838.7,1547.06 1842.59,1544.41 1847.09,1542.47C1851.59,1540.53 1856.58,1539.56 1862.05,1539.56C1866.82,1539.56 1871.14,1540.31 1875.02,1541.81C1878.91,1543.31 1882.22,1545.39 1884.95,1548.03C1887.69,1550.68 1889.85,1553.68 1891.44,1557.04C1893.03,1560.39 1893.82,1563.92 1893.82,1567.63C1893.82,1572.75 1892.94,1577.56 1891.18,1582.06C1889.41,1586.56 1886.94,1590.49 1883.76,1593.84C1880.58,1597.2 1876.75,1599.85 1872.24,1601.79C1867.74,1603.73 1862.75,1604.7 1857.28,1604.7ZM1598.84,1601.52L1539.52,1601.52L1559.12,1489.51C1559.82,1486.16 1560.57,1481.83 1561.37,1476.54C1562.16,1471.24 1562.73,1466.48 1563.09,1462.24L1620.28,1462.24C1620.11,1464.89 1619.84,1467.93 1619.49,1471.37C1619.14,1474.82 1618.78,1477.77 1618.43,1480.24L1619.49,1480.24C1623.55,1474.6 1629.24,1469.65 1636.57,1465.41C1643.9,1461.18 1651.97,1459.06 1660.8,1459.06C1668.57,1459.06 1675.14,1460.21 1680.53,1462.5C1685.91,1464.8 1690.32,1467.84 1693.77,1471.64C1697.21,1475.43 1699.68,1479.8 1701.18,1484.75C1702.68,1489.69 1703.43,1494.81 1703.43,1500.11C1703.43,1502.93 1703.3,1505.89 1703.04,1508.98C1702.77,1512.07 1702.37,1515.02 1701.84,1517.85L1687.28,1601.52L1627.7,1601.52L1640.67,1527.64C1641.03,1526.06 1641.25,1524.42 1641.34,1522.75C1641.42,1521.07 1641.47,1519.7 1641.47,1518.64C1641.47,1515.11 1640.5,1512.24 1638.56,1510.04C1636.61,1507.83 1633.52,1506.73 1629.29,1506.73C1625.23,1506.73 1621.65,1508.53 1618.56,1512.15C1615.47,1515.77 1613.31,1521.02 1612.08,1527.91L1598.84,1601.52ZM767.008,1557.09C767.008,1562.74 768.817,1567.51 772.436,1571.39C776.055,1575.28 781.307,1577.22 788.192,1577.22C792.252,1577.22 795.915,1576.42 799.181,1574.83C802.447,1573.25 805.272,1571.04 807.655,1568.21C810.038,1565.39 811.892,1562.12 813.216,1558.42C814.54,1554.71 815.202,1550.83 815.202,1546.77C815.202,1540.94 813.392,1536.13 809.773,1532.33C806.154,1528.54 800.991,1526.64 794.282,1526.64C790.046,1526.64 786.25,1527.43 782.896,1529.02C779.542,1530.61 776.673,1532.82 774.29,1535.64C771.907,1538.47 770.097,1541.69 768.862,1545.31C767.626,1548.93 767.008,1552.86 767.008,1557.09ZM1416.92,1537.44C1416.92,1539.56 1417.23,1541.86 1417.84,1544.33C1418.46,1546.8 1419.57,1549.01 1421.15,1550.95C1422.74,1552.89 1424.95,1554.52 1427.77,1555.85C1430.6,1557.17 1434.13,1557.83 1438.37,1557.83C1442.6,1557.83 1446.44,1556.9 1449.88,1555.05C1453.33,1553.2 1456.24,1550.81 1458.62,1547.9C1461.01,1544.99 1462.86,1541.63 1464.18,1537.84C1465.51,1534.04 1466.17,1530.12 1466.17,1526.06C1466.17,1519.88 1464.27,1515.02 1460.48,1511.49C1456.68,1507.96 1451.52,1506.19 1444.99,1506.19C1440.4,1506.19 1436.38,1507.12 1432.94,1508.98C1429.5,1510.83 1426.58,1513.26 1424.2,1516.26C1421.82,1519.26 1420.01,1522.61 1418.77,1526.32C1417.53,1530.03 1416.92,1533.73 1416.92,1537.44ZM993.413,1534.32C993.59,1533.79 993.678,1533.22 993.678,1532.6L993.678,1531.14C993.678,1526.73 992.045,1523.2 988.779,1520.55C985.513,1517.9 980.968,1516.58 975.142,1516.58C971.435,1516.58 968.125,1517.2 965.212,1518.43C962.299,1519.67 959.784,1521.17 957.665,1522.93C955.547,1524.7 953.825,1526.6 952.501,1528.63C951.177,1530.66 950.251,1532.55 949.721,1534.32L993.413,1534.32Z" style="fill:white;fill-rule:nonzero;"/>
                </g>
            </g>
            <g id="Manicen" transform="matrix(0.783498,0,0,0.805501,-470.021,521.997)">
                <g>
                    <g transform="matrix(1.34704,0,0,1.33281,1503.24,776.056)">
                        <path d="M1241.51,1640.08L1149.53,1640.08C1152.98,1624.54 1190.02,1609.43 1191.46,1595.24C1213.89,1373.72 1169.34,1400.41 1127.17,1225.25C1278.35,1373.39 1398.63,1321.01 1452.79,1146.74C1354.88,1398.94 1331.18,1488.64 1368.7,1613.54C1373.04,1627.96 1408.16,1674.48 1409.9,1678.32L1323.4,1640.08C1323.4,1640.08 1309.95,1540.71 1305.96,1511.12C1295.97,1437.06 1241.51,1444.26 1241.51,1444.26L1241.51,1640.08Z" style="fill:white;"/>
                    </g>
                    <g transform="matrix(-1.16631,-0.666851,-0.673972,1.15399,5605.86,1846.51)">
                        <path d="M1204.28,1450.75C1210.36,1448.27 1215.95,1448.15 1221.27,1449.04C1225.23,1449.7 1228.84,1450.93 1232.08,1452.11C1232.98,1452.44 1233.82,1452.8 1234.63,1453.15C1235.45,1453.5 1236.19,1453.89 1236.94,1454.19C1238.42,1454.77 1239.64,1455.4 1241.02,1455.25C1243.36,1455 1245.58,1453.97 1248.27,1450.75C1247.7,1454.21 1246.68,1456.36 1245.33,1458.08C1244.41,1459.25 1243.27,1459.88 1242.07,1460.46C1240.37,1461.3 1238.49,1461.41 1236.39,1461.3C1234.61,1461.21 1232.7,1460.78 1230.72,1460.05C1229.17,1459.49 1227.61,1458.69 1225.99,1457.84C1223.41,1456.49 1220.79,1454.93 1217.82,1453.67C1213.78,1451.94 1209.53,1450.55 1204.28,1450.75Z"/>
                    </g>
                    <g transform="matrix(1.34704,0,0,1.33281,1467.18,755.476)">
                        <path d="M1098.81,1241.16L1122.76,1216.62L1189.76,1045.65L1149.59,1065.62C1149.55,1065.54 1149.51,1065.46 1149.46,1065.38L1104.32,990.029C1104.18,989.793 1104.02,989.581 1103.83,989.392C1124.69,969.122 1159.41,936.907 1189.51,926.079C1227.3,912.487 1334.37,921.88 1334.37,921.88L1336.49,922.709C1334.66,925.543 1333.06,928.576 1331.7,931.793C1325.65,946.401 1325.96,962.051 1331.37,975.528C1336.93,989.36 1347.89,1000.84 1362.63,1006.8C1377.5,1012.5 1393.37,1011.58 1406.87,1005.22C1420.05,999.02 1430.94,987.708 1436.45,972.843C1437.64,969.561 1438.52,966.242 1439.1,962.923L1440.94,963.642C1440.94,963.642 1526.01,1029.55 1544.5,1065.2C1559.23,1093.6 1562.82,1140.82 1564.35,1169.87C1564.09,1169.88 1563.82,1169.93 1563.56,1170L1479.24,1194.62C1479.15,1194.65 1479.07,1194.68 1478.98,1194.71L1463.07,1152.76C1447.7,1178.26 1404.95,1312.88 1400.58,1329.91L1407.55,1345.4C1372.53,1392.07 1193.83,1317.19 1098.81,1241.16ZM1564.7,1176.88C1564.91,1181.25 1565.09,1185 1565.27,1187.95C1565.58,1192.88 1486.24,1213.85 1486.24,1213.85L1481.44,1201.19L1564.7,1176.88ZM1098.81,994.299L1143.38,1068.71L1131.26,1074.73C1131.26,1074.73 1087.29,1005.44 1090.87,1002.03C1093.01,999.988 1095.68,997.356 1098.81,994.299ZM1332.97,944.67C1333.72,965.831 1346.78,985.566 1367.73,993.78C1388.37,1001.87 1410.98,996.554 1425.92,982.047C1420.27,989.822 1412.71,995.741 1404.25,999.458C1392.19,1004.76 1378.23,1005.54 1365.17,1000.32C1352.01,995.318 1342.24,985.281 1336.95,973.189C1333.12,964.417 1331.62,954.563 1332.97,944.67Z"/>
                    </g>
                    <g transform="matrix(1.34704,0,0,1.33281,1506.6,737.03)">
                        <path d="M1098.81,1241.16L1122.76,1216.62L1189.76,1045.65L1149.59,1065.62C1149.55,1065.54 1149.51,1065.46 1149.46,1065.38L1104.32,990.029C1104.18,989.793 1104.02,989.581 1103.83,989.392C1124.69,969.122 1159.41,936.907 1189.51,926.079C1227.3,912.487 1334.37,921.88 1334.37,921.88L1336.49,922.709C1334.66,925.543 1333.06,928.576 1331.7,931.793C1325.65,946.401 1325.96,962.051 1331.37,975.528C1336.93,989.36 1347.89,1000.84 1362.63,1006.8C1377.5,1012.5 1393.37,1011.58 1406.87,1005.22C1420.05,999.02 1430.94,987.708 1436.45,972.843C1437.64,969.561 1438.52,966.242 1439.1,962.923L1440.94,963.642C1440.94,963.642 1526.01,1029.55 1544.5,1065.2C1559.23,1093.6 1562.82,1140.82 1564.35,1169.87C1564.09,1169.88 1563.82,1169.93 1563.56,1170L1479.24,1194.62C1479.15,1194.65 1479.07,1194.68 1478.98,1194.71L1463.07,1152.76C1447.7,1178.26 1404.95,1312.88 1400.58,1329.91L1407.55,1345.4C1372.53,1392.07 1193.83,1317.19 1098.81,1241.16ZM1564.7,1176.88C1564.91,1181.25 1565.09,1185 1565.27,1187.95C1565.58,1192.88 1486.24,1213.85 1486.24,1213.85L1481.44,1201.19L1564.7,1176.88ZM1098.81,994.299L1143.38,1068.71L1131.26,1074.73C1131.26,1074.73 1087.29,1005.44 1090.87,1002.03C1093.01,999.988 1095.68,997.356 1098.81,994.299ZM1332.97,944.67C1333.72,965.831 1346.78,985.566 1367.73,993.78C1388.37,1001.87 1410.98,996.554 1425.92,982.047C1420.27,989.822 1412.71,995.741 1404.25,999.458C1392.19,1004.76 1378.23,1005.54 1365.17,1000.32C1352.01,995.318 1342.24,985.281 1336.95,973.189C1333.12,964.417 1331.62,954.563 1332.97,944.67Z" style="fill:white;"/>
                    </g>
                    <g transform="matrix(1.44119,0,0,1.42596,1424.69,673.329)">
                        <path d="M1377.15,952.702C1403.16,952.702 1427.03,947.481 1448.86,937.479C1470.99,927.341 1489.77,913.333 1505.3,895.592C1520.14,878.652 1531.73,858.885 1539.82,836.138C1547.48,814.605 1551.45,791.491 1551.45,766.751C1551.45,746.229 1547.44,726.516 1539.41,707.614C1531.55,689.089 1520.49,672.677 1506.24,658.386C1492.12,644.235 1475.18,632.815 1455.23,624.429C1435.68,616.214 1414.49,611.926 1391.6,611.926C1364.58,611.926 1340.42,617.322 1318.99,627.357C1297.75,637.299 1279.29,650.969 1263.59,668.366C1248.14,685.494 1236.21,705.49 1228.03,728.49C1220.37,750.023 1216.4,773.137 1216.4,797.877C1216.4,818.399 1220.41,838.111 1228.44,857.013C1236.18,875.261 1246.86,891.408 1260.42,905.485C1274.33,919.932 1291.34,931.637 1311.71,940.199C1330.97,948.288 1352.73,952.702 1377.15,952.702ZM1377.15,892.227C1361.49,892.227 1347.49,889.633 1335.14,884.445C1322.8,879.258 1312.41,872.287 1303.98,863.533C1295.54,854.779 1288.92,844.728 1284.1,833.38C1279.28,822.032 1276.88,810.197 1276.88,797.877C1276.88,780.369 1279.59,763.995 1285.01,748.756C1290.42,733.518 1298.25,720.224 1308.49,708.876C1318.73,697.529 1330.78,688.612 1344.63,682.128C1358.48,675.643 1374.14,672.401 1391.6,672.401C1406.06,672.401 1419.46,674.995 1431.8,680.182C1444.15,685.37 1454.69,692.341 1463.42,701.095C1472.15,709.849 1478.93,719.9 1483.75,731.248C1488.56,742.596 1490.97,754.43 1490.97,766.751C1490.97,784.259 1488.26,800.633 1482.84,815.871C1477.42,831.11 1469.74,844.403 1459.81,855.751C1449.87,867.099 1437.82,876.015 1423.67,882.5C1409.52,888.985 1394.01,892.227 1377.15,892.227Z"/>
                    </g>
                    <g transform="matrix(1.44119,0,0,1.42596,1403.61,630.211)">
                        <path d="M1377.15,952.702C1403.16,952.702 1427.03,947.481 1448.86,937.479C1470.99,927.341 1489.77,913.333 1505.3,895.592C1520.14,878.652 1531.73,858.885 1539.82,836.138C1547.48,814.605 1551.45,791.491 1551.45,766.751C1551.45,746.229 1547.44,726.516 1539.41,707.614C1531.55,689.089 1520.49,672.677 1506.24,658.386C1492.12,644.235 1475.18,632.815 1455.23,624.429C1435.68,616.214 1414.49,611.926 1391.6,611.926C1364.58,611.926 1340.42,617.322 1318.99,627.357C1297.75,637.299 1279.29,650.969 1263.59,668.366C1248.14,685.494 1236.21,705.49 1228.03,728.49C1220.37,750.023 1216.4,773.137 1216.4,797.877C1216.4,818.399 1220.41,838.111 1228.44,857.013C1236.18,875.261 1246.86,891.408 1260.42,905.485C1274.33,919.932 1291.34,931.637 1311.71,940.199C1330.97,948.288 1352.73,952.702 1377.15,952.702ZM1377.15,892.227C1361.49,892.227 1347.49,889.633 1335.14,884.445C1322.8,879.258 1312.41,872.287 1303.98,863.533C1295.54,854.779 1288.92,844.728 1284.1,833.38C1279.28,822.032 1276.88,810.197 1276.88,797.877C1276.88,780.369 1279.59,763.995 1285.01,748.756C1290.42,733.518 1298.25,720.224 1308.49,708.876C1318.73,697.529 1330.78,688.612 1344.63,682.128C1358.48,675.643 1374.14,672.401 1391.6,672.401C1406.06,672.401 1419.46,674.995 1431.8,680.182C1444.15,685.37 1454.69,692.341 1463.42,701.095C1472.15,709.849 1478.93,719.9 1483.75,731.248C1488.56,742.596 1490.97,754.43 1490.97,766.751C1490.97,784.259 1488.26,800.633 1482.84,815.871C1477.42,831.11 1469.74,844.403 1459.81,855.751C1449.87,867.099 1437.82,876.015 1423.67,882.5C1409.52,888.985 1394.01,892.227 1377.15,892.227Z" style="fill:white;"/>
                    </g>
                    <g transform="matrix(2.87084,0,0,3.05845,-3665.69,-2570.56)">
                        <path d="M2457.13,1462.52C2449.27,1462.52 2442.24,1461.31 2436.05,1458.89C2429.85,1456.48 2424.63,1453.23 2420.4,1449.14C2416.17,1445.06 2412.84,1440.38 2410.42,1435.09C2408,1429.79 2406.8,1424.28 2406.8,1418.53C2406.8,1410.37 2408.16,1402.74 2410.88,1395.63C2413.6,1388.53 2417.53,1382.33 2422.67,1377.04C2427.81,1371.75 2433.85,1367.59 2440.81,1364.57C2447.76,1361.54 2455.62,1360.03 2464.39,1360.03C2471.64,1360.03 2478.37,1361.24 2484.57,1363.66C2490.77,1366.08 2496.06,1369.33 2500.44,1373.41C2504.83,1377.49 2508.23,1382.18 2510.65,1387.47C2513.07,1392.76 2514.27,1398.28 2514.27,1404.02C2514.27,1412.18 2512.91,1419.82 2510.19,1426.92C2507.47,1434.03 2503.62,1440.22 2498.63,1445.52C2493.64,1450.81 2487.59,1454.96 2480.49,1457.99C2473.38,1461.01 2465.6,1462.52 2457.13,1462.52Z" style="fill:rgb(255,0,0);fill-rule:nonzero;"/>
                    </g>
                </g>
            </g>
        </g>
    </g>
</svg>
