<?xml version="1.0" encoding="UTF-8" standalone="no"?>
<!DOCTYPE svg PUBLIC "-//W3C//DTD SVG 1.1//EN" "http://www.w3.org/Graphics/SVG/1.1/DTD/svg11.dtd">
<svg width="100%" height="100%" viewBox="0 0 131 31" version="1.1" xmlns="http://www.w3.org/2000/svg" xmlns:xlink="http://www.w3.org/1999/xlink" xml:space="preserve" xmlns:serif="http://www.serif.com/" style="fill-rule:evenodd;clip-rule:evenodd;stroke-linejoin:round;stroke-miterlimit:2;">
    <g transform="matrix(1,0,0,1,-16,-16)">
        <g transform="matrix(0.0421261,0,0,0.0421261,-5.08179,-45.4907)">
            <g id="GEILdesignt-Logo" serif:id="GEILdesignt Logo">
                <g id="I-Broken" transform="matrix(1.08093,0,0,1.08093,-171.987,69.9413)">
                    <path d="M2496.4,1844.2L2223.26,1947.85L2234.4,1917.81L2312.55,1876.7L2250.37,1876.7L2312.55,1812.83L2282.23,1788.89L2468.92,1285.69L2825.78,1285.69L2738.28,1387.48L2765.75,1387.48L2657.57,1442.21L2738.28,1442.21L2647.29,1587.92C2599.84,1561.44 2558.45,1638.08 2604.85,1663.97L2496.4,1844.2Z" style="fill:rgb(255,0,0);fill-rule:nonzero;"/>
                </g>
                <g id="Designt-Outline" serif:id="Designt Outline" transform="matrix(1,0,0,1,19.1449,177.033)">
                    <path d="M2782.89,1797.96L3091.03,1797.96L3103.32,1727.31C3104.82,1739.84 3108.45,1750.43 3113.69,1759.21C3120.93,1771.36 3130.44,1780.89 3142.12,1787.9C3152.51,1794.13 3164.32,1798.59 3177.62,1801.08C3189.06,1803.23 3200.68,1804.31 3212.48,1804.31C3223.27,1804.31 3234.4,1803.45 3245.88,1801.71C3261.21,1799.39 3271.64,1795.52 3277.68,1791.81L3288.87,1784.92L3290.82,1773.81C3292.77,1776.18 3294.88,1778.47 3297.15,1780.66C3304.57,1787.85 3313.6,1793.59 3324.37,1797.66C3334.25,1801.39 3345.31,1803.4 3357.6,1803.4C3371.22,1803.4 3383.6,1800.85 3394.8,1796.02C3406.29,1791.06 3416.05,1784.25 3424.16,1775.68C3432.15,1767.25 3438.41,1757.39 3442.85,1746.07C3447.18,1735.03 3449.4,1723.25 3449.4,1710.69C3449.4,1699.97 3447.1,1689.75 3442.51,1680.04C3438.29,1671.14 3432.57,1663.16 3425.31,1656.14C3417.91,1648.98 3409.02,1643.28 3398.51,1639.22C3388.7,1635.43 3377.8,1633.4 3365.76,1633.4C3352.15,1633.4 3339.77,1635.95 3328.57,1640.78C3317.24,1645.67 3307.5,1652.37 3299.28,1660.8L3267.52,1668.74L3265.52,1669.18L3272.22,1632.43C3272.22,1632.43 3316.87,1632.43 3316.87,1632.43L3339.73,1500.98L3293.19,1500.98L3307.31,1408.14L3144.74,1452.97L3136.27,1500.98C3136.27,1500.98 3102.65,1500.98 3102.65,1500.98L3098.34,1525.74C3089.91,1516.71 3079.31,1509.3 3066.35,1503.77C3053.98,1498.51 3038.94,1495.54 3021.1,1495.54C3007.6,1495.54 2994.86,1497.72 2982.88,1502.04L2982.95,1500.98L2684.13,1500.98L2683.58,1504.45C2668.21,1498.42 2653.26,1495.54 2638.8,1495.54C2614.6,1495.54 2592.47,1500.41 2572.36,1509.9C2552.29,1519.38 2535.11,1532.41 2520.79,1548.95C2506.89,1565.02 2495.99,1583.69 2488.23,1605C2480.59,1625.96 2476.71,1648.34 2476.71,1672.14C2476.71,1689.62 2479.46,1705.75 2484.78,1720.56C2489.88,1734.77 2497.23,1747.24 2506.76,1758L2446.35,1845.78L2466.82,1862.84C2475.75,1870.29 2486.06,1876.93 2497.79,1882.71C2508.78,1888.12 2520.56,1892.67 2533.12,1896.33C2545.43,1899.92 2558.16,1902.58 2571.33,1904.29C2584.24,1905.96 2596.91,1906.8 2609.33,1906.8C2661.9,1906.8 2703.18,1893.59 2733.73,1869.08C2754.61,1852.32 2771.25,1828.75 2782.89,1797.96ZM2526.88,1831.84C2533.98,1835.12 2541.52,1837.91 2549.48,1840.23C2558.94,1842.99 2568.73,1845.02 2578.85,1846.34C2589.21,1847.68 2599.37,1848.36 2609.33,1848.36C2646.25,1848.36 2675.71,1840.71 2697.16,1823.5C2718.49,1806.38 2731.43,1778.01 2738.38,1739.57C2738.38,1739.57 2769.99,1559.42 2769.99,1559.42C2769.99,1559.42 2734.06,1559.42 2734.06,1559.42L2729.98,1585.27L2688.02,1585.27L2679.34,1572.26C2675.39,1566.32 2670.06,1562.02 2663.38,1559.3C2654.92,1555.85 2646.75,1553.97 2638.8,1553.97C2623.7,1553.97 2609.86,1556.82 2597.31,1562.74C2584.74,1568.68 2573.95,1576.82 2564.99,1587.18C2555.61,1598.02 2548.37,1610.64 2543.13,1625.01C2537.77,1639.72 2535.15,1655.44 2535.15,1672.14C2535.15,1682.49 2536.63,1692.05 2539.78,1700.82C2542.57,1708.59 2546.65,1715.34 2552.12,1721.02C2557.62,1726.71 2564.61,1731.02 2572.9,1734.22C2582.42,1737.89 2593.53,1739.52 2606.15,1739.52C2610.86,1739.52 2615.33,1739.02 2619.55,1737.94C2623.87,1736.83 2627.76,1735.47 2631.18,1733.76C2634.52,1732.09 2637.48,1730.31 2640.04,1728.35C2642.28,1726.62 2644.15,1725.04 2645.54,1723.48L2646.05,1722.9C2644.12,1723.06 2642.16,1723.13 2640.16,1723.13C2627.92,1723.13 2617.79,1720.79 2609.62,1716.97C2600.35,1712.62 2593.29,1707 2588.07,1700.62C2582.61,1693.95 2578.8,1686.37 2576.67,1677.87C2574.98,1671.1 2574.21,1664.8 2574.21,1658.99C2574.21,1649.57 2575.75,1640.13 2578.89,1630.71C2582.1,1621.06 2586.82,1612.35 2593.02,1604.54C2599.57,1596.3 2607.56,1589.61 2617.02,1584.52C2626.89,1579.2 2638.34,1576.26 2651.5,1576.26C2671.22,1576.26 2686.48,1582.5 2697.93,1593.16C2710.09,1604.47 2717,1619.69 2717,1639.49C2717,1649.76 2715.32,1659.7 2711.97,1669.3C2708.53,1679.16 2703.66,1687.84 2697.47,1695.41C2691.49,1702.71 2684.32,1708.82 2675.89,1713.67L2704.11,1713.67C2704.11,1713.67 2695.26,1759.66 2695.26,1759.65C2693.88,1768.46 2691.29,1776.72 2687.53,1784.45C2683.23,1793.32 2677.09,1801.24 2668.98,1808.08C2661.58,1814.32 2652.52,1819.45 2641.64,1823.15C2631.97,1826.45 2620.16,1828.34 2606.15,1828.34C2591.69,1828.34 2575.85,1825.49 2558.72,1819.4C2552.44,1817.16 2546.48,1814.54 2540.84,1811.55L2526.88,1831.84ZM1859.59,1553.84L1887.24,1396.68L1726.73,1396.68L1708.31,1502.61C1702.85,1500.67 1697.17,1499.1 1691.28,1497.92C1683.27,1496.32 1675.47,1495.54 1667.86,1495.54C1644.26,1495.54 1622.36,1500.48 1602.13,1510.22C1582.24,1519.8 1565.13,1532.71 1550.76,1548.91C1536.64,1564.85 1525.53,1583.55 1517.56,1605.1C1509.73,1626.27 1505.77,1648.76 1505.77,1672.6C1505.77,1690.06 1508.34,1706.41 1513.36,1721.64C1518.73,1737.96 1526.85,1752.16 1537.6,1764.3C1548.49,1776.6 1561.86,1786.35 1577.8,1793.41C1593.16,1800.22 1610.91,1803.85 1631.13,1803.85C1646.47,1803.85 1660.39,1801.83 1672.9,1797.96L1816.65,1797.96L1829.71,1723.7C1830.34,1725.14 1831,1726.55 1831.69,1727.95C1840.29,1745.34 1851.95,1759.87 1866.61,1771.6C1880.78,1782.94 1897.37,1791.53 1916.45,1797.2C1934.35,1802.52 1953.22,1805.21 1973.07,1805.21C1997.85,1805.21 2021.78,1801.58 2044.84,1794.35C2061.65,1789.08 2077.21,1781.13 2091.47,1770.44C2108.2,1783.33 2127.24,1792.53 2148.64,1797.97C2170.2,1803.44 2190.74,1806.12 2210.25,1806.12C2225.35,1806.12 2240.71,1804.38 2256.34,1800.87C2273.15,1797.09 2288.44,1790.81 2302.24,1782.12C2316.95,1772.85 2329.06,1760.77 2338.54,1745.86C2348.39,1730.35 2353.75,1711.6 2353.75,1689.38C2353.75,1674.09 2350.86,1660.83 2345.62,1649.47C2340.94,1639.35 2334.59,1630.4 2326.54,1622.64L2389.6,1550.26L2367.98,1531.04C2354.26,1518.84 2336.58,1509.14 2314.67,1502.47C2294.56,1496.35 2273.66,1493.27 2251.97,1493.27C2235.82,1493.27 2219.75,1495.41 2203.77,1499.72C2187.06,1504.23 2172.07,1511.04 2158.74,1520.05C2144.31,1529.81 2132.73,1542.2 2123.99,1557.24L2122.41,1560.07C2116.32,1548.95 2108.76,1539.13 2099.8,1530.59C2087.29,1518.67 2072.11,1509.37 2054.13,1502.92C2037.31,1496.89 2018.32,1493.73 1997.1,1493.73C1971.03,1493.73 1947.2,1498.22 1925.59,1506.97C1903.57,1515.89 1884.69,1528.24 1868.86,1543.89C1865.62,1547.09 1862.53,1550.4 1859.59,1553.84ZM2162.11,1722.18C2165.92,1724.2 2169.87,1725.99 2173.96,1727.55C2187.98,1732.91 2201.01,1735.37 2212.97,1735.37C2224.4,1735.37 2233.29,1733.16 2239.86,1730.02C2254.74,1722.9 2261.69,1711.26 2261.69,1695.73C2261.69,1682.5 2255.92,1669.51 2238.84,1660.69C2232.78,1657.57 2225.09,1654.54 2215.71,1651.81L2215.63,1651.78C2206.64,1649.21 2198.67,1646.32 2191.67,1643.01C2186.24,1640.44 2181.54,1637.45 2177.69,1633.89C2174.81,1631.24 2172.58,1628.15 2171.03,1624.61C2169.33,1620.71 2168.72,1616.12 2168.72,1610.92C2168.72,1601.71 2170.47,1593.56 2174.51,1586.6C2178.78,1579.27 2184.43,1573.22 2191.47,1568.46C2199.6,1562.96 2208.79,1558.89 2218.99,1556.14C2229.92,1553.19 2240.91,1551.71 2251.97,1551.71C2267.77,1551.71 2283,1553.92 2297.66,1558.38C2299.62,1558.97 2301.52,1559.6 2303.38,1560.26C2303.38,1560.26 2291.29,1574.13 2291.29,1574.13C2289.69,1573.38 2288.04,1572.64 2286.34,1571.93C2273.47,1566.57 2260.78,1564.02 2248.34,1564.02C2237.43,1564.02 2228.65,1565.99 2221.84,1568.99C2205.68,1576.09 2198.72,1588.16 2198.72,1603.67C2198.72,1617.46 2204.66,1628.99 2219.14,1636.58C2223.47,1638.85 2230.92,1641.69 2241.65,1644.58L2242,1644.67C2251.73,1647.04 2260.3,1649.86 2268.03,1653.29C2274.42,1656.11 2279.96,1659.44 2284.57,1663.42C2288.01,1666.39 2290.68,1669.89 2292.56,1673.96C2294.58,1678.33 2295.31,1683.5 2295.31,1689.38C2295.31,1699.21 2293.57,1707.66 2289.21,1714.53C2284.47,1721.99 2278.44,1728.05 2271.09,1732.68C2262.81,1737.9 2253.61,1741.59 2243.52,1743.86C2232.24,1746.4 2221.15,1747.68 2210.25,1747.68C2195.29,1747.68 2179.55,1745.53 2163.02,1741.33C2158.41,1740.16 2153.96,1738.71 2149.69,1737L2162.11,1722.18ZM2079.91,1643.83C2080.5,1638.73 2080.81,1633.96 2080.81,1629.52C2080.81,1617.23 2078.97,1606.1 2074.98,1596.2C2071.31,1587.08 2066.19,1579.28 2059.48,1572.89C2052.64,1566.37 2044.24,1561.45 2034.4,1557.93C2023.41,1553.99 2010.96,1552.16 1997.1,1552.16C1979.04,1552.16 1962.5,1555.07 1947.53,1561.13C1932.97,1567.03 1920.41,1575.09 1909.94,1585.44C1899.56,1595.7 1891.54,1607.83 1885.82,1621.79C1879.98,1636.02 1877.12,1651.3 1877.12,1667.61C1877.12,1680.77 1879.25,1692.29 1884.07,1702.05C1888.77,1711.56 1895.1,1719.56 1903.11,1725.97C1911.62,1732.77 1921.64,1737.78 1933.09,1741.18C1945.73,1744.94 1959.06,1746.78 1973.07,1746.78C1991.82,1746.78 2009.92,1744.06 2027.37,1738.59C2031.63,1737.26 2035.76,1735.64 2039.76,1733.74C2039.76,1733.74 2021.53,1721.18 2021.53,1721.18C2018.4,1722.75 2015.18,1724.13 2011.85,1725.31C2001.4,1729.01 1990.75,1730.84 1979.87,1730.84C1974.82,1730.84 1969.13,1730.36 1962.82,1729.31C1955.33,1728.06 1948.35,1725.79 1941.86,1722.54C1934.33,1718.77 1927.98,1713.8 1922.77,1707.71C1915.84,1699.63 1911.65,1689.3 1911.65,1676.23C1911.65,1671.49 1912.42,1667.37 1913.6,1663.81L1918.77,1648.3L1907.5,1648.3L1918.78,1610.69C1920.38,1605.34 1923.04,1599.52 1927.05,1593.37C1930.82,1587.61 1935.64,1582.15 1941.66,1577.14C1947.35,1572.4 1954.06,1568.3 1961.88,1564.98C1970.23,1561.44 1979.68,1559.48 1990.3,1559.48C2008.28,1559.48 2021.98,1564.64 2032.06,1572.81C2044.68,1583.05 2051.26,1596.58 2051.26,1613.64L2051.26,1616.14C2051.26,1620.52 2050.56,1624.57 2049.31,1628.32L2044.14,1643.83L2079.91,1643.83ZM3239.63,1727.39L3236.72,1743.99C3228.39,1745.24 3220.31,1745.87 3212.48,1745.87C3204.33,1745.87 3196.3,1745.13 3188.39,1743.65C3182.34,1742.52 3176.91,1740.63 3172.19,1737.79C3168.75,1735.73 3166.01,1732.86 3163.88,1729.29C3161.53,1725.33 3160.98,1720.1 3160.98,1713.87C3160.98,1711.45 3161.16,1708.71 3161.49,1705.64C3161.87,1702.11 3162.3,1698.83 3162.81,1695.79C3162.81,1695.73 3184.89,1574 3184.89,1574L3149.26,1574C3149.26,1574 3151.8,1559.42 3151.8,1559.42C3151.8,1559.42 3185.3,1559.42 3185.3,1559.42L3195.87,1499.49C3195.87,1499.49 3235.99,1488.43 3235.99,1488.43C3235.99,1488.43 3230.31,1525.81 3230.31,1525.81L3225.2,1559.42L3270.26,1559.42C3270.26,1559.42 3267.72,1574 3267.72,1574C3267.72,1574 3223.48,1574 3223.48,1574L3206.83,1665.31C3206.35,1668.19 3205.99,1671.3 3205.77,1674.86C3205.57,1678.02 3205.49,1680.6 3205.49,1682.58C3205.49,1702.58 3213.95,1714.36 3223.96,1720.88C3228.21,1723.65 3233.4,1725.96 3239.63,1727.39ZM1735.87,1739.52L1767.6,1739.52L1817.63,1455.11C1817.63,1455.11 1775.88,1455.11 1775.88,1455.11L1754.11,1580.28L1713.32,1580.28L1704.61,1567.69C1703.6,1566.23 1702.16,1564.97 1700.47,1563.74C1697.77,1561.76 1694.79,1560.11 1691.54,1558.76C1687.84,1557.21 1683.93,1556.04 1679.82,1555.22C1675.73,1554.4 1671.75,1553.97 1667.86,1553.97C1653.37,1553.97 1639.9,1556.89 1627.48,1562.87C1614.72,1569.02 1603.71,1577.27 1594.49,1587.67C1585.03,1598.34 1577.7,1610.93 1572.37,1625.36C1566.89,1640.17 1564.2,1655.92 1564.2,1672.6C1564.2,1683.55 1565.72,1693.81 1568.86,1703.37C1571.65,1711.84 1575.77,1719.26 1581.35,1725.56C1586.79,1731.7 1593.52,1736.47 1601.47,1739.99C1609.99,1743.76 1619.91,1745.42 1631.13,1745.42C1643.28,1745.42 1653.91,1743.58 1662.92,1739.35C1670.77,1735.66 1677.06,1731.24 1681.41,1725.57L1685.49,1720.24C1680.62,1721.25 1675.5,1721.77 1670.13,1721.77C1648.79,1721.77 1632.99,1714.53 1621.77,1702.49C1610.51,1690.41 1604.63,1675.67 1604.63,1658.09C1604.63,1647.43 1606.27,1637.57 1609.38,1628.46C1612.69,1618.74 1617.59,1610.1 1623.99,1602.51C1630.79,1594.45 1638.98,1588.14 1648.55,1583.61C1657.99,1579.14 1668.64,1576.72 1680.56,1576.72C1701.39,1576.72 1717,1583.74 1728.24,1595.52C1739.53,1607.37 1745.6,1622.22 1745.6,1640.4C1745.6,1650.78 1743.89,1660.7 1740.5,1670.18C1737.01,1679.95 1732.07,1688.53 1725.79,1695.97C1719.33,1703.63 1711.71,1709.67 1702.96,1714.13L1740.4,1714.13L1735.87,1739.52ZM3357.6,1744.96C3352.96,1744.96 3348.75,1744.4 3345.03,1743C3342.19,1741.92 3339.74,1740.56 3337.78,1738.67C3335.85,1736.8 3334.32,1734.69 3333.25,1732.32C3332.37,1730.35 3331.95,1728.28 3331.95,1726.11C3331.95,1721.13 3332.75,1716.44 3334.46,1712.06C3336.03,1708.07 3338.23,1704.57 3341.12,1701.6C3344.08,1698.56 3347.63,1696.2 3351.71,1694.44C3355.93,1692.62 3360.63,1691.84 3365.76,1691.84C3370.05,1691.84 3373.96,1692.38 3377.45,1693.73C3380.26,1694.81 3382.7,1696.22 3384.67,1698.13C3386.78,1700.17 3388.47,1702.47 3389.7,1705.06C3390.54,1706.84 3390.97,1708.72 3390.97,1710.69C3390.97,1715.67 3390.16,1720.36 3388.45,1724.74C3386.84,1728.84 3384.63,1732.44 3381.74,1735.49C3378.97,1738.42 3375.58,1740.67 3371.65,1742.37C3367.43,1744.18 3362.73,1744.96 3357.6,1744.96ZM2974.46,1577.58C2979.19,1571.19 2985.89,1565.76 2994.24,1560.93C3002.35,1556.24 3011.32,1553.97 3021.1,1553.97C3029.88,1553.97 3037.36,1554.94 3043.43,1557.53C3048.47,1559.68 3052.7,1562.38 3055.92,1565.93C3058.89,1569.2 3061.01,1572.97 3062.31,1577.23C3064.05,1582.97 3064.9,1588.91 3064.9,1595.05C3064.9,1599.09 3064.71,1603.32 3064.33,1607.75C3063.96,1612.03 3063.41,1616.13 3062.68,1620.05L3062.64,1620.24C3062.61,1620.42 3041.88,1739.52 3041.88,1739.52C3041.88,1739.52 2999.21,1739.52 2999.21,1739.52C2999.21,1739.52 3015.32,1647.84 3015.32,1647.84C3016.17,1643.8 3016.72,1639.63 3016.95,1635.36C3017.13,1631.86 3017.22,1629 3017.22,1626.79C3017.22,1612.73 3012.68,1601.54 3004.94,1592.75C2998.05,1584.92 2988.18,1579.09 2974.46,1577.58ZM2919.26,1559.42L2914.86,1590.25L2932.88,1590.25C2930.7,1592.17 2928.59,1594.33 2926.55,1596.71C2918.49,1606.15 2912.13,1619.55 2908.9,1637.51C2908.9,1637.5 2890.55,1739.52 2890.55,1739.52L2890.55,1739.52L2848.17,1739.52C2848.17,1739.52 2875.66,1582.42 2875.66,1582.42C2876.91,1576.4 2878.25,1568.74 2879.65,1559.42L2919.26,1559.42ZM2100.55,1704.66L2102.56,1702.27L2097.09,1702.27L2100.55,1704.66ZM2633.36,1663.66C2632.94,1661.98 2632.65,1660.43 2632.65,1658.99C2632.65,1655.72 2633.23,1652.46 2634.32,1649.18C2635.34,1646.13 2636.82,1643.36 2638.78,1640.88C2640.4,1638.85 2642.39,1637.22 2644.72,1635.97C2646.64,1634.93 2648.94,1634.7 2651.5,1634.7C2654.19,1634.7 2656.57,1634.49 2658.13,1635.94C2659,1636.75 2658.57,1638.08 2658.57,1639.49C2658.57,1643.13 2657.98,1646.65 2656.79,1650.05C2655.7,1653.19 2654.22,1655.99 2652.24,1658.4C2650.56,1660.46 2648.47,1662.12 2646.04,1663.42C2644.29,1664.37 2642.31,1664.69 2640.16,1664.69C2637.89,1664.69 2635.94,1664.77 2634.43,1664.06C2634.04,1663.87 2633.59,1663.9 2633.36,1663.66ZM1663.07,1658.09C1663.07,1654.23 1663.55,1650.64 1664.67,1647.35C1665.59,1644.67 1666.89,1642.28 1668.65,1640.19C1670.01,1638.58 1671.65,1637.33 1673.57,1636.42C1675.62,1635.45 1677.97,1635.15 1680.56,1635.15C1682.77,1635.15 1684.75,1634.6 1685.94,1635.85C1687.05,1637.01 1687.17,1638.62 1687.17,1640.4C1687.17,1643.93 1686.62,1647.31 1685.47,1650.53C1684.42,1653.45 1683.01,1656.06 1681.13,1658.29C1679.73,1659.95 1678.09,1661.26 1676.17,1662.2C1674.38,1663.07 1672.35,1663.33 1670.13,1663.33C1667.82,1663.33 1665.74,1663.96 1664.52,1662.66C1663.39,1661.44 1663.07,1659.86 1663.07,1658.09Z" style="fill:rgb(255,0,0);"/>
                </g>
                <g id="pen-curves" serif:id="pen curves" transform="matrix(1.32403,0,0,1.32403,332.187,1119.39)">
                    <path d="M527.657,693.468C531.037,693.373 527.657,692.9 527.657,692.9C459.533,690.993 385.333,624.349 321.659,588.561C285.224,568.083 245.595,607.386 212.453,576.041C194.786,559.331 189.425,522.089 172.591,502.515C161.927,491.851 144.611,491.851 133.946,502.515C123.282,513.179 126.435,530.695 133.946,541.16C141.642,551.88 167.219,551.866 180.119,566.839C200.691,590.714 214.466,630.193 240.123,639.832C272.064,651.833 315.398,627.047 342.738,638.104C412.101,666.155 457.874,695.421 527.657,693.468ZM654.428,674.931C695.705,666.434 778.04,604.815 814.676,631.233C837.718,647.848 844.737,591.566 881.734,574.086C899.566,565.66 928.814,614.678 958.028,619.527C982.076,623.518 992.696,587.27 991.455,550.503C990.36,518.061 980.031,485.214 961.546,479.249C917.348,464.988 888.973,446.41 856.134,479.249C851.325,494.946 850.877,528.451 831.8,553.031C810.469,580.515 774.193,565.755 761.805,573.337C721.389,598.073 723.738,634.297 654.428,674.931ZM2318.61,591.272C2324.14,583.733 2329.56,574.746 2334.5,564.146C2339.7,552.993 2343.95,541.017 2351.41,532.515C2358.18,524.804 2366.61,520.04 2378.95,524.956C2383.23,526.946 2385.79,531.273 2387,536.747C2387.57,539.346 2387.74,542.156 2387.73,545.042C2387.7,555.345 2385.5,566.121 2385.61,576.059C2385.68,583.6 2387.03,590.424 2389.95,595.942C2392.84,601.401 2397.3,605.747 2403.05,607.985C2407.99,609.91 2413.76,611.422 2420.74,609.728C2431.48,607.125 2444.65,599.969 2463.12,582.76C2451.41,585.617 2442.68,586.675 2434.73,587.409C2424.93,588.313 2419.63,586.401 2415.68,583.675C2414.95,583.169 2414.74,582.297 2414.26,581.548C2413.6,580.512 2412.69,579.598 2412.11,578.383C2410.15,574.287 2408.2,569.811 2406.9,564.678C2404.72,556.07 2402.4,547.303 2400.76,539.048C2398.29,526.655 2395.32,516.348 2386.74,510.965C2372.11,500.193 2358.83,501.05 2346.34,505.132C2337.85,507.91 2330.41,513.648 2322.43,519.996C2308.59,531.004 2295.81,545.263 2283.51,552.747C2272.88,562.434 2272.11,578.93 2281.8,589.561C2291.48,600.192 2307.98,600.958 2318.61,591.272Z" style="fill:rgb(255,0,0);"/>
                </g>
                <g id="designt-text-fill" serif:id="designt text fill" transform="matrix(1,0,0,1,19.1449,177.033)">
                    <path d="M2667.38,1742.89C2664.96,1745.61 2661.78,1748.48 2657.85,1751.51C2653.92,1754.53 2649.39,1757.33 2644.25,1759.9C2639.11,1762.47 2633.29,1764.58 2626.79,1766.25C2620.29,1767.91 2613.41,1768.74 2606.15,1768.74C2589.52,1768.74 2574.94,1766.32 2562.39,1761.48C2549.84,1756.65 2539.41,1749.92 2531.1,1741.3C2522.78,1732.69 2516.51,1722.48 2512.28,1710.69C2508.05,1698.9 2505.93,1686.05 2505.93,1672.14C2505.93,1651.89 2509.18,1632.84 2515.68,1615C2522.18,1597.17 2531.25,1581.52 2542.89,1568.07C2554.53,1554.61 2568.51,1544.03 2584.84,1536.32C2601.16,1528.61 2619.15,1524.76 2638.8,1524.76C2650.29,1524.76 2662.16,1527.25 2674.4,1532.24C2686.65,1537.23 2696.4,1545.16 2703.66,1556.05L2705.01,1556.05L2709.1,1530.2L2804.78,1530.2L2767.14,1744.7C2758.68,1791.57 2741.45,1825.43 2715.45,1846.29C2689.45,1867.15 2654.07,1877.58 2609.33,1877.58C2598.14,1877.58 2586.73,1876.82 2575.09,1875.31C2563.45,1873.8 2552.19,1871.46 2541.3,1868.28C2530.42,1865.11 2520.21,1861.18 2510.69,1856.49C2501.17,1851.81 2492.78,1846.44 2485.52,1840.39L2533.59,1770.55C2543.27,1779.93 2554.91,1787.03 2568.51,1791.87C2582.12,1796.7 2594.66,1799.12 2606.15,1799.12C2616.43,1799.12 2625.12,1797.91 2632.23,1795.5C2639.33,1793.08 2645.3,1789.83 2650.14,1785.75C2654.98,1781.66 2658.68,1776.98 2661.25,1771.69C2663.82,1766.4 2665.56,1760.73 2666.47,1754.68L2668.74,1742.89L2667.38,1742.89ZM2157.19,1682.58C2165.05,1690.43 2174.12,1696.33 2184.4,1700.26C2194.68,1704.19 2204.2,1706.16 2212.97,1706.16C2219.01,1706.16 2223.78,1705.33 2227.25,1703.66C2230.73,1702 2232.47,1699.35 2232.47,1695.73C2232.47,1692.1 2230.13,1689.08 2225.44,1686.66C2220.75,1684.24 2214.78,1681.97 2207.53,1679.85C2196.95,1676.83 2187.5,1673.35 2179.18,1669.42C2170.87,1665.49 2163.76,1660.81 2157.87,1655.37C2151.97,1649.92 2147.44,1643.57 2144.26,1636.32C2141.09,1629.06 2139.5,1620.6 2139.5,1610.92C2139.5,1596.11 2142.75,1583.11 2149.25,1571.92C2155.75,1560.73 2164.37,1551.51 2175.1,1544.26C2185.83,1537 2197.93,1531.56 2211.38,1527.93C2224.84,1524.3 2238.37,1522.49 2251.97,1522.49C2270.71,1522.49 2288.78,1525.13 2306.16,1530.43C2323.55,1535.72 2337.68,1543.2 2348.57,1552.87L2296.41,1612.74C2291.27,1607.29 2284.17,1602.68 2275.1,1598.9C2266.03,1595.12 2257.11,1593.24 2248.34,1593.24C2242.3,1593.24 2237.38,1594.07 2233.6,1595.73C2229.82,1597.39 2227.93,1600.04 2227.93,1603.67C2227.93,1606.69 2229.52,1609.03 2232.7,1610.69C2235.87,1612.36 2241.39,1614.25 2249.25,1616.36C2260.43,1619.09 2270.64,1622.49 2279.86,1626.57C2289.08,1630.65 2297.02,1635.56 2303.67,1641.31C2310.32,1647.05 2315.46,1653.85 2319.09,1661.71C2322.72,1669.57 2324.53,1678.8 2324.53,1689.38C2324.53,1705.4 2320.98,1719.01 2313.87,1730.19C2306.77,1741.38 2297.7,1750.45 2286.66,1757.4C2275.63,1764.36 2263.38,1769.34 2249.93,1772.37C2236.47,1775.39 2223.25,1776.9 2210.25,1776.9C2193.01,1776.9 2174.88,1774.48 2155.83,1769.65C2136.78,1764.81 2120,1756.34 2105.49,1744.25L2157.19,1682.58ZM1941.32,1673.05C1941.02,1673.96 1940.87,1675.02 1940.87,1676.23C1940.87,1681.37 1942.23,1685.52 1944.95,1688.7C1947.67,1691.87 1951,1694.44 1954.93,1696.41C1958.86,1698.37 1963.09,1699.73 1967.63,1700.49C1972.16,1701.24 1976.24,1701.62 1979.87,1701.62C1987.43,1701.62 1994.84,1700.34 2002.09,1697.77C2009.35,1695.2 2015.85,1691.19 2021.59,1685.75L2090.07,1732.91C2074.35,1748.94 2056.36,1760.12 2036.1,1766.47C2015.85,1772.82 1994.84,1776 1973.07,1776C1956.14,1776 1940.04,1773.73 1924.77,1769.19C1909.5,1764.66 1896.2,1757.86 1884.86,1748.79C1873.52,1739.72 1864.53,1728.45 1857.88,1715C1851.23,1701.55 1847.9,1685.75 1847.9,1667.61C1847.9,1647.35 1851.53,1628.38 1858.79,1610.69C1866.04,1593.01 1876.25,1577.66 1889.4,1564.66C1902.55,1551.66 1918.27,1541.46 1936.56,1534.05C1954.85,1526.65 1975.03,1522.94 1997.1,1522.94C2014.64,1522.94 2030.36,1525.44 2044.27,1530.43C2058.17,1535.41 2069.97,1542.52 2079.64,1551.74C2089.31,1560.96 2096.8,1572.15 2102.09,1585.3C2107.38,1598.45 2110.02,1613.19 2110.02,1629.52C2110.02,1636.17 2109.49,1643.42 2108.44,1651.28C2107.38,1659.14 2105.79,1666.4 2103.68,1673.05L1941.32,1673.05ZM3259.19,1530.2L3304.99,1530.2L3292.3,1603.21L3247.85,1603.21L3235.61,1670.33C3235.31,1672.14 3235.08,1674.26 3234.93,1676.68C3234.78,1679.1 3234.7,1681.06 3234.7,1682.58C3234.7,1689.53 3236.44,1694.14 3239.92,1696.41C3243.39,1698.67 3248.31,1699.81 3254.66,1699.81C3258.28,1699.81 3261.91,1699.51 3265.54,1698.9C3269.17,1698.3 3272.19,1697.69 3274.61,1697.09L3262.37,1766.92C3258.44,1769.34 3251.48,1771.31 3241.51,1772.82C3231.53,1774.33 3221.85,1775.09 3212.48,1775.09C3202.5,1775.09 3192.68,1774.18 3183,1772.37C3173.33,1770.55 3164.71,1767.38 3157.15,1762.84C3149.6,1758.31 3143.47,1752.11 3138.79,1744.25C3134.1,1736.39 3131.76,1726.26 3131.76,1713.87C3131.76,1710.54 3131.99,1706.76 3132.44,1702.53C3132.89,1698.3 3133.42,1694.37 3134.03,1690.74L3149.9,1603.21L3114.53,1603.21L3127.22,1530.2L3160.78,1530.2L3170.31,1476.23L3271.65,1448.29L3259.19,1530.2ZM1792.12,1768.74L1700.97,1768.74L1705.5,1743.34L1704.6,1743.34C1697.64,1752.41 1687.89,1759.9 1675.35,1765.79C1662.8,1771.69 1648.06,1774.63 1631.13,1774.63C1615.41,1774.63 1601.58,1771.99 1589.63,1766.7C1577.69,1761.41 1567.64,1754.15 1559.48,1744.93C1551.31,1735.71 1545.19,1724.9 1541.11,1712.51C1537.03,1700.11 1534.99,1686.81 1534.99,1672.6C1534.99,1652.34 1538.31,1633.22 1544.96,1615.23C1551.62,1597.24 1560.84,1581.6 1572.63,1568.29C1584.42,1554.99 1598.48,1544.41 1614.8,1536.55C1631.13,1528.69 1648.82,1524.76 1667.86,1524.76C1673.61,1524.76 1679.5,1525.36 1685.55,1526.57C1691.6,1527.78 1697.34,1529.52 1702.78,1531.79C1708.22,1534.05 1713.21,1536.85 1717.75,1540.18C1722.28,1543.5 1725.91,1547.13 1728.63,1551.06L1729.54,1551.06L1751.31,1425.89L1852.44,1425.89L1792.12,1768.74ZM3357.6,1774.18C3349.14,1774.18 3341.5,1772.9 3334.7,1770.33C3327.9,1767.76 3322.15,1764.2 3317.47,1759.67C3312.78,1755.13 3309.15,1750 3306.58,1744.25C3304.01,1738.51 3302.73,1732.46 3302.73,1726.11C3302.73,1717.34 3304.24,1709.1 3307.26,1701.39C3310.29,1693.68 3314.59,1686.96 3320.19,1681.21C3325.78,1675.47 3332.43,1670.93 3340.14,1667.61C3347.85,1664.28 3356.39,1662.62 3365.76,1662.62C3373.93,1662.62 3381.33,1663.91 3387.99,1666.48C3394.64,1669.05 3400.31,1672.6 3404.99,1677.13C3409.68,1681.67 3413.38,1686.81 3416.1,1692.55C3418.82,1698.3 3420.18,1704.34 3420.18,1710.69C3420.18,1719.46 3418.67,1727.7 3415.65,1735.41C3412.62,1743.12 3408.39,1749.84 3402.95,1755.59C3397.51,1761.33 3390.93,1765.87 3383.22,1769.19C3375.51,1772.52 3366.97,1774.18 3357.6,1774.18ZM2914.99,1768.74L2813.4,1768.74L2846.96,1576.91C2848.17,1571.16 2849.45,1563.76 2850.82,1554.69C2852.18,1545.62 2853.16,1537.45 2853.76,1530.2L2951.72,1530.2C2951.42,1534.73 2950.96,1539.95 2950.36,1545.85C2949.75,1551.74 2949.15,1556.8 2948.54,1561.04L2950.36,1561.04C2957.31,1551.36 2967.06,1542.9 2979.61,1535.64C2992.16,1528.38 3005.99,1524.76 3021.1,1524.76C3034.41,1524.76 3045.67,1526.72 3054.89,1530.65C3064.11,1534.58 3071.67,1539.8 3077.57,1546.3C3083.46,1552.8 3087.69,1560.28 3090.26,1568.75C3092.83,1577.21 3094.12,1585.98 3094.12,1595.05C3094.12,1599.89 3093.89,1604.95 3093.44,1610.24C3092.98,1615.53 3092.3,1620.6 3091.4,1625.43L3066.45,1768.74L2964.42,1768.74L2986.64,1642.21C2987.24,1639.49 2987.62,1636.7 2987.77,1633.82C2987.92,1630.95 2988,1628.61 2988,1626.79C2988,1620.75 2986.34,1615.84 2983.01,1612.06C2979.68,1608.28 2974.39,1606.39 2967.14,1606.39C2960.18,1606.39 2954.06,1609.49 2948.77,1615.68C2943.48,1621.88 2939.78,1630.88 2937.66,1642.67L2914.99,1768.74ZM2603.43,1658.99C2603.43,1662.62 2603.96,1666.55 2605.02,1670.78C2606.08,1675.02 2607.97,1678.8 2610.69,1682.12C2613.41,1685.45 2617.19,1688.24 2622.03,1690.51C2626.86,1692.78 2632.91,1693.91 2640.16,1693.91C2647.42,1693.91 2654,1692.33 2659.89,1689.15C2665.79,1685.98 2670.78,1681.89 2674.86,1676.91C2678.94,1671.92 2682.11,1666.17 2684.38,1659.67C2686.65,1653.17 2687.78,1646.45 2687.78,1639.49C2687.78,1628.91 2684.53,1620.6 2678.03,1614.55C2671.53,1608.5 2662.69,1605.48 2651.5,1605.48C2643.64,1605.48 2636.76,1607.07 2630.87,1610.24C2624.97,1613.42 2619.98,1617.57 2615.9,1622.71C2611.82,1627.85 2608.72,1633.6 2606.61,1639.95C2604.49,1646.3 2603.43,1652.64 2603.43,1658.99ZM1633.85,1658.09C1633.85,1667.76 1636.95,1675.92 1643.15,1682.58C1649.35,1689.23 1658.34,1692.55 1670.13,1692.55C1677.08,1692.55 1683.36,1691.19 1688.95,1688.47C1694.54,1685.75 1699.38,1681.97 1703.46,1677.13C1707.54,1672.3 1710.72,1666.7 1712.99,1660.35C1715.25,1654 1716.39,1647.35 1716.39,1640.4C1716.39,1630.42 1713.29,1622.18 1707.09,1615.68C1700.89,1609.18 1692.05,1605.93 1680.56,1605.93C1673.3,1605.93 1666.8,1607.29 1661.06,1610.02C1655.32,1612.74 1650.4,1616.52 1646.32,1621.35C1642.24,1626.19 1639.14,1631.71 1637.03,1637.9C1634.91,1644.1 1633.85,1650.83 1633.85,1658.09ZM2021.59,1619.09C2021.89,1618.18 2022.05,1617.19 2022.05,1616.14L2022.05,1613.64C2022.05,1606.08 2019.25,1600.04 2013.66,1595.5C2008.06,1590.97 2000.28,1588.7 1990.3,1588.7C1983.95,1588.7 1978.28,1589.76 1973.29,1591.88C1968.31,1593.99 1964,1596.56 1960.37,1599.58C1956.74,1602.61 1953.79,1605.86 1951.53,1609.33C1949.26,1612.81 1947.67,1616.06 1946.77,1619.09L2021.59,1619.09Z" style="fill:white;fill-rule:nonzero;"/>
                </g>
                <g id="GEIL" transform="matrix(1.32403,0,0,1.32403,332.187,1119.39)">
                    <path d="M337.884,346.867C334.002,340.945 328.807,336.162 322.3,332.518C315.792,328.874 307.4,327.051 297.125,327.051C289.133,327.051 281.426,328.703 274.005,332.005C266.584,335.308 260.076,339.977 254.482,346.013C248.887,352.049 244.378,359.395 240.952,368.05C237.527,376.706 235.815,386.5 235.815,397.433C235.815,410.871 239.697,421.975 247.46,430.745C255.224,439.514 267.554,443.898 284.452,443.898C288.334,443.898 292.272,443.557 296.268,442.873C300.264,442.19 303.518,441.279 306.03,440.14L309.798,418.957L270.066,418.957L281.027,356.776L390.974,356.776L367.683,488.656C355.124,495.261 340.91,500.898 325.04,505.568C309.17,510.237 292.33,512.572 274.519,512.572C256.251,512.572 239.697,510.237 224.854,505.568C210.012,500.898 197.282,494.008 186.664,484.897C176.046,475.787 167.826,464.569 162.003,451.244C156.18,437.919 153.269,422.716 153.269,405.633C153.269,384.905 156.808,365.545 163.887,347.551C170.965,329.557 180.841,313.841 193.514,300.402C206.187,286.963 221.372,276.372 239.069,268.628C256.765,260.884 276.231,257.011 297.467,257.011C318.475,257.011 337.199,260.029 353.64,266.065C370.08,272.101 382.639,280.358 391.316,290.836L337.884,346.867ZM609.155,505.739L651.97,263.845L731.776,263.845L688.961,505.739L609.155,505.739ZM735.292,505.739L778,263.845L857.606,263.845L826.857,438.09L908.513,438.09L896.555,505.739L735.292,505.739ZM406.387,505.739L449.201,263.845L607.785,263.845L596.14,329.785L512.224,329.785L508.114,353.017L588.262,353.017L577.302,414.516L497.153,414.516L492.701,439.799L586.549,439.799L574.904,505.739L406.387,505.739Z" style="fill:rgb(255,0,0);fill-rule:nonzero;"/>
                </g>
                <g id="Manicen" transform="matrix(0.351034,0,0,0.354782,1289.95,968.287)">
                    <g>
                        <g transform="matrix(1.34704,0,0,1.33281,1503.24,776.056)">
                            <path d="M1241.51,1640.08L1149.53,1640.08C1152.98,1624.54 1190.02,1609.43 1191.46,1595.24C1213.89,1373.72 1169.34,1400.41 1127.17,1225.25C1278.35,1373.39 1398.63,1321.01 1452.79,1146.74C1354.88,1398.94 1331.18,1488.64 1368.7,1613.54C1373.04,1627.96 1408.16,1674.48 1409.9,1678.32L1323.4,1640.08C1323.4,1640.08 1309.95,1540.71 1305.96,1511.12C1295.97,1437.06 1241.51,1444.26 1241.51,1444.26L1241.51,1640.08Z" style="fill:white;"/>
                        </g>
                        <g transform="matrix(-1.16631,-0.666851,-0.673972,1.15399,5605.86,1846.51)">
                            <path d="M1204.28,1450.75C1210.36,1448.27 1215.95,1448.15 1221.27,1449.04C1225.23,1449.7 1228.84,1450.93 1232.08,1452.11C1232.98,1452.44 1233.82,1452.8 1234.63,1453.15C1235.45,1453.5 1236.19,1453.89 1236.94,1454.19C1238.42,1454.77 1239.64,1455.4 1241.02,1455.25C1243.36,1455 1245.58,1453.97 1248.27,1450.75C1247.7,1454.21 1246.68,1456.36 1245.33,1458.08C1244.41,1459.25 1243.27,1459.88 1242.07,1460.46C1240.37,1461.3 1238.49,1461.41 1236.39,1461.3C1234.61,1461.21 1232.7,1460.78 1230.72,1460.05C1229.17,1459.49 1227.61,1458.69 1225.99,1457.84C1223.41,1456.49 1220.79,1454.93 1217.82,1453.67C1213.78,1451.94 1209.53,1450.55 1204.28,1450.75Z" style="fill:rgb(255,0,0);"/>
                        </g>
                        <g transform="matrix(1.34704,0,0,1.33281,1467.18,755.476)">
                            <path d="M1098.81,1241.16L1122.76,1216.62L1189.76,1045.65L1149.59,1065.62C1149.55,1065.54 1149.51,1065.46 1149.46,1065.38L1104.32,990.029C1104.18,989.793 1104.02,989.581 1103.83,989.392C1124.69,969.122 1159.41,936.907 1189.51,926.079C1227.3,912.487 1334.37,921.88 1334.37,921.88L1336.49,922.709C1334.66,925.543 1333.06,928.576 1331.7,931.793C1325.65,946.401 1325.96,962.051 1331.37,975.528C1336.93,989.36 1347.89,1000.84 1362.63,1006.8C1377.5,1012.5 1393.37,1011.58 1406.87,1005.22C1420.05,999.02 1430.94,987.708 1436.45,972.843C1437.64,969.561 1438.52,966.242 1439.1,962.923L1440.94,963.642C1440.94,963.642 1526.01,1029.55 1544.5,1065.2C1559.23,1093.6 1562.82,1140.82 1564.35,1169.87C1564.09,1169.88 1563.82,1169.93 1563.56,1170L1479.24,1194.62C1479.15,1194.65 1479.07,1194.68 1478.98,1194.71L1463.07,1152.76C1447.7,1178.26 1404.95,1312.88 1400.58,1329.91L1407.55,1345.4C1372.53,1392.07 1193.83,1317.19 1098.81,1241.16ZM1564.7,1176.88C1564.91,1181.25 1565.09,1185 1565.27,1187.95C1565.58,1192.88 1486.24,1213.85 1486.24,1213.85L1481.44,1201.19L1564.7,1176.88ZM1098.81,994.299L1143.38,1068.71L1131.26,1074.73C1131.26,1074.73 1087.29,1005.44 1090.87,1002.03C1093.01,999.988 1095.68,997.356 1098.81,994.299ZM1332.97,944.67C1333.72,965.831 1346.78,985.566 1367.73,993.78C1388.37,1001.87 1410.98,996.554 1425.92,982.047C1420.27,989.822 1412.71,995.741 1404.25,999.458C1392.19,1004.76 1378.23,1005.54 1365.17,1000.32C1352.01,995.318 1342.24,985.281 1336.95,973.189C1333.12,964.417 1331.62,954.563 1332.97,944.67Z"/>
                        </g>
                        <g transform="matrix(1.34704,0,0,1.33281,1506.6,737.03)">
                            <path d="M1098.81,1241.16L1122.76,1216.62L1189.76,1045.65L1149.59,1065.62C1149.55,1065.54 1149.51,1065.46 1149.46,1065.38L1104.32,990.029C1104.18,989.793 1104.02,989.581 1103.83,989.392C1124.69,969.122 1159.41,936.907 1189.51,926.079C1227.3,912.487 1334.37,921.88 1334.37,921.88L1336.49,922.709C1334.66,925.543 1333.06,928.576 1331.7,931.793C1325.65,946.401 1325.96,962.051 1331.37,975.528C1336.93,989.36 1347.89,1000.84 1362.63,1006.8C1377.5,1012.5 1393.37,1011.58 1406.87,1005.22C1420.05,999.02 1430.94,987.708 1436.45,972.843C1437.64,969.561 1438.52,966.242 1439.1,962.923L1440.94,963.642C1440.94,963.642 1526.01,1029.55 1544.5,1065.2C1559.23,1093.6 1562.82,1140.82 1564.35,1169.87C1564.09,1169.88 1563.82,1169.93 1563.56,1170L1479.24,1194.62C1479.15,1194.65 1479.07,1194.68 1478.98,1194.71L1463.07,1152.76C1447.7,1178.26 1404.95,1312.88 1400.58,1329.91L1407.55,1345.4C1372.53,1392.07 1193.83,1317.19 1098.81,1241.16ZM1564.7,1176.88C1564.91,1181.25 1565.09,1185 1565.27,1187.95C1565.58,1192.88 1486.24,1213.85 1486.24,1213.85L1481.44,1201.19L1564.7,1176.88ZM1098.81,994.299L1143.38,1068.71L1131.26,1074.73C1131.26,1074.73 1087.29,1005.44 1090.87,1002.03C1093.01,999.988 1095.68,997.356 1098.81,994.299ZM1332.97,944.67C1333.72,965.831 1346.78,985.566 1367.73,993.78C1388.37,1001.87 1410.98,996.554 1425.92,982.047C1420.27,989.822 1412.71,995.741 1404.25,999.458C1392.19,1004.76 1378.23,1005.54 1365.17,1000.32C1352.01,995.318 1342.24,985.281 1336.95,973.189C1333.12,964.417 1331.62,954.563 1332.97,944.67Z" style="fill:white;"/>
                        </g>
                        <g transform="matrix(1.44119,0,0,1.42596,1424.69,673.329)">
                            <path d="M1377.15,952.702C1403.16,952.702 1427.03,947.481 1448.86,937.479C1470.99,927.341 1489.77,913.333 1505.3,895.592C1520.14,878.652 1531.73,858.885 1539.82,836.138C1547.48,814.605 1551.45,791.491 1551.45,766.751C1551.45,746.229 1547.44,726.516 1539.41,707.614C1531.55,689.089 1520.49,672.677 1506.24,658.386C1492.12,644.235 1475.18,632.815 1455.23,624.429C1435.68,616.214 1414.49,611.926 1391.6,611.926C1364.58,611.926 1340.42,617.322 1318.99,627.357C1297.75,637.299 1279.29,650.969 1263.59,668.366C1248.14,685.494 1236.21,705.49 1228.03,728.49C1220.37,750.023 1216.4,773.137 1216.4,797.877C1216.4,818.399 1220.41,838.111 1228.44,857.013C1236.18,875.261 1246.86,891.408 1260.42,905.485C1274.33,919.932 1291.34,931.637 1311.71,940.199C1330.97,948.288 1352.73,952.702 1377.15,952.702ZM1377.15,892.227C1361.49,892.227 1347.49,889.633 1335.14,884.445C1322.8,879.258 1312.41,872.287 1303.98,863.533C1295.54,854.779 1288.92,844.728 1284.1,833.38C1279.28,822.032 1276.88,810.197 1276.88,797.877C1276.88,780.369 1279.59,763.995 1285.01,748.756C1290.42,733.518 1298.25,720.224 1308.49,708.876C1318.73,697.529 1330.78,688.612 1344.63,682.128C1358.48,675.643 1374.14,672.401 1391.6,672.401C1406.06,672.401 1419.46,674.995 1431.8,680.182C1444.15,685.37 1454.69,692.341 1463.42,701.095C1472.15,709.849 1478.93,719.9 1483.75,731.248C1488.56,742.596 1490.97,754.43 1490.97,766.751C1490.97,784.259 1488.26,800.633 1482.84,815.871C1477.42,831.11 1469.74,844.403 1459.81,855.751C1449.87,867.099 1437.82,876.015 1423.67,882.5C1409.52,888.985 1394.01,892.227 1377.15,892.227Z"/>
                        </g>
                        <g transform="matrix(1.44119,0,0,1.42596,1403.61,630.211)">
                            <path d="M1377.15,952.702C1403.16,952.702 1427.03,947.481 1448.86,937.479C1470.99,927.341 1489.77,913.333 1505.3,895.592C1520.14,878.652 1531.73,858.885 1539.82,836.138C1547.48,814.605 1551.45,791.491 1551.45,766.751C1551.45,746.229 1547.44,726.516 1539.41,707.614C1531.55,689.089 1520.49,672.677 1506.24,658.386C1492.12,644.235 1475.18,632.815 1455.23,624.429C1435.68,616.214 1414.49,611.926 1391.6,611.926C1364.58,611.926 1340.42,617.322 1318.99,627.357C1297.75,637.299 1279.29,650.969 1263.59,668.366C1248.14,685.494 1236.21,705.49 1228.03,728.49C1220.37,750.023 1216.4,773.137 1216.4,797.877C1216.4,818.399 1220.41,838.111 1228.44,857.013C1236.18,875.261 1246.86,891.408 1260.42,905.485C1274.33,919.932 1291.34,931.637 1311.71,940.199C1330.97,948.288 1352.73,952.702 1377.15,952.702ZM1377.15,892.227C1361.49,892.227 1347.49,889.633 1335.14,884.445C1322.8,879.258 1312.41,872.287 1303.98,863.533C1295.54,854.779 1288.92,844.728 1284.1,833.38C1279.28,822.032 1276.88,810.197 1276.88,797.877C1276.88,780.369 1279.59,763.995 1285.01,748.756C1290.42,733.518 1298.25,720.224 1308.49,708.876C1318.73,697.529 1330.78,688.612 1344.63,682.128C1358.48,675.643 1374.14,672.401 1391.6,672.401C1406.06,672.401 1419.46,674.995 1431.8,680.182C1444.15,685.37 1454.69,692.341 1463.42,701.095C1472.15,709.849 1478.93,719.9 1483.75,731.248C1488.56,742.596 1490.97,754.43 1490.97,766.751C1490.97,784.259 1488.26,800.633 1482.84,815.871C1477.42,831.11 1469.74,844.403 1459.81,855.751C1449.87,867.099 1437.82,876.015 1423.67,882.5C1409.52,888.985 1394.01,892.227 1377.15,892.227Z" style="fill:white;"/>
                        </g>
                        <g transform="matrix(2.87084,0,0,3.05845,-3665.69,-2570.56)">
                            <path d="M2457.13,1462.52C2449.27,1462.52 2442.24,1461.31 2436.05,1458.89C2429.85,1456.48 2424.63,1453.23 2420.4,1449.14C2416.17,1445.06 2412.84,1440.38 2410.42,1435.09C2408,1429.79 2406.8,1424.28 2406.8,1418.53C2406.8,1410.37 2408.16,1402.74 2410.88,1395.63C2413.6,1388.53 2417.53,1382.33 2422.67,1377.04C2427.81,1371.75 2433.85,1367.59 2440.81,1364.57C2447.76,1361.54 2455.62,1360.03 2464.39,1360.03C2471.64,1360.03 2478.37,1361.24 2484.57,1363.66C2490.77,1366.08 2496.06,1369.33 2500.44,1373.41C2504.83,1377.49 2508.23,1382.18 2510.65,1387.47C2513.07,1392.76 2514.27,1398.28 2514.27,1404.02C2514.27,1412.18 2512.91,1419.82 2510.19,1426.92C2507.47,1434.03 2503.62,1440.22 2498.63,1445.52C2493.64,1450.81 2487.59,1454.96 2480.49,1457.99C2473.38,1461.01 2465.6,1462.52 2457.13,1462.52Z" style="fill:rgb(255,0,0);fill-rule:nonzero;"/>
                        </g>
                    </g>
                </g>
            </g>
        </g>
    </g>
</svg>
